<?xml version="1.0" encoding="utf-8"?>
<!-- Generator: Adobe Illustrator 27.3.1, SVG Export Plug-In . SVG Version: 6.00 Build 0)  -->
<svg version="1.1" id="Layer_1" xmlns="http://www.w3.org/2000/svg" xmlns:xlink="http://www.w3.org/1999/xlink" x="0px" y="0px"
	 viewBox="0 0 700 700" style="enable-background:new 0 0 700 700;" xml:space="preserve">
<style type="text/css">
	.st0{fill:#EFEEEE;}
</style>
<path class="st0" d="M673.5,493.6l-84-84.1c-16.6-17.2-36.7-26.3-57.9-26.3c-21.1,0-41.3,9-58.4,26.1L429.3,453
	c-2.2-1.1-4.3-2.2-6.3-3.2c-5.2-2.5-10.1-5.1-14.3-7.8c-44.4-28.2-84.9-65.1-123.8-112.8c-17.2-21.7-29-39.9-37.6-57.8
	c11.1-10.4,21.5-21,31.4-31.1c4.2-4.2,8.5-8.6,12.8-12.9c17.5-17.5,26.8-37.9,26.8-59c0-21.2-9.3-41.6-26.8-59l-41.7-41.7
	c-4.7-4.7-9.3-9.3-13.9-14.2l-0.2-0.2c-9.1-9.4-18.9-19.3-28.7-28.5C190.2,8.6,170.3,0,149.3,0c-20.9,0-41,8.7-58.2,25.1L38.5,77.7
	c-21.3,21-33.3,46.8-35.7,76.4c-2.8,35.3,3.6,72.6,20.2,117.2c25,67.9,62.6,130.8,118.4,197.8c67.6,80.8,149.2,144.7,242.5,190
	l0.1,0.1c36.1,17.1,84.4,37.1,137.9,40.6h0.6c3.1,0.1,6.3,0.3,9.7,0.3c38.3,0,69.3-13.3,94.5-40.6c0.4-0.5,1-1.1,1.6-1.8
	c7.1-8.4,15.1-16.3,23.7-24.6l2-1.9c8.1-7.7,14.4-14.1,20.1-19.9c16.9-17.6,25.8-38,25.7-59.1C699.6,530.9,690.6,510.7,673.5,493.6
	L673.5,493.6z M61,159c1.4-16,7.4-28.8,18.8-40.2l52-52c5.7-5.5,11.7-8.5,17.3-8.5c6.8,0,12.8,4.7,16.6,8.5l0.4,0.4
	c7.9,7.3,15.5,15.1,23.6,23.3l3.7,3.7c2.4,2.5,4.9,4.9,7.3,7.5c2.4,2.4,4.8,4.9,7.2,7.3l41.9,41.9c4.4,4.4,9.6,11,9.6,17.7
	c0,6.6-5.2,13.3-9.6,17.7c-2.2,2.2-4.4,4.4-6.6,6.6c-2.1,2.2-4.3,4.4-6.5,6.6l-3,3c-11.8,11.9-23,23.2-35.1,34l-1.2,1.2
	c-18.3,18.3-12,37.2-10,43.4c0.1,0.5,0.3,0.8,0.4,1.3l0.3,0.7c11.4,27.4,27.1,53,50.8,82.8l0.1,0.1c42.7,52.7,87.8,93.7,137.9,125.6
	c5.5,3.6,11.1,6.4,16.5,9.1c1,0.5,2,1,3,1.6l0.1,0.1c5.2,2.5,10.1,5.1,14.3,7.8l1.3,0.7c0.4,0.2,0.8,0.5,1.3,0.7
	c6.2,3.2,12.6,4.8,19.1,4.8c10.9,0,20.8-4.4,29.4-13.1l52.4-52.4c4.1-4.1,10.3-8.9,17.1-8.9c6.9,0,12.9,5.4,16,8.6l0.1,0.1
	l84.6,84.5c12.1,12.1,11.9,22.9-0.6,35.9l-0.1,0.1c-5.9,6.4-12.2,12.4-18.2,18.2l-1.7,1.6c-9.5,9.2-19.2,18.6-28.3,29.5
	c-13.8,14.8-29.6,21.4-51.1,21.4c-2,0-4.2-0.1-6.5-0.3c-43.9-2.8-85.2-20.1-116.3-35c-85.7-41.5-160.8-100.3-223-174.7
	c-51.3-61.8-85.8-119.2-108.6-180.7C64.3,215,58.9,185.6,61,159L61,159z"/>
</svg>
