<?xml version="1.0" encoding="utf-8"?>
<!-- Generator: Adobe Illustrator 27.3.1, SVG Export Plug-In . SVG Version: 6.00 Build 0)  -->
<svg version="1.1" id="Layer_1" xmlns="http://www.w3.org/2000/svg" xmlns:xlink="http://www.w3.org/1999/xlink" x="0px" y="0px"
	 viewBox="0 0 700 700" style="enable-background:new 0 0 700 700;" xml:space="preserve">
<style type="text/css">
	.st0{fill:#EFEEEE;}
</style>
<path class="st0" d="M693.4,403.8L366.2,75.9c-8.8-8.8-22.8-8.8-31.7,0L6.6,403.8c-8.8,8.8-8.8,22.8,0,31.7s22.8,8.8,31.7,0
	l76.6-76.6l0,291.1c0,27.3,22.1,50.1,50.1,50.1h369.2c27.3,0,50.1-22.1,50.1-50.1l0-291.1l76.6,76.6c4.4,4.4,10.3,6.6,16.2,6.6
	s11.8-2.2,16.2-6.6C702.2,426.6,702.2,412.6,693.4,403.8L693.4,403.8z M539.4,649.9c0,2.9-2.2,4.4-4.4,4.4H165
	c-2.9,0-4.4-2.2-4.4-4.4l0-336L350,123.8l189.4,189.4L539.4,649.9z"/>
</svg>
