<?xml version="1.0" encoding="utf-8"?>
<!-- Generator: Adobe Illustrator 27.3.1, SVG Export Plug-In . SVG Version: 6.00 Build 0)  -->
<svg version="1.1" id="Layer_1" xmlns="http://www.w3.org/2000/svg" xmlns:xlink="http://www.w3.org/1999/xlink" x="0px" y="0px"
	 viewBox="0 0 700 700" style="enable-background:new 0 0 700 700;" xml:space="preserve">
<style type="text/css">
	.st0{fill:#EFEEEE;}
</style>
<path class="st0" d="M31.9,206.9c-17.2,0-31.8,14.6-31.8,31.8v429.5c0,17.2,14.6,31.8,31.8,31.8h636.3c17.2,0,31.8-14.6,31.8-31.8
	V238.7c0-17.2-14.6-31.8-31.8-31.8H31.9z M82.4,254.6h535.4l-267.7,261L82.4,254.6L82.4,254.6z M47.8,287.4l285.6,278.4v0
	c4.5,4.3,10.4,6.8,16.7,6.8c6.2,0,12.2-2.4,16.7-6.8l285.6-278.4v364.9H47.8L47.8,287.4L47.8,287.4z"/>
</svg>
