<?xml version="1.0" encoding="utf-8"?>
<!-- Generator: Adobe Illustrator 27.2.0, SVG Export Plug-In . SVG Version: 6.00 Build 0)  -->
<svg version="1.1" id="Layer_1" xmlns="http://www.w3.org/2000/svg" xmlns:xlink="http://www.w3.org/1999/xlink" x="0px" y="0px"
	 viewBox="0 0 700.2 700.2" style="enable-background:new 0 0 700.2 700.2;" xml:space="preserve">
<style type="text/css">
	.st0{fill:#255E5A;}
</style>
<g>
	<path class="st0" d="M640.3,580.5l9.1,5.5c5,3.1,11.6,1.5,14.6-3.6c3.1-5,1.5-11.6-3.6-14.7l-9.1-5.5l41.6-17.5
		c3.5-1.6,5.9-4.9,6.3-8.7c0.3-3.9-1.7-7.7-5-9.8L615,478.1c17.9-50.6,22.3-105,12.9-157.8c12.4-6.8,20.3-19.8,20.6-34
		c0.3-14.2-6.9-27.5-19.1-34.9c-7.3-4.5-15.9-6.5-24.4-5.6c-39.9-88-118.3-152.5-212.4-174.6c-94-22.1-193,0.7-267.9,61.7
		S7.5,286.2,10.1,382.8s49.9,186.4,128,243.3c4.8,3.5,11.5,2.4,14.9-2.4c3.5-4.8,2.4-11.5-2.4-14.9C77.6,556,33.1,472.2,30.4,382.1
		S67,205.7,136.8,148.6s162.2-78.5,250-58s161.1,80.7,198.3,162.8c-4.1,3.1-7.5,7-10.1,11.5c-7.3,12.1-7.7,27.1-1,39.5
		s19.4,20.4,33.5,21c8.8,50.9,3.8,103.2-14.5,151.4L537.5,493l-5.6-3.4c28.1-51.3,36.6-111.1,23.7-168.2s-46.1-107.5-93.5-141.8
		s-105.7-50.1-164-44.4c-3.2-7.6-8.7-14.1-15.8-18.3c-9-5.4-19.7-7-29.8-4.5c-10.2,2.5-18.9,8.8-24.5,17.7
		c-4.6,7.5-6.6,16.4-5.5,25.2c-65.3,29.3-114.1,86.1-133.1,155.1C70.3,379.3,83,453.2,124,511.8s106,95.9,177.2,101.8
		c3.3,9.5,10.2,17.4,19.1,22.1c8.9,4.7,19.3,5.7,29,3s18-9.1,23.2-17.7c2.4-4,4.1-8.4,4.9-13c58.6-14.2,109.8-49.9,143.2-100.1
		l5.6,3.4l11.3,56.8l0,0c-42.6,47.4-99.5,79.5-162.1,91.4s-127.3,2.9-184.3-25.5c-5.2-2.6-11.6-0.5-14.2,4.7c-2.4,5-0.7,11,4.1,13.8
		l0.7,0.4c60.1,30,128.2,39.8,194.3,28s126.6-44.7,172.5-93.6l79.3,48.3c3.4,1.9,7.5,1.9,10.9-0.2c3.3-2,5.3-5.7,5.1-9.6
		L640.3,580.5z M599,301.5c-6.5-3.9-10-11.4-8.8-18.9s6.7-13.6,14.1-15.4c7.4-1.8,15.1,1,19.6,7.2c4.5,6.1,4.8,14.4,0.9,20.8
		c-2.6,4.3-6.8,7.3-11.6,8.5C608.3,304.8,603.2,304,599,301.5L599,301.5z M271.6,135c6.5,3.9,9.9,11.4,8.7,18.9
		c-1.2,7.5-6.8,13.5-14.2,15.2c-7.4,1.7-15.1-1.2-19.5-7.3c-4.4-6.2-4.6-14.4-0.6-20.8C251.6,132.4,262.9,129.7,271.6,135L271.6,135
		z M329.2,615.9c-6.4-4-9.8-11.4-8.6-18.8c1.2-7.4,6.7-13.4,14.1-15.2c7.3-1.8,15,1.1,19.4,7.1c4.4,6.1,4.8,14.3,0.9,20.7
		c-2.6,4.2-6.8,7.3-11.6,8.4C338.5,619.3,333.4,618.5,329.2,615.9L329.2,615.9z M457.8,317.1L457.8,317.1
		c16.5,40.2,14.8,85.6-4.9,124.3l-43.1-26.2c10.6-22.9,12-49,3.7-72.9c-8.2-23.9-25.4-43.6-47.9-55.1s-48.6-13.8-72.7-6.5
		c-24.2,7.3-44.5,23.8-56.8,45.8c-12.3,22-15.6,48-9.1,72.4c6.4,24.4,22.1,45.4,43.7,58.5c12.3,7.6,26.3,12.3,40.7,13.8
		c5.3-0.2,9.7-4.3,10.3-9.6c0.6-5.3-2.9-10.2-8.1-11.5c-21.5-2.1-41.2-13.3-54-30.7c-12.8-17.4-17.7-39.5-13.3-60.7
		c4.3-21.2,17.5-39.6,36.1-50.5c18.6-11,41.1-13.5,61.7-7s37.6,21.4,46.6,41.1s9.3,42.2,0.7,62.1l-32.7-19.9
		c3.3-12.1,0.5-25-7.4-34.7s-20.1-14.9-32.5-14c-12.5,0.9-23.8,7.8-30.3,18.4c-6.5,10.7-7.4,23.9-2.5,35.4
		c5,11.5,15.2,19.9,27.4,22.5c12.2,2.6,25-0.9,34.2-9.4l32.9,20c-6.7,8.2-15,14.9-24.5,19.7c-3.1,0.9-5.6,3.1-6.9,6.1
		s-1.1,6.3,0.4,9.2c1.5,2.8,4.2,4.9,7.4,5.5c3.2,0.6,6.4-0.2,8.9-2.3c12.9-6.6,24.2-16,33-27.4l43.1,26.2
		c-23.9,33.6-60.8,55.7-101.8,60.9c-40.9,5.2-82.2-7-113.7-33.6c-31.5-26.6-50.5-65.2-52.4-106.4c-1.8-41.2,13.7-81.3,42.7-110.6
		c29.1-29.3,69.1-45.1,110.3-43.5c41.2,1.5,79.9,20.2,106.8,51.6c4,2.9,9.4,2.7,13.1-0.5c3.8-3.2,4.9-8.5,2.7-12.9
		c-30.7-36-75.1-57.5-122.4-59.2s-93.1,16.5-126.3,50.2s-50.8,79.8-48.4,127c2.4,47.3,24.4,91.4,60.8,121.6
		c36.4,30.2,83.8,43.8,130.7,37.4c46.9-6.4,88.9-32.2,115.9-71l43,26.2c-30,44.2-75.1,76-126.8,89.2c-3.1-8.4-8.9-15.4-16.5-20
		c-9-5.5-19.8-7.1-30.1-4.6c-10.2,2.5-19.1,8.9-24.6,17.9c-2.4,3.9-4,8.2-4.9,12.6c-32.7-3.2-64.2-13.9-92.2-31.1
		c-45.4-27.7-79.2-71-95-121.7c-15.8-50.8-12.6-105.6,9-154.1c21.6-48.6,60.2-87.6,108.5-109.9c3,3.9,6.8,7.2,11,9.8
		c9.1,5.5,19.9,7.2,30.2,4.6c10.3-2.5,19.1-9.1,24.6-18.2c2.8-4.7,4.7-10,5.4-15.4c52.9-4.9,105.8,9.7,148.8,40.9
		c43,31.3,73.1,77.1,84.9,128.9c11.7,51.8,4.2,106.2-21.2,152.9l-43-26.2c23.2-44.5,25.5-97,6.4-143.4c-2.7-4.5-8.3-6.3-13.1-4.3
		C459.3,306.8,456.6,312,457.8,317.1L457.8,317.1z M315.9,383.1l11.9,7.3c-5.7,2.4-12.2,1.6-17.1-2c-5-3.6-7.7-9.6-7.2-15.7
		s4.2-11.5,9.7-14.3c5.5-2.7,12-2.4,17.2,0.9c4.7,2.9,7.8,7.8,8.3,13.3l-11.9-7.3c-5-3.1-11.6-1.5-14.7,3.6
		c-3.1,5-1.5,11.6,3.6,14.7L315.9,383.1z M559.5,568.7l-8.6-42.7l67.2,40.9l3.2,39.4L559.5,568.7z M629.2,548.7L562,507.8l41.9-12
		l61.9,37.6L629.2,548.7z"/>
</g>
</svg>
