<?xml version="1.0" encoding="utf-8"?>
<!-- Generator: Adobe Illustrator 27.2.0, SVG Export Plug-In . SVG Version: 6.00 Build 0)  -->
<svg version="1.1" id="Layer_1" xmlns="http://www.w3.org/2000/svg" xmlns:xlink="http://www.w3.org/1999/xlink" x="0px" y="0px"
	 viewBox="0 0 700.2 700.2" style="enable-background:new 0 0 700.2 700.2;" xml:space="preserve">
<style type="text/css">
	.st0{fill:#824733;}
</style>
<g>
	<path class="st0" d="M699.5,391.6c-6.3-9.1-157.9-223.4-349.4-223.4S7,382.5,0.6,391.6c-2.9,4.2-2.9,9.7,0,13.9
		c5.3,7.6,131.3,186,298.9,218.4c6.6,1.2,12.9-3.1,14.2-9.6c1.3-6.6-3-12.9-9.6-14.2C164.3,573.1,50.6,431.7,25.6,398.6
		c27.7-36.7,164.1-206.1,324.5-206.1s296.8,169.4,324.5,206.1c-25,33.1-138.7,174.5-278.5,201.5c-6.1,1.2-10.4,6.8-9.8,13.1
		c0.6,6.2,5.8,11,12.1,11c0.8,0,1.6-0.1,2.3-0.2c167.6-32.3,293.6-210.8,298.9-218.4C702.4,401.3,702.4,395.8,699.5,391.6
		L699.5,391.6z"/>
	<path class="st0" d="M532,398.6c0-48.2-19.2-94.5-53.3-128.6c-34.1-34.1-80.4-53.3-128.6-53.3s-94.5,19.2-128.6,53.3
		c-34.1,34.1-53.3,80.4-53.3,128.6s19.2,94.5,53.3,128.6c34.1,34.1,80.4,53.3,128.6,53.3c48.2-0.1,94.4-19.2,128.5-53.3
		S531.9,446.8,532,398.6z M350.1,556.2c-37.6,0-73.9-13.5-102.4-38.1l107.4-107.4h152c-3.1,39.6-20.9,76.5-50,103.5
		C427.9,541.1,389.7,556.1,350.1,556.2L350.1,556.2z M507.1,386.5H362.2V241.6c37.5,2.9,72.6,19.1,99.2,45.7
		C488,313.8,504.2,349,507.1,386.5L507.1,386.5z M338,241.6v152L230.5,501c-25.4-29.6-39-67.5-38-106.5c1-39,16.4-76.2,43.3-104.5
		C262.7,261.8,299.1,244.5,338,241.6L338,241.6z"/>
	<path class="st0" d="M350.1,144c3.2,0,6.3-1.3,8.6-3.6c2.3-2.3,3.6-5.4,3.6-8.6V83.3c0-6.7-5.4-12.1-12.1-12.1
		c-6.7,0-12.1,5.4-12.1,12.1v48.5c0,3.2,1.3,6.3,3.6,8.6C343.8,142.7,346.9,144,350.1,144z"/>
	<path class="st0" d="M194.1,176.9c1.6,2.8,4.3,4.8,7.4,5.6c3.1,0.8,6.4,0.4,9.2-1.2c2.8-1.6,4.8-4.3,5.6-7.4
		c0.8-3.1,0.4-6.4-1.2-9.2l-24.2-42c-3.4-5.8-10.8-7.8-16.5-4.4c-5.8,3.3-7.8,10.8-4.4,16.5L194.1,176.9z"/>
	<path class="st0" d="M489.5,181.3c2.8,1.6,6.1,2.1,9.2,1.2c3.1-0.8,5.8-2.9,7.4-5.7l24.2-42c3.3-5.8,1.4-13.2-4.4-16.5
		c-5.8-3.3-13.2-1.4-16.5,4.4l-24.2,42c-1.6,2.8-2.1,6.1-1.2,9.2C484.7,177.1,486.7,179.7,489.5,181.3L489.5,181.3z"/>
	<path class="st0" d="M362.2,616.8c0,6.7-5.4,12.1-12.1,12.1c-6.7,0-12.1-5.4-12.1-12.1s5.4-12.1,12.1-12.1
		C356.8,604.7,362.2,610.1,362.2,616.8"/>
</g>
</svg>
