<?xml version="1.0" encoding="utf-8"?>
<!-- Generator: Adobe Illustrator 27.2.0, SVG Export Plug-In . SVG Version: 6.00 Build 0)  -->
<svg version="1.1" id="Layer_1" xmlns="http://www.w3.org/2000/svg" xmlns:xlink="http://www.w3.org/1999/xlink" x="0px" y="0px"
	 viewBox="0 0 700.2 700.2" style="enable-background:new 0 0 700.2 700.2;" xml:space="preserve">
<style type="text/css">
	.st0{fill:#824733;}
</style>
<g>
	<path class="st0" d="M699.5,463.4C693.2,454.3,541.6,240,350.1,240S7,454.3,0.6,463.4c-2.9,4.2-2.9,9.7,0,13.9
		c5.3,7.6,131.3,186,298.9,218.4c6.6,1.2,12.9-3.1,14.2-9.6c1.3-6.6-3-12.9-9.6-14.2c-139.8-27-253.5-168.4-278.5-201.5
		c27.7-36.7,164.1-206.1,324.5-206.1s296.8,169.4,324.5,206.1c-25,33.1-138.7,174.5-278.5,201.5c-6.1,1.2-10.4,6.8-9.8,13.1
		c0.6,6.2,5.8,11,12.1,11c0.8,0,1.6-0.1,2.3-0.2C568.3,663.5,694.3,485,699.6,477.4C702.4,473.1,702.4,467.6,699.5,463.4
		L699.5,463.4z"/>
	<path class="st0" d="M532,470.4c0-48.2-19.2-94.5-53.3-128.6s-80.4-53.3-128.6-53.3s-94.5,19.2-128.6,53.3s-53.3,80.4-53.3,128.6
		s19.2,94.5,53.3,128.6s80.4,53.3,128.6,53.3c48.2-0.1,94.4-19.2,128.5-53.3S531.9,518.6,532,470.4z M350.1,628
		c-37.6,0-73.9-13.5-102.4-38.1l107.4-107.4h152c-3.1,39.6-20.9,76.5-50,103.5C427.9,612.9,389.7,627.9,350.1,628L350.1,628z
		 M507.1,458.3H362.2V313.4c37.5,2.9,72.6,19.1,99.2,45.7C488,385.6,504.2,420.8,507.1,458.3L507.1,458.3z M338,313.4v152
		L230.5,572.8c-25.4-29.6-39-67.5-38-106.5s16.4-76.2,43.3-104.5C262.7,333.6,299.1,316.3,338,313.4L338,313.4z"/>
	<path class="st0" d="M350.1,215.8c3.2,0,6.3-1.3,8.6-3.6c2.3-2.3,3.6-5.4,3.6-8.6v-48.5c0-6.7-5.4-12.1-12.1-12.1
		s-12.1,5.4-12.1,12.1v48.5c0,3.2,1.3,6.3,3.6,8.6C343.8,214.5,346.9,215.8,350.1,215.8z"/>
	<path class="st0" d="M194.1,248.7c1.6,2.8,4.3,4.8,7.4,5.6c3.1,0.8,6.4,0.4,9.2-1.2c2.8-1.6,4.8-4.3,5.6-7.4
		c0.8-3.1,0.4-6.4-1.2-9.2l-24.2-42c-3.4-5.8-10.8-7.8-16.5-4.4c-5.8,3.3-7.8,10.8-4.4,16.5L194.1,248.7z"/>
	<path class="st0" d="M489.5,253.1c2.8,1.6,6.1,2.1,9.2,1.2c3.1-0.8,5.8-2.9,7.4-5.7l24.2-42c3.3-5.8,1.4-13.2-4.4-16.5
		c-5.8-3.3-13.2-1.4-16.5,4.4l-24.2,42c-1.6,2.8-2.1,6.1-1.2,9.2C484.7,248.9,486.7,251.5,489.5,253.1L489.5,253.1z"/>
	<path class="st0" d="M362.2,688.6c0,6.7-5.4,12.1-12.1,12.1s-12.1-5.4-12.1-12.1s5.4-12.1,12.1-12.1
		C356.8,676.5,362.2,681.9,362.2,688.6"/>
</g>
</svg>
