<?xml version="1.0" encoding="utf-8"?>
<!-- Generator: Adobe Illustrator 27.2.0, SVG Export Plug-In . SVG Version: 6.00 Build 0)  -->
<svg version="1.1" id="Layer_1" xmlns="http://www.w3.org/2000/svg" xmlns:xlink="http://www.w3.org/1999/xlink" x="0px" y="0px"
	 viewBox="0 0 700.2 700.2" style="enable-background:new 0 0 700.2 700.2;" xml:space="preserve">
<style type="text/css">
	.st0{fill:#255E5A;}
</style>
<path class="st0" d="M305.7,611.5c70.9,0,136-25.5,186.7-67.7l156.3,156.3l37.9-37.9L530.3,506c42.1-50.7,67.6-115.8,67.6-186.6
	c0-161.1-131.1-292.2-292.2-292.2S13.5,158.2,13.5,319.3S144.6,611.5,305.7,611.5L305.7,611.5z M305.7,80.7
	c131.6,0,238.6,107,238.6,238.5c0,131.6-107,238.6-238.6,238.6c-131.5,0-238.5-107-238.5-238.6C67.1,187.7,174.2,80.7,305.7,80.7
	L305.7,80.7z"/>
</svg>
