<?xml version="1.0" encoding="utf-8"?>
<!-- Generator: Adobe Illustrator 26.0.2, SVG Export Plug-In . SVG Version: 6.00 Build 0)  -->
<svg version="1.1" id="Layer_1" xmlns="http://www.w3.org/2000/svg" xmlns:xlink="http://www.w3.org/1999/xlink" x="0px" y="0px"
	 viewBox="0 0 100 100" style="enable-background:new 0 0 100 100;" xml:space="preserve">
<style type="text/css">
	.st0{fill:#255E5A;}
	.st1{fill:#E2DAD6;}
</style>
<circle class="st0" cx="50" cy="50" r="48.6"/>
<g>
	<path class="st1" d="M57.3,48.8c-3.4,0-6.1-2.7-6.1-6.1V28.1c0-3.4,2.7-6.1,6.1-6.1c3.4,0,6.1,2.7,6.1,6.1v14.6
		C63.4,46,60.7,48.8,57.3,48.8z M71.9,48.8h-4.9c-0.7,0-1.2-0.5-1.2-1.2v-4.9c0-3.4,2.7-6.1,6.1-6.1c3.4,0,6.1,2.7,6.1,6.1
		C78,46,75.3,48.8,71.9,48.8z M42.7,48.8H28.1c-3.4,0-6.1-2.7-6.1-6.1c0-3.4,2.7-6.1,6.1-6.1h14.6c3.4,0,6.1,2.7,6.1,6.1
		C48.8,46,46,48.8,42.7,48.8z M47.6,34.2h-4.9c-3.4,0-6.1-2.7-6.1-6.1s2.7-6.1,6.1-6.1c3.4,0,6.1,2.7,6.1,6.1v4.9
		C48.8,33.6,48.2,34.2,47.6,34.2z M42.7,78c-3.4,0-6.1-2.7-6.1-6.1V57.3c0-3.4,2.7-6.1,6.1-6.1c3.4,0,6.1,2.7,6.1,6.1v14.6
		C48.8,75.3,46,78,42.7,78z M28.1,63.4c-3.4,0-6.1-2.7-6.1-6.1c0-3.4,2.7-6.1,6.1-6.1h4.9c0.7,0,1.2,0.5,1.2,1.2v4.9
		C34.2,60.7,31.4,63.4,28.1,63.4z M71.9,63.4H57.3c-3.4,0-6.1-2.7-6.1-6.1c0-3.4,2.7-6.1,6.1-6.1h14.6c3.4,0,6.1,2.7,6.1,6.1
		C78,60.7,75.3,63.4,71.9,63.4z M57.3,78c-3.4,0-6.1-2.7-6.1-6.1v-4.9c0-0.7,0.5-1.2,1.2-1.2h4.9c3.4,0,6.1,2.7,6.1,6.1
		C63.4,75.3,60.7,78,57.3,78z"/>
</g>
</svg>
