<?xml version="1.0" encoding="utf-8"?>
<!-- Generator: Adobe Illustrator 26.0.2, SVG Export Plug-In . SVG Version: 6.00 Build 0)  -->
<svg version="1.1" id="Layer_1" xmlns="http://www.w3.org/2000/svg" xmlns:xlink="http://www.w3.org/1999/xlink" x="0px" y="0px"
	 viewBox="0 0 100 100" style="enable-background:new 0 0 100 100;" xml:space="preserve">
<style type="text/css">
	.st0{fill:#255E5A;}
	.st1{fill:#E2DAD6;}
</style>
<circle class="st0" cx="50" cy="50" r="48.6"/>
<g>
	<path class="st1" d="M50,19.4c-17,0-30.8,13.8-30.8,30.8c0,15.4,11.4,28.2,26.2,30.4V58.3h-7.6v-8.1h7.6v-5.4
		c0-8.9,4.3-12.8,11.8-12.8c3.5,0,5.4,0.3,6.3,0.4v7.1h-5.1c-3.1,0-4.2,3-4.2,6.3v4.4h9.2l-1.3,8.1h-8v22.3
		c15-2,26.6-14.9,26.6-30.5C80.8,33.2,67,19.4,50,19.4z"/>
</g>
</svg>
