<?xml version="1.0" encoding="utf-8"?>
<!-- Generator: Adobe Illustrator 26.0.2, SVG Export Plug-In . SVG Version: 6.00 Build 0)  -->
<svg version="1.1" id="Layer_1" xmlns="http://www.w3.org/2000/svg" xmlns:xlink="http://www.w3.org/1999/xlink" x="0px" y="0px"
	 viewBox="0 0 100 100" style="enable-background:new 0 0 100 100;" xml:space="preserve">
<style type="text/css">
	.st0{fill:#255E5A;}
	.st1{fill:#E2DAD6;}
</style>
<circle class="st0" cx="50" cy="50" r="48.6"/>
<path class="st1" d="M70.5,39.5c0,0.5,0,0.9,0,1.4c0,13.9-10.6,30.1-30.1,30.1c-6,0-11.6-1.7-16.2-4.8c0.9,0.1,1.7,0.1,2.6,0.1
	c5,0,9.5-1.7,13.1-4.5c-4.6-0.1-8.5-3.2-9.8-7.3c0.7,0.1,1.3,0.1,2,0.1c0.9,0,1.9-0.1,2.8-0.3c-4.8-1-8.5-5.2-8.5-10.4v-0.1
	c1.4,0.8,3,1.3,4.8,1.3c-2.8-1.9-4.7-5.2-4.7-8.8c0-2,0.5-3.8,1.5-5.4c5.2,6.4,13,10.6,21.8,11c-0.1-0.8-0.3-1.6-0.3-2.4
	C49.4,33.7,54.1,29,60,29c3,0,5.8,1.3,7.7,3.3c2.4-0.5,4.7-1.3,6.7-2.6c-0.8,2.4-2.4,4.5-4.6,5.8c2.1-0.2,4.2-0.8,6.1-1.7
	C74.3,36.1,72.6,38,70.5,39.5L70.5,39.5z"/>
</svg>
