<?xml version="1.0" encoding="utf-8"?>
<!-- Generator: Adobe Illustrator 26.0.2, SVG Export Plug-In . SVG Version: 6.00 Build 0)  -->
<svg version="1.1" id="Layer_1" xmlns="http://www.w3.org/2000/svg" xmlns:xlink="http://www.w3.org/1999/xlink" x="0px" y="0px"
	 viewBox="0 0 100 100" style="enable-background:new 0 0 100 100;" xml:space="preserve">
<style type="text/css">
	.st0{fill:#255E5A;}
	.st1{fill:#E2DAD6;}
	.st2{display:none;fill:#E2DAD6;}
</style>
<circle class="st0" cx="50" cy="50" r="48.6"/>
<g>
	<path class="st1" d="M28.1,33.6c-1,0-1.8,0.8-1.8,1.8v2.5L46,54.1c2.4,1.9,5.7,1.9,8.1,0l19.6-16.1v-2.5c0-1-0.8-1.8-1.8-1.8H28.1z
		 M26.3,45v19.6c0,1,0.8,1.8,1.8,1.8h43.7c1,0,1.8-0.8,1.8-1.8V45L57.5,58.3c-4.4,3.6-10.7,3.6-15,0L26.3,45z M20.9,35.4
		c0-4,3.3-7.3,7.3-7.3h43.7c4,0,7.3,3.3,7.3,7.3v29.1c0,4-3.3,7.3-7.3,7.3H28.1c-4,0-7.3-3.3-7.3-7.3V35.4z"/>
</g>
<path class="st2" d="M81,34.1c0,0.7,0,1.4,0,2.1c0,21.1-16.1,45.5-45.5,45.5c-9.1,0-17.5-2.6-24.5-7.2c1.3,0.1,2.5,0.2,3.9,0.2
	c7.5,0,14.4-2.5,19.8-6.8c-7-0.1-12.9-4.8-14.9-11.1c1,0.1,2,0.2,3,0.2c1.4,0,2.9-0.2,4.2-0.5c-7.3-1.5-12.8-7.9-12.8-15.7v-0.2
	c2.1,1.2,4.6,1.9,7.2,2c-4.3-2.9-7.1-7.8-7.1-13.3c0-3,0.8-5.7,2.2-8.1c7.9,9.7,19.7,16,33,16.7c-0.2-1.2-0.4-2.4-0.4-3.7
	c0-8.8,7.1-16,16-16c4.6,0,8.8,1.9,11.7,5c3.6-0.7,7.1-2,10.1-3.9c-1.2,3.7-3.7,6.8-7,8.8c3.2-0.3,6.3-1.2,9.2-2.5
	C86.8,29,84.1,31.8,81,34.1L81,34.1z"/>
</svg>
