<?xml version="1.0" encoding="utf-8"?>
<!-- Generator: Adobe Illustrator 26.0.2, SVG Export Plug-In . SVG Version: 6.00 Build 0)  -->
<svg version="1.1" id="Layer_1" xmlns="http://www.w3.org/2000/svg" xmlns:xlink="http://www.w3.org/1999/xlink" x="0px" y="0px"
	 viewBox="0 0 100 100" style="enable-background:new 0 0 100 100;" xml:space="preserve">
<style type="text/css">
	.st0{fill:#255E5A;}
	.st1{fill:#E2DAD6;}
</style>
<circle class="st0" cx="50" cy="50" r="48.6"/>
<g>
	<path class="st1" d="M71.4,22H28.6C25,22,22,25,22,28.6v42.7c0,3.7,3,6.7,6.7,6.7h42.7c3.7,0,6.7-3,6.7-6.7V28.6
		C78,25,75,22,71.4,22z M39.3,43.3v25.4h-8V43.3H39.3z M31.3,35.9c0-1.9,1.6-3.3,4-3.3c2.4,0,3.9,1.4,4,3.3c0,1.9-1.5,3.4-4,3.4
		C32.9,39.3,31.3,37.8,31.3,35.9z M68.7,68.7h-8c0,0,0-12.4,0-13.3c0-2.7-1.3-5.3-4.7-5.4h-0.1c-3.2,0-4.6,2.7-4.6,5.4
		c0,1.2,0,13.3,0,13.3h-8V43.3h8v3.4c0,0,2.6-3.4,7.8-3.4c5.3,0,9.6,3.6,9.6,11V68.7z"/>
</g>
</svg>
