<?xml version="1.0" encoding="utf-8"?>
<!-- Generator: Adobe Illustrator 27.3.1, SVG Export Plug-In . SVG Version: 6.00 Build 0)  -->
<svg version="1.1" id="Layer_1" xmlns="http://www.w3.org/2000/svg" xmlns:xlink="http://www.w3.org/1999/xlink" x="0px" y="0px"
	 viewBox="0 0 700 700" style="enable-background:new 0 0 700 700;" xml:space="preserve">
<style type="text/css">
	.st0{fill:#255E5A;}
</style>
<g>
	<path class="st0" d="M181.5,284.1l156.6,82.7c5.6,2.9,12.3,2.9,17.8,0l156.6-82.7c6.2-3.3,10.2-9.8,10.2-16.9V101.8
		c0-7.1-3.9-13.6-10.2-16.9L355.9,2.2c-5.6-3-12.2-3-17.8,0L181.5,84.9c-6.2,3.3-10.2,9.8-10.2,16.9v165.4
		C171.3,274.3,175.2,280.8,181.5,284.1z M347,328.4l-115.6-61.1L347,206.1l115.6,61.2L347,328.4z M484.6,235.8l-118.4-62.7V50.8
		l118.4,62.6V235.8z M327.9,50.8V173l-118.4,62.7V113.3L327.9,50.8z"/>
	<path class="st0" d="M601.5,50.9h-21.6c-10.4,0-19.1,8.7-19.1,19.1c0,10.4,8.7,19.1,19.1,19.1h21.6c31.6,0,57.3,25.7,57.3,57.3
		v311.8l-464.5,0c-10.4,0-19.1,8.7-19.1,19.1c0,10.4,8.7,19.1,19.1,19.1h464.5v6.4c0,31.6-25.7,57.3-57.3,57.3H92.5
		c-31.6,0-57.3-25.7-57.3-57.3v-6.4h82.7c10.4,0,19.1-8.7,19.1-19.1c0-10.4-8.7-19.1-19.1-19.1H35.2V146.4
		c0-31.6,25.7-57.3,57.3-57.3h21.6c10.4,0,19.1-8.7,19.1-19.1c0-10.4-8.7-19.1-19.1-19.1H92.5C39.8,50.9-3,93.7-3,146.4v356.3
		c0,52.7,42.8,95.5,95.5,95.5h157.1c-4.8,22.7-17.6,44.5-37.4,63.6h-68.7c-10.4,0-19.1,8.7-19.1,19.1c0,10.4,8.7,19.1,19.1,19.1
		h407.3c10.4,0,19.1-8.7,19.1-19.1c0-10.4-8.7-19.1-19.1-19.1h-68.7c-19.9-19.1-32.6-41-37.4-63.6h157c52.7,0,95.5-42.8,95.5-95.5
		V146.4C697,93.7,654.2,50.9,601.5,50.9L601.5,50.9z M262.2,661.8c14-19.9,22.9-41.5,26.2-63.6h117.1c3.3,22.1,12.2,43.8,26.2,63.6
		H262.2z"/>
</g>
</svg>
