<?xml version="1.0" encoding="UTF-8"?>
<svg width="700pt" height="700pt" version="1.1" viewBox="0 0 700 700" xmlns="http://www.w3.org/2000/svg">
 <path d="m596.93 272.71-117.09-202.88c-1.2852-2.2266-3.1367-4.0742-5.3594-5.3594-2.2266-1.2852-4.7539-1.9609-7.3242-1.9609l-234.25-0.027343c-2.5664-0.003907-5.0938 0.67188-7.3164 1.957-2.2266 1.2852-4.0742 3.1367-5.3555 5.3633l-117.16 202.85c-1.2891 2.2227-1.9648 4.7461-1.9688 7.3164 0 2.5703 0.67578 5.0977 1.9609 7.3242l35.457 61.434c1.7891 3.1133 4.6602 5.457 8.0703 6.582 3.4062 1.1289 7.1094 0.96484 10.402-0.46094l99.203-42.734c3.1914-1.375 5.7891-3.8398 7.332-6.9531 1.5391-3.1172 1.9219-6.6758 1.082-10.047-6.6562-26.75-2.7891-55.035 10.809-79.012 13.594-23.98 35.879-41.824 62.25-49.848 26.371-8.0234 54.816-5.6133 79.465 6.7305l-91.016 50.797c-4.2773 2.3906-7.0781 6.7578-7.4648 11.641l-4.2734 54.773c-0.22656 2.8711 0.40234 5.7461 1.8008 8.2656 1.4023 2.5156 3.5156 4.5625 6.0742 5.8867l48.875 25.234c4.3633 2.2656 9.5742 2.1797 13.855-0.22656l91.039-50.801c-2.4219 27.484-15.316 52.988-36.016 71.23-20.699 18.242-47.621 27.828-75.191 26.773-27.57-1.0547-53.684-12.668-72.93-32.434-2.4297-2.4805-5.6562-4.0156-9.1094-4.3398-3.457-0.32422-6.9141 0.58203-9.7617 2.5664l-87.441 61.148c-3.0039 2.1016-5.1094 5.25-5.9023 8.8242-0.79297 3.5781-0.21875 7.3203 1.6094 10.492l38.867 67.355c1.2852 2.2266 3.1367 4.0742 5.3594 5.3594 2.2266 1.2852 4.7539 1.9609 7.3242 1.9609l234.25 0.027343c2.5664 0.003907 5.0938-0.67578 7.3164-1.9609 2.2266-1.2852 4.0742-3.1328 5.3555-5.3594l117.16-202.85c1.2891-2.2227 1.9648-4.75 1.9648-7.3164 0.003906-2.5703-0.67188-5.0977-1.957-7.3242zm-138.29 195.53-217.34-0.027343-27.938-48.41 66.738-46.668h0.003906c28.133 24.047 64.812 35.66 101.66 32.191 36.848-3.4688 70.715-21.727 93.867-50.598 23.152-28.875 33.613-65.902 28.988-102.62-0.60156-4.8281-3.5703-9.043-7.9141-11.238-4.3438-2.1953-9.4961-2.0898-13.746 0.28906l-105.37 58.805-33.25-17.172 2.9023-37.258 105.39-58.82c4.2539-2.3711 7.0508-6.7031 7.457-11.555 0.41016-4.8516-1.6211-9.5898-5.418-12.637-28.824-23.176-65.801-33.695-102.5-29.156-36.707 4.5352-70.012 23.742-92.32 53.238-22.312 29.492-31.734 66.766-26.113 103.32l-76.348 32.883-24.723-42.832 108.7-188.21 217.34 0.027343 108.64 188.24z"/>
</svg>
