<?xml version="1.0" encoding="UTF-8"?>
<svg width="700pt" height="700pt" version="1.1" viewBox="0 0 700 700" xmlns="http://www.w3.org/2000/svg" xmlns:xlink="http://www.w3.org/1999/xlink">
 <defs>
  <symbol id="y" overflow="visible">
   <path d="m1.2188-0.078125c-0.0625 0.03125-0.13281 0.058594-0.20312 0.078125-0.0625 0.019531-0.13281 0.03125-0.20312 0.03125-0.23047 0-0.40625-0.0625-0.53125-0.1875s-0.1875-0.28906-0.1875-0.5c0-0.20703 0.0625-0.375 0.1875-0.5s0.30078-0.1875 0.53125-0.1875c0.070312 0 0.14062 0.011719 0.20312 0.03125 0.070313 0.011719 0.14062 0.03125 0.20312 0.0625v0.28125c-0.0625-0.039062-0.125-0.070312-0.1875-0.09375-0.0625-0.019531-0.13281-0.03125-0.20312-0.03125-0.11719 0-0.21094 0.042969-0.28125 0.125-0.074219 0.074219-0.10938 0.17969-0.10938 0.3125 0 0.13672 0.035156 0.24609 0.10938 0.32812 0.070313 0.074219 0.16406 0.10938 0.28125 0.10938 0.070313 0 0.14062-0.007812 0.20312-0.03125 0.0625-0.019531 0.125-0.050781 0.1875-0.09375z"/>
  </symbol>
  <symbol id="c" overflow="visible">
   <path d="m0.89062-0.71875c-0.03125-0.007812-0.0625-0.019531-0.09375-0.03125-0.023437-0.007812-0.046875-0.015625-0.078125-0.015625-0.085938 0-0.14844 0.027344-0.1875 0.078125-0.042969 0.054688-0.0625 0.13281-0.0625 0.23438v0.45312h-0.3125v-0.98438h0.3125v0.15625c0.039062-0.0625 0.085938-0.10938 0.14062-0.14062 0.050781-0.03125 0.11328-0.046875 0.1875-0.046875h0.03125 0.0625z"/>
  </symbol>
  <symbol id="a" overflow="visible">
   <path d="m1.1406-0.5v0.09375h-0.73438c0 0.074219 0.019531 0.13281 0.0625 0.17188 0.050781 0.03125 0.11719 0.046875 0.20312 0.046875 0.070313 0 0.14062-0.007812 0.20312-0.03125 0.070312-0.019531 0.14453-0.046875 0.21875-0.078125v0.23438c-0.074219 0.03125-0.15234 0.054688-0.23438 0.0625-0.074219 0.019531-0.14844 0.03125-0.21875 0.03125-0.17969 0-0.32031-0.046875-0.42188-0.14062-0.09375-0.09375-0.14062-0.22266-0.14062-0.39062 0-0.15625 0.046875-0.28125 0.14062-0.375 0.10156-0.09375 0.23828-0.14062 0.40625-0.14062 0.15625 0 0.28125 0.046875 0.375 0.14062s0.14062 0.21875 0.14062 0.375zm-0.32812-0.10938c0-0.050781-0.023438-0.09375-0.0625-0.125-0.03125-0.039063-0.074219-0.0625-0.125-0.0625-0.0625 0-0.11719 0.015625-0.15625 0.046875-0.03125 0.03125-0.054688 0.078125-0.0625 0.14062z"/>
  </symbol>
  <symbol id="k" overflow="visible">
   <path d="m0.59375-0.45312c-0.0625 0-0.11719 0.015625-0.15625 0.046875-0.03125 0.023438-0.046875 0.054688-0.046875 0.09375 0 0.042969 0.015625 0.074219 0.046875 0.09375 0.03125 0.023438 0.066406 0.03125 0.10938 0.03125 0.0625 0 0.11328-0.019531 0.15625-0.0625 0.039063-0.039062 0.0625-0.09375 0.0625-0.15625v-0.046875zm0.48438-0.10938v0.5625h-0.3125v-0.14062c-0.042969 0.054688-0.09375 0.09375-0.15625 0.125-0.054687 0.03125-0.11719 0.046875-0.1875 0.046875-0.10547 0-0.1875-0.03125-0.25-0.09375s-0.09375-0.14062-0.09375-0.23438c0-0.11328 0.035156-0.19531 0.10938-0.25 0.082031-0.0625 0.21094-0.09375 0.39062-0.09375h0.1875v-0.015625c0-0.050781-0.023437-0.085938-0.0625-0.10938-0.042969-0.019531-0.10547-0.03125-0.1875-0.03125-0.0625 0-0.125 0.007813-0.1875 0.015625-0.0625 0.011719-0.11719 0.03125-0.15625 0.0625v-0.25c0.0625-0.007812 0.125-0.019531 0.1875-0.03125 0.070313-0.007812 0.14453-0.015625 0.21875-0.015625 0.17578 0 0.30078 0.039063 0.375 0.10938 0.082031 0.074219 0.125 0.1875 0.125 0.34375z"/>
  </symbol>
  <symbol id="b" overflow="visible">
   <path d="m0.5-1.2656v0.28125h0.32812v0.21875h-0.32812v0.42188c0 0.042969 0.003906 0.074219 0.015625 0.09375 0.019531 0.011719 0.0625 0.015625 0.125 0.015625h0.15625v0.23438h-0.26562c-0.125 0-0.21484-0.023438-0.26562-0.078125-0.054687-0.050781-0.078125-0.14062-0.078125-0.26562v-0.42188h-0.15625v-0.21875h0.15625v-0.28125z"/>
  </symbol>
  <symbol id="j" overflow="visible">
   <path d="m0.82812-0.84375v-0.53125h0.3125v1.375h-0.3125v-0.14062c-0.042969 0.054688-0.089844 0.09375-0.14062 0.125-0.054688 0.03125-0.11719 0.046875-0.1875 0.046875-0.125 0-0.23047-0.046875-0.3125-0.14062-0.074219-0.10156-0.10938-0.23438-0.10938-0.39062 0-0.14453 0.035156-0.26562 0.10938-0.35938 0.082031-0.10156 0.1875-0.15625 0.3125-0.15625 0.070312 0 0.13281 0.015625 0.1875 0.046875 0.050781 0.023438 0.097656 0.0625 0.14062 0.125zm-0.20312 0.64062c0.0625 0 0.10938-0.023437 0.14062-0.078125 0.039063-0.050781 0.0625-0.125 0.0625-0.21875s-0.023437-0.16016-0.0625-0.20312c-0.03125-0.050781-0.078125-0.078125-0.14062-0.078125-0.074219 0-0.13281 0.027344-0.17188 0.078125-0.03125 0.042969-0.046875 0.10938-0.046875 0.20312s0.015625 0.16797 0.046875 0.21875c0.039063 0.054688 0.097656 0.078125 0.17188 0.078125z"/>
  </symbol>
  <symbol id="i" overflow="visible">
   <path d="m0.6875-0.20312c0.0625 0 0.10938-0.023437 0.14062-0.078125 0.039063-0.050781 0.0625-0.125 0.0625-0.21875s-0.023437-0.16016-0.0625-0.20312c-0.03125-0.050781-0.078125-0.078125-0.14062-0.078125-0.074219 0-0.13281 0.027344-0.17188 0.078125-0.03125 0.042969-0.046875 0.10938-0.046875 0.20312s0.015625 0.16797 0.046875 0.21875c0.039063 0.054688 0.097656 0.078125 0.17188 0.078125zm-0.21875-0.64062c0.039062-0.0625 0.085938-0.10156 0.14062-0.125 0.050781-0.03125 0.11328-0.046875 0.1875-0.046875 0.125 0 0.22266 0.054687 0.29688 0.15625 0.082031 0.09375 0.125 0.21484 0.125 0.35938 0 0.15625-0.042969 0.28906-0.125 0.39062-0.074219 0.09375-0.17188 0.14062-0.29688 0.14062-0.074219 0-0.13672-0.015625-0.1875-0.046875-0.054687-0.03125-0.10156-0.070312-0.14062-0.125v0.14062h-0.3125v-1.375h0.3125z"/>
  </symbol>
  <symbol id="h" overflow="visible">
   <path d="m0.015625-0.98438h0.32812l0.26562 0.67188 0.21875-0.67188h0.32812l-0.42188 1.0781c-0.042969 0.11328-0.09375 0.19141-0.15625 0.23438-0.054687 0.039063-0.125 0.0625-0.21875 0.0625h-0.17188v-0.20312h0.09375c0.050781 0 0.085938-0.011719 0.10938-0.03125 0.03125-0.023438 0.050781-0.054688 0.0625-0.09375l0.015625-0.03125z"/>
  </symbol>
  <symbol id="g" overflow="visible">
   <path d="m1.0781-1.2812v0.28125c-0.0625-0.03125-0.13281-0.050781-0.20312-0.0625-0.074219-0.019531-0.14062-0.03125-0.20312-0.03125-0.074219 0-0.13281 0.011719-0.17188 0.03125-0.042969 0.023438-0.0625 0.058594-0.0625 0.10938 0 0.03125 0.007812 0.058594 0.03125 0.078125 0.03125 0.023438 0.082031 0.039062 0.15625 0.046875l0.14062 0.03125c0.14453 0.03125 0.25 0.078125 0.3125 0.14062 0.0625 0.054688 0.09375 0.13672 0.09375 0.25 0 0.14844-0.046875 0.25781-0.14062 0.32812-0.085938 0.074219-0.21484 0.10938-0.39062 0.10938-0.085937 0-0.16797-0.011719-0.25-0.03125-0.085937-0.0078125-0.16797-0.03125-0.25-0.0625v-0.29688c0.082031 0.042969 0.16016 0.078125 0.23438 0.10938 0.082031 0.023438 0.16016 0.03125 0.23438 0.03125 0.070313 0 0.12891-0.007812 0.17188-0.03125 0.039062-0.03125 0.0625-0.066406 0.0625-0.10938 0-0.039063-0.015625-0.070313-0.046875-0.09375-0.023437-0.03125-0.074219-0.050781-0.15625-0.0625l-0.125-0.03125c-0.13672-0.03125-0.23438-0.078125-0.29688-0.14062s-0.09375-0.14453-0.09375-0.25c0-0.13281 0.039062-0.23438 0.125-0.29688 0.09375-0.070313 0.21875-0.10938 0.375-0.10938 0.070312 0 0.14453 0.007812 0.21875 0.015625 0.082031 0.011719 0.16016 0.027344 0.23438 0.046875z"/>
  </symbol>
  <symbol id="x" overflow="visible">
   <path d="m0.96875-0.23438h-0.53125l-0.09375 0.23438h-0.32812l0.48438-1.3281h0.40625l0.48438 1.3281h-0.34375zm-0.45312-0.25h0.35938l-0.17188-0.53125z"/>
  </symbol>
  <symbol id="w" overflow="visible">
   <path d="m0.17188-1.3281h0.42188l0.3125 0.71875 0.29688-0.71875h0.4375v1.3281h-0.32812v-0.96875l-0.29688 0.71875h-0.21875l-0.3125-0.71875v0.96875h-0.3125z"/>
  </symbol>
  <symbol id="v" overflow="visible">
   <path d="m0.5-1.0625v0.8125h0.125c0.14453 0 0.25391-0.035156 0.32812-0.10938 0.070313-0.070313 0.10938-0.17188 0.10938-0.29688 0-0.13281-0.039062-0.23438-0.10938-0.29688-0.074219-0.070313-0.18359-0.10938-0.32812-0.10938zm-0.32812-0.26562h0.35938c0.19531 0 0.34375 0.015625 0.4375 0.046875 0.10156 0.03125 0.19141 0.078125 0.26562 0.14062 0.050781 0.0625 0.09375 0.13672 0.125 0.21875 0.03125 0.074219 0.046875 0.16406 0.046875 0.26562 0 0.09375-0.015625 0.18359-0.046875 0.26562-0.03125 0.074219-0.074219 0.14062-0.125 0.20312-0.074219 0.074219-0.16406 0.125-0.26562 0.15625-0.09375 0.023438-0.24219 0.03125-0.4375 0.03125h-0.35938z"/>
  </symbol>
  <symbol id="f" overflow="visible">
   <path d="m0.92188-0.95312v0.23438c-0.0625-0.03125-0.125-0.050781-0.1875-0.0625-0.0625-0.007812-0.125-0.015625-0.1875-0.015625-0.054687 0-0.09375 0.007813-0.125 0.015625-0.03125 0.011719-0.046875 0.03125-0.046875 0.0625s0.007812 0.054688 0.03125 0.0625c0.019531 0.011719 0.0625 0.023438 0.125 0.03125l0.046875 0.015625c0.16406 0.023437 0.27344 0.058594 0.32812 0.10938 0.0625 0.042969 0.09375 0.10938 0.09375 0.20312 0 0.10547-0.042969 0.1875-0.125 0.25-0.074219 0.050781-0.1875 0.078125-0.34375 0.078125-0.074219 0-0.14844-0.0078125-0.21875-0.015625-0.0625-0.011719-0.13281-0.023438-0.20312-0.046875v-0.25c0.0625 0.03125 0.125 0.058594 0.1875 0.078125 0.070313 0.011719 0.14062 0.015625 0.20312 0.015625s0.10938-0.003906 0.14062-0.015625c0.03125-0.019531 0.046875-0.046875 0.046875-0.078125s-0.011719-0.050781-0.03125-0.0625c-0.023438-0.019531-0.0625-0.03125-0.125-0.03125l-0.0625-0.015625c-0.13672-0.019531-0.23438-0.050781-0.29688-0.09375-0.054687-0.050781-0.078125-0.125-0.078125-0.21875 0-0.10156 0.035156-0.17969 0.10938-0.23438 0.070313-0.050781 0.17969-0.078125 0.32812-0.078125 0.0625 0 0.125 0.007813 0.1875 0.015625 0.0625 0.011719 0.12891 0.027344 0.20312 0.046875z"/>
  </symbol>
  <symbol id="u" overflow="visible">
   <path d="m0.15625-0.98438h0.3125v0.98438h-0.3125zm0-0.39062h0.3125v0.25h-0.3125z"/>
  </symbol>
  <symbol id="t" overflow="visible">
   <path d="m0.82812-0.17188c-0.042969 0.0625-0.089844 0.10938-0.14062 0.14062-0.054688 0.023438-0.11719 0.03125-0.1875 0.03125-0.125 0-0.23047-0.046875-0.3125-0.14062-0.074219-0.09375-0.10938-0.21094-0.10938-0.35938 0-0.15625 0.035156-0.28125 0.10938-0.375 0.082031-0.09375 0.1875-0.14062 0.3125-0.14062 0.070312 0 0.13281 0.015625 0.1875 0.046875 0.050781 0.023438 0.097656 0.0625 0.14062 0.125v-0.14062h0.3125v0.89062c0 0.15625-0.054687 0.27344-0.15625 0.35938-0.09375 0.082031-0.23438 0.125-0.42188 0.125-0.0625 0-0.125-0.007813-0.1875-0.015625-0.054688-0.011719-0.10938-0.027344-0.17188-0.046875v-0.23438c0.050781 0.03125 0.10156 0.050781 0.15625 0.0625 0.050781 0.019531 0.10938 0.03125 0.17188 0.03125 0.10156 0 0.17578-0.027344 0.21875-0.078125 0.050781-0.042969 0.078125-0.10938 0.078125-0.20312zm-0.20312-0.60938c-0.074219 0-0.13281 0.027344-0.17188 0.078125-0.03125 0.042969-0.046875 0.10938-0.046875 0.20312 0 0.085938 0.015625 0.15234 0.046875 0.20312 0.039063 0.042969 0.097656 0.0625 0.17188 0.0625 0.0625 0 0.10938-0.019531 0.14062-0.0625 0.039063-0.050781 0.0625-0.11719 0.0625-0.20312 0-0.09375-0.023437-0.16016-0.0625-0.20312-0.03125-0.050781-0.078125-0.078125-0.14062-0.078125z"/>
  </symbol>
  <symbol id="e" overflow="visible">
   <path d="m1.1562-0.60938v0.60938h-0.32812v-0.46875c0-0.082031-0.007813-0.14062-0.015625-0.17188 0-0.03125-0.007812-0.050781-0.015625-0.0625-0.011719-0.019531-0.027344-0.035156-0.046875-0.046875-0.023438-0.019531-0.042969-0.03125-0.0625-0.03125-0.074219 0-0.13281 0.027344-0.17188 0.078125-0.03125 0.054687-0.046875 0.125-0.046875 0.21875v0.48438h-0.3125v-0.98438h0.3125v0.14062c0.050781-0.0625 0.10156-0.10156 0.15625-0.125 0.050781-0.03125 0.10938-0.046875 0.17188-0.046875 0.11328 0 0.20312 0.039063 0.26562 0.10938 0.0625 0.074219 0.09375 0.17188 0.09375 0.29688z"/>
  </symbol>
  <symbol id="s" overflow="visible">
   <path d="m0.79688-1.375v0.20312h-0.17188c-0.042969 0-0.074219 0.011719-0.09375 0.03125-0.011719 0.011719-0.015625 0.039063-0.015625 0.078125v0.078125h0.26562v0.21875h-0.26562v0.76562h-0.32812v-0.76562h-0.15625v-0.21875h0.15625v-0.078125c0-0.10156 0.03125-0.17969 0.09375-0.23438 0.0625-0.050781 0.15625-0.078125 0.28125-0.078125z"/>
  </symbol>
  <symbol id="d" overflow="visible">
   <path d="m0.625-0.78125c-0.074219 0-0.13281 0.027344-0.17188 0.078125-0.03125 0.042969-0.046875 0.10938-0.046875 0.20312s0.015625 0.16797 0.046875 0.21875c0.039063 0.054688 0.097656 0.078125 0.17188 0.078125 0.070312 0 0.125-0.023437 0.15625-0.078125 0.039062-0.050781 0.0625-0.125 0.0625-0.21875s-0.023438-0.16016-0.0625-0.20312c-0.03125-0.050781-0.085938-0.078125-0.15625-0.078125zm0-0.23438c0.16406 0 0.29688 0.046875 0.39062 0.14062 0.10156 0.09375 0.15625 0.21875 0.15625 0.375 0 0.16797-0.054687 0.29688-0.15625 0.39062-0.09375 0.09375-0.22656 0.14062-0.39062 0.14062-0.16797 0-0.30469-0.046875-0.40625-0.14062-0.09375-0.09375-0.14062-0.22266-0.14062-0.39062 0-0.15625 0.046875-0.28125 0.14062-0.375 0.10156-0.09375 0.23828-0.14062 0.40625-0.14062z"/>
  </symbol>
  <symbol id="r" overflow="visible">
   <path d="m1.0781-0.82812c0.03125-0.0625 0.070313-0.10938 0.125-0.14062 0.0625-0.03125 0.125-0.046875 0.1875-0.046875 0.11328 0 0.20312 0.039063 0.26562 0.10938 0.0625 0.074219 0.09375 0.17188 0.09375 0.29688v0.60938h-0.32812v-0.51562-0.015625-0.046875c0-0.070313-0.011719-0.125-0.03125-0.15625-0.023437-0.03125-0.054687-0.046875-0.09375-0.046875-0.0625 0-0.10938 0.027344-0.14062 0.078125-0.03125 0.054687-0.046875 0.125-0.046875 0.21875v0.48438h-0.32812v-0.51562c0-0.11328-0.011719-0.1875-0.03125-0.21875-0.011719-0.03125-0.042969-0.046875-0.09375-0.046875-0.0625 0-0.10938 0.027344-0.14062 0.078125-0.03125 0.054687-0.046875 0.125-0.046875 0.21875v0.48438h-0.3125v-0.98438h0.3125v0.14062c0.039062-0.0625 0.082031-0.10156 0.125-0.125 0.050781-0.03125 0.10938-0.046875 0.17188-0.046875 0.070313 0 0.13281 0.015625 0.1875 0.046875 0.050781 0.03125 0.09375 0.078125 0.125 0.14062z"/>
  </symbol>
  <symbol id="q" overflow="visible">
   <path d="m1.1562-0.60938v0.60938h-0.32812v-0.45312c0-0.09375-0.007813-0.15625-0.015625-0.1875 0-0.03125-0.007812-0.050781-0.015625-0.0625-0.011719-0.019531-0.027344-0.035156-0.046875-0.046875-0.023438-0.019531-0.042969-0.03125-0.0625-0.03125-0.074219 0-0.13281 0.027344-0.17188 0.078125-0.03125 0.054687-0.046875 0.125-0.046875 0.21875v0.48438h-0.3125v-1.375h0.3125v0.53125c0.050781-0.0625 0.10156-0.10156 0.15625-0.125 0.050781-0.03125 0.10938-0.046875 0.17188-0.046875 0.11328 0 0.20312 0.039063 0.26562 0.10938 0.0625 0.074219 0.09375 0.17188 0.09375 0.29688z"/>
  </symbol>
  <symbol id="p" overflow="visible">
   <path d="m0.17188-1.3281h0.375l0.48438 0.90625v-0.90625h0.3125v1.3281h-0.375l-0.48438-0.90625v0.90625h-0.3125z"/>
  </symbol>
  <symbol id="o" overflow="visible">
   <path d="m0.14062-0.39062v-0.59375h0.3125v0.09375 0.20312 0.15625 0.1875c0.007813 0.03125 0.019531 0.054688 0.03125 0.0625 0.007813 0.023438 0.023437 0.039062 0.046875 0.046875 0.019531 0.011719 0.046875 0.015625 0.078125 0.015625 0.0625 0 0.11328-0.019531 0.15625-0.0625 0.039063-0.050781 0.0625-0.125 0.0625-0.21875v-0.48438h0.3125v0.98438h-0.3125v-0.14062c-0.054687 0.054688-0.10547 0.09375-0.15625 0.125-0.054687 0.03125-0.10938 0.046875-0.17188 0.046875-0.11719 0-0.20312-0.035156-0.26562-0.10938-0.0625-0.070313-0.09375-0.17578-0.09375-0.3125z"/>
  </symbol>
  <symbol id="n" overflow="visible">
   <path d="m0.17188-1.3281h0.5625c0.16406 0 0.28906 0.042969 0.375 0.125 0.09375 0.074219 0.14062 0.17969 0.14062 0.3125 0 0.13672-0.046875 0.24609-0.14062 0.32812-0.085937 0.074219-0.21094 0.10938-0.375 0.10938h-0.23438v0.45312h-0.32812zm0.32812 0.25v0.375h0.20312c0.0625 0 0.10938-0.015625 0.14062-0.046875 0.039062-0.03125 0.0625-0.078125 0.0625-0.14062s-0.023438-0.10938-0.0625-0.14062c-0.03125-0.03125-0.078125-0.046875-0.14062-0.046875z"/>
  </symbol>
  <symbol id="m" overflow="visible">
   <path d="m0.15625-0.98438h0.3125v0.96875c0 0.13281-0.03125 0.23438-0.09375 0.29688-0.0625 0.070312-0.15625 0.10938-0.28125 0.10938h-0.15625v-0.20312h0.0625c0.050781 0 0.085938-0.015625 0.10938-0.046875 0.03125-0.023437 0.046875-0.074219 0.046875-0.15625zm0-0.39062h0.3125v0.25h-0.3125z"/>
  </symbol>
  <symbol id="l" overflow="visible">
   <path d="m0.95312-0.95312v0.25c-0.042969-0.03125-0.085937-0.050781-0.125-0.0625-0.042969-0.007813-0.089844-0.015625-0.14062-0.015625-0.085938 0-0.15234 0.027344-0.20312 0.078125-0.054687 0.042969-0.078125 0.10938-0.078125 0.20312s0.023438 0.16797 0.078125 0.21875c0.050781 0.054688 0.11719 0.078125 0.20312 0.078125 0.050781 0 0.097656-0.003906 0.14062-0.015625 0.039063-0.019531 0.082031-0.039062 0.125-0.0625v0.25c-0.054687 0.023438-0.10547 0.035156-0.15625 0.046875-0.054687 0.0078125-0.10156 0.015625-0.14062 0.015625-0.1875 0-0.33594-0.046875-0.4375-0.14062-0.09375-0.09375-0.14062-0.22266-0.14062-0.39062 0-0.15625 0.046875-0.28125 0.14062-0.375 0.10156-0.09375 0.25-0.14062 0.4375-0.14062 0.050781 0 0.097656 0.007813 0.14062 0.015625 0.050781 0.011719 0.10156 0.027344 0.15625 0.046875z"/>
  </symbol>
 </defs>
 <g>
  <path d="m435.71 295.71c-4.2188 0-7.6016-3.3828-7.6367-7.6016l-0.10938-24c-13.562-2.9102-26.656-8.2539-38.398-15.711l-16.91 17.055c-1.418 1.4531-3.3828 2.2539-5.3828 2.2539-2.0352 0-3.9648-0.80078-5.418-2.2188l-25.055-24.801c-1.4531-1.418-2.2539-3.3828-2.2539-5.3828 0-2.0352 0.80078-3.9648 2.2188-5.418l16.91-17.055c-7.5625-11.672-13.02-24.691-16.074-38.254l-24 0.10938h-0.035156c-2 0-3.9258-0.80078-5.3828-2.2188-1.4531-1.418-2.2539-3.3828-2.2539-5.3828l-0.14453-35.273c-0.035156-4.2188 3.3828-7.6367 7.6016-7.6719l24-0.10938c2.9102-13.562 8.2539-26.656 15.711-38.398l-17.098-16.906c-1.4531-1.418-2.2539-3.3828-2.2539-5.3828 0-2.0352 0.80078-3.9648 2.2188-5.418l24.801-25.055c2.9805-2.9805 7.8164-3.0195 10.801-0.035156l17.055 16.91c11.672-7.5625 24.691-13.02 38.254-16.074l-0.10938-24c-0.035156-4.2188 3.3828-7.6367 7.6016-7.6719l35.273-0.14453h0.035156c2 0 3.9258 0.80078 5.3828 2.2188 1.4531 1.418 2.2539 3.3828 2.2539 5.3828l0.10938 24c13.562 2.9102 26.656 8.2539 38.398 15.711l16.91-17.055c1.418-1.4531 3.3828-2.2539 5.3828-2.2539h0.035157c2 0 3.9258 0.80078 5.3828 2.2188l25.055 24.801c2.9805 2.9805 3.0195 7.8164 0.035156 10.801l-16.91 17.055c7.5625 11.672 13.02 24.691 16.074 38.254l24-0.10938c2.0352 0 3.9648 0.80078 5.418 2.2188 1.4531 1.418 2.2539 3.3828 2.2539 5.3828l0.14453 35.273c0.035157 4.2188-3.3828 7.6367-7.6016 7.6719l-24 0.10938c-2.9102 13.562-8.2539 26.656-15.711 38.398l17.055 16.91c1.4531 1.418 2.2539 3.3828 2.2539 5.3828 0 2.0352-0.80078 3.9648-2.2188 5.418l-24.801 25.055c-1.418 1.4531-3.3828 2.2539-5.3828 2.2539h-0.035156c-2 0-3.9258-0.80078-5.3828-2.2188l-17.055-16.91c-11.672 7.5625-24.691 13.02-38.254 16.074l0.10938 24c0 2.0352-0.80078 3.9648-2.2188 5.418s-3.3828 2.2539-5.3828 2.2539l-35.273 0.14453 0.007813-0.003906zm-47.129-64.84c1.5625 0 3.0898 0.47266 4.4375 1.418 12.945 9.2734 28.035 15.453 43.711 17.891 3.7109 0.58203 6.4375 3.7461 6.4727 7.5273l0.10938 22.691 20-0.10938-0.10938-22.691c0-3.7461 2.6914-6.9453 6.3984-7.5625 15.637-2.582 30.691-8.9102 43.562-18.289 3.0195-2.2188 7.1992-1.8906 9.8906 0.72656l16.145 16 14.074-14.184-16.145-16c-2.6562-2.6562-3.0195-6.8359-0.83594-9.8555 9.2734-12.945 15.453-28.035 17.891-43.711 0.58203-3.7109 3.7461-6.4375 7.5273-6.4727l22.691-0.10938-0.10938-20-22.691 0.10938h-0.035156c-3.7461 0-6.9102-2.6914-7.5273-6.3984-2.582-15.637-8.9102-30.691-18.289-43.562-2.2188-3.0195-1.8906-7.1992 0.72656-9.8906l16-16.145-14.184-14.074-16 16.145c-2.6562 2.6562-6.8359 3.0195-9.8555 0.83594-12.945-9.2734-28.035-15.453-43.711-17.891-3.7109-0.58203-6.4375-3.7461-6.4727-7.5273l-0.10938-22.691-20 0.10938 0.10938 22.691c0 3.7461-2.6914 6.9453-6.3984 7.5625-15.637 2.582-30.691 8.9102-43.562 18.289-3.0195 2.2188-7.1992 1.8906-9.8906-0.72656l-16.145-16-14.074 14.184 16.145 16c2.6562 2.6562 3.0195 6.8359 0.83594 9.8555-9.2734 12.945-15.453 28.035-17.891 43.711-0.58203 3.7109-3.7461 6.4375-7.5273 6.4727l-22.691 0.10938 0.10937 20 22.691-0.10938h0.035156c3.7461 0 6.9102 2.6914 7.5273 6.3984 2.582 15.637 8.9102 30.691 18.289 43.562 2.2188 3.0195 1.8906 7.1992-0.72656 9.8906l-16 16.145 14.184 14.074 16-16.145c1.4531-1.4883 3.418-2.2539 5.418-2.2539z"/>
  <path d="m452.69 231.71c-22 0-42.727-8.5078-58.363-24.035-15.746-15.602-24.473-36.363-24.547-58.547s8.4375-43.02 24.035-58.762c15.602-15.746 36.363-24.473 58.547-24.547h0.39844c22 0 42.727 8.5078 58.363 24.035 15.746 15.602 24.473 36.363 24.547 58.547s-8.4375 43.02-24.035 58.762c-15.602 15.746-36.363 24.473-58.547 24.547h-0.39844zm0.32812-7.6367m-0.32812-142.98h-0.32812c-37.309 0.18359-67.527 30.656-67.344 67.965 0.18359 37.199 30.508 67.344 67.672 67.344h0.32812c37.309-0.18359 67.527-30.656 67.344-67.965-0.074219-18.074-7.1992-35.02-20.035-47.746-12.766-12.652-29.672-19.598-47.637-19.598z"/>
  <path d="m478.66 152.69c-1.9258-3.0898-4.6172-5.5625-8.0352-7.3828-3.4531-1.8164-8.8711-3.6016-16.074-5.3086-7.3438-1.7461-12.074-3.4531-14.035-5.0898-1.6367-1.3828-2.4375-2.9805-2.4375-4.9102 0-2.1445 0.83594-3.7812 2.6172-5.0547 2.5469-1.8555 6.1094-2.8008 10.547-2.8008 4.3281 0 7.6367 0.87109 9.8555 2.6172 1.1992 0.98047 2.2188 2.2891 2.9453 3.9258 1.1641 2.5469 3.7461 4.1094 6.5469 3.9648h0.32812c2.3984-0.10938 4.5469-1.418 5.7461-3.5273 1.1641-2.0742 1.1992-4.5469 0.074219-6.6562-1.1641-2.1094-2.6914-4.0352-4.6172-5.6719-4.582-4-11.562-6-20.727-6-5.6367 0-10.473 0.87109-14.438 2.5469-3.9258 1.6719-6.9805 4.1445-9.0547 7.3438-2.0742 3.1992-3.1289 6.6914-3.1289 10.328 0 5.7812 2.1836 10.547 6.6914 14.582 3.1641 2.8359 8.8008 5.2734 16.727 7.2383 6.3281 1.5625 10.289 2.6562 12.074 3.2734 2.6914 0.94531 4.5469 2.0742 5.6367 3.3828 1.0898 1.3438 1.6719 2.9453 1.6719 4.8359 0 2.9102-1.3086 5.4531-3.8555 7.6016-2.5469 2.1094-6.3281 3.1992-11.273 3.1992-4.6914 0-8.4375-1.1992-11.238-3.5625-1.7109-1.4531-3.0547-3.418-4.0742-5.8906-1.0547-2.582-3.5273-4.2188-6.3633-4.2188-0.21875 0-0.4375 0-0.69141 0.035157-2.1836 0.21875-4.1094 1.418-5.2734 3.3086-1.1289 1.8555-1.3086 4.0742-0.54688 6.0742 1.5273 3.8555 3.7461 7.0547 6.6562 9.5625 4.9102 4.2539 12.109 6.3984 21.309 6.3984 6.3633 0 11.746-0.91016 16-2.6914 4.2188-1.7461 7.4922-4.4727 9.8164-8.1094 2.2891-3.6367 3.4531-7.5625 3.4531-11.711 0.039063-4.6523-0.90625-8.543-2.832-11.633z"/>
  <path d="m452.69 120.29c-4.2188 0-7.6367-3.418-7.6367-7.6367v-5.3828c0-4.2188 3.418-7.6367 7.6367-7.6367s7.6367 3.418 7.6367 7.6367v5.3828c0 4.2188-3.418 7.6367-7.6367 7.6367z"/>
  <path d="m452.69 197.89c-4.2188 0-7.6367-3.418-7.6367-7.6367v-5.3828c0-4.2188 3.418-7.6367 7.6367-7.6367s7.6367 3.418 7.6367 7.6367v5.3828c0 4.2188-3.418 7.6367-7.6367 7.6367z"/>
  <path d="m460.66 558.18c-1.0898 0-2.2188-0.25391-3.2383-0.72656-1.8164-0.87109-3.2734-2.3984-3.9648-4.3281l-6.3984-17.562c-10.801 1.3086-21.816 0.83594-32.438-1.418l-7.8906 16.91c-1.7812 3.8164-6.3281 5.4922-10.145 3.7109l-26.219-12.223c-1.8164-0.87109-3.2734-2.3984-3.9648-4.3281-0.69141-1.8906-0.61719-4 0.25391-5.8555l7.8906-16.91c-8.5469-6.6914-16-14.801-21.926-23.926l-17.562 6.3984c-1.8906 0.69141-4 0.58203-5.8555-0.25391-1.8164-0.87109-3.2734-2.3984-3.9648-4.3281l-9.9258-27.273c-1.4531-3.9648 0.61719-8.3281 4.582-9.7812l17.562-6.3984c-1.3086-10.801-0.83594-21.816 1.418-32.438l-16.91-7.8906c-1.8164-0.87109-3.2734-2.3984-3.9648-4.3281-0.69141-1.8906-0.61719-4 0.25391-5.8555l12.254-26.289c1.7812-3.8164 6.3281-5.4922 10.145-3.7109l16.91 7.8906c6.6914-8.5469 14.801-16 23.926-21.926l-6.3984-17.562c-0.69141-1.8906-0.58203-4 0.25391-5.8555 0.87109-1.8164 2.3984-3.2734 4.3281-3.9648l27.273-9.9258c1.8906-0.69141 4-0.58203 5.8555 0.25391 1.8164 0.87109 3.2734 2.3984 3.9648 4.3281l6.3984 17.562c10.801-1.3086 21.816-0.83594 32.438 1.418l7.8906-16.91c0.87109-1.8164 2.3984-3.2734 4.3281-3.9648 1.8906-0.69141 4-0.58203 5.8555 0.25391l26.289 12.254c1.8164 0.87109 3.2734 2.3984 3.9648 4.3281 0.69141 1.9258 0.58203 4-0.25391 5.8555l-7.8906 16.91c8.5469 6.6914 16 14.801 21.926 23.926l17.562-6.3984c3.9648-1.4531 8.3281 0.61719 9.7812 4.582l9.9258 27.273c0.69141 1.8906 0.58203 4-0.25391 5.8555-0.87109 1.8164-2.3984 3.2734-4.3281 3.9648l-17.562 6.3984c1.3086 10.801 0.83594 21.816-1.418 32.438l16.91 7.8906c1.8164 0.87109 3.2734 2.3984 3.9648 4.3281 0.69141 1.8906 0.58203 4-0.25391 5.8555l-12.254 26.289c-1.7812 3.8164-6.3281 5.4922-10.145 3.7109l-16.91-7.8906c-6.6914 8.5469-14.801 16-23.926 21.926l6.3984 17.562c0.69141 1.8906 0.58203 4-0.25391 5.8555-0.87109 1.8164-2.3984 3.2734-4.3281 3.9648l-27.273 9.9258c-0.90625 0.25391-1.7812 0.40234-2.6875 0.40234zm-8.5117-38.73c3.1641 0 6.0742 1.9648 7.1641 5.0195l5.9258 16.289 12.91-4.6914-5.9258-16.289c-1.2734-3.5273 0.18359-7.4531 3.4531-9.2734 11.238-6.2539 20.98-15.199 28.184-25.816 2.1094-3.0898 6.1445-4.2188 9.5625-2.6172l15.711 7.3086 5.8164-12.438-15.711-7.3086c-3.3828-1.6016-5.1289-5.418-4.1094-9.0195 3.5273-12.328 4.0742-25.562 1.6719-38.184-0.69141-3.6719 1.3828-7.3438 4.8711-8.6172l16.289-5.9258-4.6914-12.91-16.289 5.9258c-3.5273 1.2734-7.4531-0.18359-9.2734-3.4531-6.2539-11.238-15.199-20.98-25.816-28.184-3.0898-2.1094-4.2188-6.1445-2.6172-9.5625l7.3086-15.711-12.438-5.8164-7.3086 15.711c-1.6016 3.3828-5.418 5.1289-9.0195 4.1094-12.328-3.5273-25.562-4.0742-38.184-1.6719-3.6719 0.69141-7.3438-1.3828-8.6172-4.8711l-5.9258-16.289-12.902 4.6875 5.9258 16.289c1.2734 3.5273-0.18359 7.4531-3.4531 9.2734-11.238 6.2539-20.98 15.199-28.184 25.816-2.1094 3.0898-6.1445 4.2188-9.5625 2.6172l-15.711-7.3086-5.8164 12.438 15.711 7.3086c3.3828 1.6016 5.1289 5.418 4.1094 9.0195-3.5273 12.328-4.0742 25.562-1.6719 38.184 0.69141 3.6719-1.3828 7.3438-4.8711 8.6172l-16.289 5.9258 4.6914 12.91 16.289-5.9258c3.5273-1.2734 7.4531 0.18359 9.2734 3.4531 6.2539 11.238 15.199 20.98 25.816 28.184 3.0898 2.1094 4.2188 6.1445 2.6172 9.5625l-7.3086 15.711 12.438 5.8164 7.3086-15.711c1.6016-3.3828 5.418-5.1289 9.0195-4.1094 12.328 3.5273 25.562 4.1094 38.184 1.6719 0.5-0.10547 0.97266-0.14453 1.4453-0.14453z"/>
  <path d="m435.13 497.13c-8.5078 0-17.02-1.8555-24.98-5.5625-29.527-13.781-42.363-49.055-28.582-78.582 6.6914-14.328 18.547-25.164 33.383-30.582 14.836-5.3828 30.91-4.6914 45.199 2 29.527 13.781 42.363 49.055 28.582 78.582-6.6914 14.328-18.547 25.164-33.383 30.582-6.5859 2.3594-13.422 3.5625-20.219 3.5625zm0.070313-103.05c-5.0547 0-10.109 0.87109-15.02 2.6562-11.02 4-19.781 12.074-24.762 22.656-4.9453 10.617-5.4922 22.508-1.4922 33.527 4 11.02 12.035 19.781 22.656 24.762 10.617 4.9453 22.508 5.4922 33.527 1.4922s19.781-12.074 24.762-22.656c4.9453-10.617 5.4922-22.508 1.4922-33.527s-12.035-19.781-22.656-24.762c-5.8906-2.7695-12.215-4.1484-18.508-4.1484z"/>
  <path d="m202.22 408.36c-2 0-3.9258-0.80078-5.3828-2.2188-1.4531-1.418-2.2539-3.3828-2.2539-5.3828l-0.074219-17.09c-9.7109-2.2539-19.055-6.0742-27.562-11.273l-12.035 12.145c-2.9805 2.9805-7.8164 3.0195-10.801 0.035156l-19.273-19.129c-1.4531-1.418-2.2539-3.3828-2.2539-5.3828 0-2.0352 0.80078-3.9648 2.2188-5.418l12.035-12.145c-5.2734-8.4727-9.1992-17.781-11.527-27.453l-17.09 0.074219h-0.035156c-4.2188 0-7.6016-3.3828-7.6367-7.6016l-0.10938-27.164c0-2.0352 0.80078-3.9648 2.2188-5.418s3.3828-2.2539 5.3828-2.2539l17.09-0.074219c2.2539-9.7109 6.0742-19.055 11.273-27.562l-12.219-11.996c-1.4531-1.418-2.2539-3.3828-2.2539-5.3828 0-2.0352 0.80078-3.9648 2.2188-5.418l19.129-19.273c2.9805-2.9805 7.8164-3.0195 10.801-0.035157l12.145 12.035c8.4727-5.2734 17.781-9.1992 27.453-11.527l-0.074219-17.09c-0.035156-4.2188 3.3828-7.6367 7.6016-7.6719l27.164-0.10938h0.035156c2 0 3.9258 0.80078 5.3828 2.2188 1.4531 1.418 2.2539 3.3828 2.2539 5.3828l0.074219 17.09c9.7109 2.2539 19.055 6.0742 27.562 11.273l12.035-12.145c1.418-1.4531 3.3828-2.2539 5.3828-2.2539h0.035156c2 0 3.9258 0.80078 5.3828 2.2188l19.273 19.129c1.4531 1.418 2.2539 3.3828 2.2539 5.3828 0 2.0352-0.80078 3.9648-2.2188 5.418l-12.039 12.066c5.2734 8.4727 9.1992 17.781 11.527 27.453l17.09-0.074218h0.035156c4.2188 0 7.6016 3.3828 7.6367 7.6016l0.10938 27.164c0.035156 4.2188-3.3828 7.6367-7.6016 7.6719l-17.09 0.074218c-2.2539 9.7109-6.0742 19.055-11.273 27.562l12.145 12.035c1.4531 1.418 2.2539 3.3828 2.2539 5.3828 0 2.0352-0.80078 3.9648-2.2188 5.418l-19.129 19.273c-1.418 1.4531-3.3828 2.2539-5.3828 2.2539-2.0352 0.035156-3.9648-0.80078-5.418-2.2188l-12.145-12.035c-8.4727 5.2734-17.781 9.1992-27.453 11.527l0.074218 17.09c0.035156 4.2188-3.3828 7.6367-7.6016 7.6719zm-36.293-53.418c1.5625 0 3.0898 0.47266 4.4375 1.418 9.7461 6.9805 21.129 11.637 32.91 13.453 3.7109 0.58203 6.4375 3.7461 6.4727 7.5273l0.074218 15.746 11.891-0.074219-0.074219-15.746c0-3.7461 2.6914-6.9453 6.3984-7.5625 11.781-1.9648 23.129-6.6914 32.801-13.781 3.0195-2.2188 7.1992-1.8906 9.8906 0.72656l11.164 11.09 8.3633-8.4375-11.164-11.09c-2.6562-2.6562-3.0195-6.8359-0.83594-9.8555 6.9805-9.7461 11.637-21.129 13.453-32.91 0.58203-3.7109 3.7461-6.4375 7.5273-6.4727l15.746-0.074218-0.074219-11.891-15.746 0.074219h-0.035156c-3.7461 0-6.9102-2.6914-7.5273-6.3984-1.9648-11.781-6.7266-23.129-13.781-32.801-2.2188-3.0195-1.8906-7.1992 0.72656-9.8906l11.09-11.164-8.4375-8.3633-11.09 11.164c-2.6562 2.6562-6.8359 3.0195-9.8555 0.83594-9.7461-6.9805-21.129-11.637-32.91-13.453-3.7109-0.58203-6.4375-3.7461-6.4727-7.5273l-0.074219-15.746-11.891 0.074218 0.074218 15.746c0 3.7461-2.6914 6.9453-6.3984 7.5625-11.781 1.9648-23.129 6.7266-32.801 13.781-3.0195 2.2188-7.1992 1.8906-9.8906-0.72656l-11.164-11.09-8.3633 8.4375 11.164 11.09c2.6562 2.6562 3.0195 6.8359 0.83594 9.8555-6.9805 9.7461-11.637 21.129-13.453 32.91-0.58203 3.7109-3.7461 6.4375-7.5273 6.4727l-15.746 0.074219 0.074219 11.891 15.746-0.074218h0.035156c3.7461 0 6.9102 2.6914 7.5273 6.3984 1.9648 11.781 6.7266 23.129 13.781 32.801 2.2188 3.0195 1.8906 7.1992-0.72656 9.8906l-11.09 11.164 8.4375 8.3633 11.09-11.164c1.457-1.4883 3.418-2.2539 5.418-2.2539z"/>
  <path d="m215.27 349.31c-14.836 0-28.762-5.7461-39.309-16.184-10.582-10.508-16.473-24.508-16.547-39.418-0.074219-14.91 5.6719-28.98 16.184-39.562 10.508-10.582 24.508-16.473 39.418-16.547h0.25391c14.836 0 28.762 5.7461 39.309 16.184 10.582 10.508 16.473 24.508 16.547 39.418 0.074219 14.91-5.6719 28.98-16.184 39.562-10.508 10.582-24.508 16.473-39.418 16.547l-0.035156-7.6367 0.035156 7.6367h-0.25391zm0.035156-96.438h-0.18359c-10.836 0.035156-21.02 4.3281-28.617 12-7.6367 7.7109-11.816 17.891-11.746 28.762 0.035156 10.836 4.3281 21.02 12 28.617 7.6367 7.6016 17.781 11.746 28.547 11.746h0.18359c10.836-0.035156 21.02-4.3281 28.617-12 7.6367-7.7109 11.816-17.891 11.746-28.762-0.035157-10.836-4.3281-21.02-12-28.656-7.6719-7.5234-17.781-11.707-28.547-11.707z"/>
  <use x="70" y="565.453125" xlink:href="#y"/>
  <use x="71.335938" y="565.453125" xlink:href="#c"/>
  <use x="72.230469" y="565.453125" xlink:href="#a"/>
  <use x="73.464844" y="565.453125" xlink:href="#k"/>
  <use x="74.691406" y="565.453125" xlink:href="#b"/>
  <use x="75.558594" y="565.453125" xlink:href="#a"/>
  <use x="76.792969" y="565.453125" xlink:href="#j"/>
  <use x="78.726562" y="565.453125" xlink:href="#i"/>
  <use x="80.03125" y="565.453125" xlink:href="#h"/>
  <use x="81.847656" y="565.453125" xlink:href="#g"/>
  <use x="83.15625" y="565.453125" xlink:href="#x"/>
  <use x="84.5625" y="565.453125" xlink:href="#w"/>
  <use x="87.007812" y="565.453125" xlink:href="#v"/>
  <use x="88.515625" y="565.453125" xlink:href="#a"/>
  <use x="89.75" y="565.453125" xlink:href="#f"/>
  <use x="90.832031" y="565.453125" xlink:href="#u"/>
  <use x="91.453125" y="565.453125" xlink:href="#t"/>
  <use x="92.753906" y="565.453125" xlink:href="#e"/>
  <use x="94.050781" y="565.453125" xlink:href="#f"/>
  <use x="70" y="567.273438" xlink:href="#s"/>
  <use x="70.789062" y="567.273438" xlink:href="#c"/>
  <use x="71.6875" y="567.273438" xlink:href="#d"/>
  <use x="72.9375" y="567.273438" xlink:href="#r"/>
  <use x="75.464844" y="567.273438" xlink:href="#b"/>
  <use x="76.332031" y="567.273438" xlink:href="#q"/>
  <use x="77.628906" y="567.273438" xlink:href="#a"/>
  <use x="79.492188" y="567.273438" xlink:href="#p"/>
  <use x="81.015625" y="567.273438" xlink:href="#d"/>
  <use x="82.265625" y="567.273438" xlink:href="#o"/>
  <use x="83.558594" y="567.273438" xlink:href="#e"/>
  <use x="85.488281" y="567.273438" xlink:href="#n"/>
  <use x="86.820312" y="567.273438" xlink:href="#c"/>
  <use x="87.714844" y="567.273438" xlink:href="#d"/>
  <use x="88.964844" y="567.273438" xlink:href="#m"/>
  <use x="89.589844" y="567.273438" xlink:href="#a"/>
  <use x="90.820312" y="567.273438" xlink:href="#l"/>
  <use x="91.898438" y="567.273438" xlink:href="#b"/>
 </g>
</svg>
