<?xml version="1.0" encoding="utf-8"?>
<!-- Generator: Adobe Illustrator 27.3.1, SVG Export Plug-In . SVG Version: 6.00 Build 0)  -->
<svg version="1.1" id="Layer_1" xmlns="http://www.w3.org/2000/svg" xmlns:xlink="http://www.w3.org/1999/xlink" x="0px" y="0px"
	 viewBox="0 0 700 700" style="enable-background:new 0 0 700 700;" xml:space="preserve">
<style type="text/css">
	.st0{fill:#255E5A;}
</style>
<path class="st0" d="M698.5,383.3l-165-285.8c-1.8-3.1-4.4-5.7-7.6-7.6c-3.1-1.8-6.7-2.8-10.3-2.8l-330,0c-3.6,0-7.2,0.9-10.3,2.8
	c-3.1,1.8-5.7,4.4-7.5,7.6L2.8,383.2C1,386.3,0,389.9,0,393.5c0,3.6,1,7.2,2.8,10.3l50,86.5c2.5,4.4,6.6,7.7,11.4,9.3
	c4.8,1.6,10,1.4,14.7-0.6l139.8-60.2c4.5-1.9,8.2-5.4,10.3-9.8c2.2-4.4,2.7-9.4,1.5-14.2c-9.4-37.7-3.9-77.5,15.2-111.3
	c19.2-33.8,50.5-58.9,87.7-70.2c37.2-11.3,77.2-7.9,111.9,9.5L317,314.4c-6,3.4-10,9.5-10.5,16.4l-6,77.2c-0.3,4,0.6,8.1,2.5,11.6
	c2,3.5,5,6.4,8.6,8.3l68.9,35.5c6.1,3.2,13.5,3.1,19.5-0.3l128.3-71.6c-3.4,38.7-21.6,74.6-50.7,100.3
	c-29.2,25.7-67.1,39.2-105.9,37.7c-38.8-1.5-75.6-17.8-102.7-45.7c-3.4-3.5-8-5.7-12.8-6.1c-4.9-0.5-9.7,0.8-13.8,3.6L119,567.5
	c-4.2,3-7.2,7.4-8.3,12.4c-1.1,5-0.3,10.3,2.3,14.8l54.8,94.9c1.8,3.1,4.4,5.7,7.6,7.6c3.1,1.8,6.7,2.8,10.3,2.8l330,0
	c3.6,0,7.2-1,10.3-2.8c3.1-1.8,5.7-4.4,7.5-7.6l165.1-285.8c1.8-3.1,2.8-6.7,2.8-10.3C701.3,390,700.3,386.4,698.5,383.3
	L698.5,383.3z M503.7,658.8l-306.2,0l-39.4-68.2l94-65.7h0c39.6,33.9,91.3,50.2,143.2,45.3c51.9-4.9,99.6-30.6,132.2-71.3
	c32.6-40.7,47.4-92.8,40.8-144.6c-0.8-6.8-5-12.7-11.1-15.8c-6.1-3.1-13.4-2.9-19.4,0.4l-148.4,82.8l-46.8-24.2l4.1-52.5l148.5-82.9
	c6-3.3,9.9-9.4,10.5-16.3c0.6-6.8-2.3-13.5-7.6-17.8c-40.6-32.6-92.7-47.5-144.4-41.1c-51.7,6.4-98.6,33.4-130.1,75
	c-31.4,41.5-44.7,94.1-36.8,145.6L79.3,453.9l-34.8-60.3l153.1-265.1l306.2,0l153,265.2L503.7,658.8z"/>
</svg>
