<?xml version="1.0" encoding="utf-8"?>
<!-- Generator: Adobe Illustrator 27.3.1, SVG Export Plug-In . SVG Version: 6.00 Build 0)  -->
<svg version="1.1" id="Layer_1" xmlns="http://www.w3.org/2000/svg" xmlns:xlink="http://www.w3.org/1999/xlink" x="0px" y="0px"
	 viewBox="0 0 700 700" style="enable-background:new 0 0 700 700;" xml:space="preserve">
<style type="text/css">
	.st0{fill:#255E5A;}
</style>
<g>
	<path class="st0" d="M84.7,625.7h256c9,0,16.3-7.3,16.3-16.3c0-9-7.3-16.3-16.3-16.3h-256c-11.8,0-23.1-4.8-31.4-13.1
		c-8.3-8.3-13-19.7-12.9-31.4V92.4c0-11.7,4.7-23,13-31.3c8.3-8.3,19.6-13,31.3-13h116.5v137.2c-0.1,14.7,7.6,28.3,20.2,35.9
		c6.3,3.8,13.6,5.9,21,6c7.4,0.1,14.7-1.7,21.2-5.3l44.9-27.7v0c2.3-1.3,5.1-1.5,7.6-0.5l46.9,28.5c0.3,0.2,0.6,0.4,1,0.5
		c13,6.7,28.6,6.2,41.1-1.4c12.5-7.6,20.2-21.2,20.2-35.8V48.2h115.5c11.8,0,23.1,4.6,31.5,12.9c8.4,8.3,13.1,19.6,13.1,31.4v256
		c0,9,7.3,16.3,16.3,16.3c9,0,16.3-7.3,16.3-16.3v-256c-0.1-20.4-8.2-40-22.7-54.4c-14.5-14.4-34.1-22.5-54.5-22.5H409.5H409H217.5
		H217H84.7c-20.4,0-40,8.1-54.4,22.5C15.9,52.5,7.8,72.1,7.8,92.5v456.1c0,20.4,8.1,40,22.5,54.5C44.7,617.5,64.3,625.7,84.7,625.7
		L84.7,625.7z M392.7,185.6c0,3.2-1.6,6.1-4.3,7.9c-2.7,1.7-6.1,1.9-8.9,0.6l-47.3-28.7c-12.5-6.4-27.4-6.2-39.8,0.7l-44.9,27.7
		c-2.9,1.5-6.4,1.4-9.2-0.3c-2.8-1.7-4.5-4.7-4.5-8V48.1h158.9L392.7,185.6z"/>
	<path class="st0" d="M228.2,468.1H109.1c-9,0-16.3,7.3-16.3,16.3c0,9,7.3,16.3,16.3,16.3h119.1c9,0,16.3-7.3,16.3-16.3
		C244.5,475.4,237.2,468.1,228.2,468.1z"/>
	<path class="st0" d="M580.3,518.9l-41.5,42l-20.3-20.3c-6.4-6-16.4-5.8-22.6,0.4c-6.2,6.2-6.4,16.2-0.4,22.7l31.9,31.9
		c3.1,3.1,7.2,4.8,11.5,4.8c4.3,0,8.5-1.8,11.5-4.8l53-53.7l0,0c6.3-6.4,6.3-16.7-0.2-23.1C596.9,512.4,586.6,512.5,580.3,518.9
		L580.3,518.9z"/>
	<path class="st0" d="M593.3,432.5c-11.8-11.3-27.5-17.5-43.8-17.5c-16.3,0-32,6.3-43.8,17.5c-3.5,3.6-8.3,5.6-13.3,5.5
		c-16.4,0-32.2,6.6-43.8,18.2c-11.6,11.6-18.2,27.4-18.2,43.8c0,5-1.9,9.8-5.5,13.3c-11.6,11.6-18.1,27.4-18.1,43.8
		c0,16.4,6.5,32.2,18.1,43.8c3.6,3.5,5.6,8.3,5.5,13.3c0,16.4,6.6,32.2,18.2,43.8c11.6,11.6,27.4,18.2,43.8,18.2
		c5-0.1,9.8,1.9,13.3,5.5c11.6,11.6,27.4,18.2,43.8,18.2c16.4,0,32.2-6.5,43.8-18.2c3.5-3.6,8.3-5.5,13.3-5.5
		c16.4,0,32.2-6.6,43.8-18.2c11.6-11.6,18.2-27.4,18.2-43.8c0-5,2-9.8,5.5-13.3c11.6-11.6,18.1-27.4,18.1-43.8
		c0-16.4-6.5-32.2-18.1-43.8c-3.6-3.5-5.6-8.3-5.5-13.3c0-16.4-6.6-32.2-18.2-43.8C638.8,444.6,623,438,606.6,438
		C601.6,438,596.8,436,593.3,432.5L593.3,432.5z M636,500c0,13.6,5.4,26.7,15,36.4c5.5,5.5,8.6,13,8.6,20.8c0,7.8-3.1,15.3-8.6,20.8
		c-9.7,9.6-15.1,22.7-15.1,36.4c0,7.8-3.1,15.3-8.6,20.8c-5.5,5.5-13,8.6-20.8,8.6c-13.6,0-26.7,5.4-36.4,15.1
		c-5.6,5.3-13.1,8.3-20.8,8.3s-15.2-3-20.8-8.3c-9.6-9.7-22.7-15.1-36.4-15.1c-7.8,0-15.3-3.1-20.8-8.6c-5.5-5.5-8.6-13-8.6-20.8
		c0-13.6-5.4-26.7-15-36.4c-5.5-5.5-8.6-13-8.6-20.8c0-7.8,3.1-15.3,8.6-20.8c9.7-9.6,15.1-22.7,15-36.4c0-7.8,3.1-15.3,8.6-20.8
		c5.5-5.5,13-8.6,20.8-8.6c13.6,0,26.7-5.4,36.4-15c5.5-5.5,13-8.6,20.8-8.6c7.8,0,15.3,3.1,20.8,8.6c9.6,9.7,22.7,15.1,36.4,15
		c7.8,0,15.3,3.1,20.8,8.6C632.9,484.7,636,492.2,636,500L636,500z"/>
</g>
</svg>
