<?xml version="1.0" encoding="UTF-8"?>
<svg width="700pt" height="700pt" version="1.1" viewBox="0 0 700 700" xmlns="http://www.w3.org/2000/svg">
 <g>
  <path d="m136.5 495.67h206.01c7.2461 0 13.125-5.8789 13.125-13.125 0-7.25-5.8789-13.125-13.125-13.125h-206.01c-9.4805-0.035156-18.559-3.8281-25.246-10.547-6.6836-6.7188-10.434-15.816-10.418-25.297v-367.08c0.011718-9.4531 3.7773-18.516 10.461-25.199 6.6875-6.6797 15.75-10.438 25.203-10.449h93.746v110.45c-0.050782 11.828 6.1328 22.809 16.277 28.891 5.1055 3.0703 10.934 4.7383 16.891 4.8359 5.957 0.097656 11.836-1.3789 17.039-4.2773l36.156-22.297v0.003906c1.8867-1.0352 4.1289-1.1953 6.1445-0.4375l37.746 22.977c0.25391 0.16016 0.51953 0.30469 0.78906 0.4375 10.465 5.4258 23.004 5 33.078-1.125 10.074-6.125 16.223-17.062 16.219-28.852v-110.6h92.926c9.4805-0.023437 18.586 3.7188 25.312 10.402 6.7266 6.6836 10.523 15.766 10.562 25.246v206.05c0 7.2461 5.875 13.125 13.125 13.125 7.2461 0 13.125-5.8789 13.125-13.125v-206.05c-0.046875-16.434-6.6094-32.18-18.25-43.785-11.641-11.602-27.406-18.117-43.84-18.113h-105.67-0.38672-154.12-0.38672-106.48c-16.414 0.015626-32.156 6.5391-43.766 18.145-11.609 11.602-18.145 27.34-18.168 43.754v367.08c-0.003906 16.441 6.5156 32.215 18.125 43.855 11.613 11.641 27.367 18.199 43.809 18.238zm247.87-354.22c-0.003906 2.5625-1.3125 4.9492-3.4727 6.332-2.1602 1.3789-4.875 1.5664-7.2031 0.49219l-38.062-23.137c-10.09-5.1484-22.078-4.9531-31.992 0.52734l-36.152 22.277c-2.3281 1.2188-5.1211 1.1328-7.3711-0.22656-2.2461-1.3633-3.6211-3.7969-3.6211-6.4219v-110.45h127.87z"/>
  <path d="m252 368.8h-95.883c-7.25 0-13.125 5.875-13.125 13.125 0 7.2461 5.875 13.125 13.125 13.125h95.883c7.25 0 13.125-5.8789 13.125-13.125 0-7.25-5.875-13.125-13.125-13.125z"/>
  <path d="m535.34 409.71-33.391 33.793-16.363-16.363c-5.1719-4.8203-13.23-4.6758-18.227 0.32031-5 5-5.1406 13.059-0.32422 18.23l25.691 25.707c2.4648 2.4648 5.8047 3.8477 9.293 3.8477 3.4922-0.011719 6.8359-1.4141 9.293-3.9023l42.684-43.191-0.003906 0.003906c5.0938-5.1641 5.0391-13.477-0.12109-18.57s-13.473-5.0352-18.566 0.125z"/>
  <path d="m545.79 340.18c-9.5117-9.0625-22.145-14.113-35.277-14.113-13.137 0-25.77 5.0508-35.281 14.113-2.8281 2.8711-6.6992 4.4766-10.727 4.4453-13.234 0.011719-25.922 5.2734-35.277 14.633-9.3555 9.3555-14.621 22.043-14.633 35.277 0.035156 4.0195-1.5625 7.8867-4.4297 10.707-9.3398 9.3672-14.586 22.055-14.586 35.281 0 13.227 5.2461 25.914 14.586 35.281 2.8711 2.8281 4.4688 6.6992 4.4297 10.727 0.011719 13.234 5.2773 25.918 14.633 35.277 9.3555 9.3555 22.043 14.617 35.277 14.633 4.0195-0.042968 7.8828 1.5508 10.707 4.4102 9.3594 9.3633 22.055 14.621 35.289 14.621 13.238 0 25.934-5.2578 35.289-14.621 2.8203-2.8672 6.6875-4.4648 10.711-4.4297 13.234-0.011719 25.926-5.2773 35.281-14.637 9.3594-9.3633 14.621-22.055 14.629-35.289-0.015625-4.0195 1.5781-7.875 4.4258-10.711 9.3438-9.3672 14.59-22.059 14.59-35.289s-5.2461-25.918-14.59-35.289c-2.8711-2.8203-4.4727-6.6836-4.4453-10.707-0.015625-13.227-5.2773-25.906-14.633-35.262-9.3516-9.3516-22.031-14.613-35.258-14.633-4.0195 0.027344-7.8828-1.5703-10.711-4.4258zm34.371 54.336c-0.023437 10.977 4.3359 21.512 12.109 29.262 4.418 4.4453 6.8945 10.461 6.8945 16.73 0 6.2656-2.4766 12.281-6.8945 16.727-7.7891 7.75-12.156 18.293-12.129 29.277-0.007813 6.2695-2.5 12.281-6.9336 16.715-4.4297 4.4336-10.438 6.9336-16.707 6.9453-10.98-0.03125-21.516 4.3281-29.262 12.113-4.5078 4.3047-10.504 6.707-16.738 6.707s-12.227-2.4023-16.738-6.707c-7.7383-7.7891-18.277-12.152-29.258-12.113-6.2773-0.007812-12.293-2.5039-16.727-6.9453-4.4375-4.4375-6.9297-10.457-6.9336-16.73 0.03125-10.984-4.3281-21.527-12.109-29.277-4.4336-4.4414-6.9258-10.457-6.9258-16.73 0-6.2734 2.4922-12.289 6.9258-16.73 7.7695-7.75 12.121-18.285 12.09-29.258 0.011719-6.2734 2.5039-12.285 6.9414-16.723 4.4336-4.4336 10.445-6.9297 16.719-6.9375 10.984 0.027344 21.523-4.332 29.277-12.109 4.4375-4.4375 10.457-6.9297 16.73-6.9297 6.2734 0 12.293 2.4922 16.73 6.9297 7.75 7.7734 18.281 12.133 29.262 12.109 6.2773 0 12.301 2.4922 16.742 6.9336 4.4375 4.4414 6.9336 10.465 6.9336 16.742z"/>
 </g>
</svg>
