<?xml version="1.0" encoding="utf-8"?>
<!-- Generator: Adobe Illustrator 26.0.2, SVG Export Plug-In . SVG Version: 6.00 Build 0)  -->
<svg version="1.1" id="Layer_1" xmlns="http://www.w3.org/2000/svg" xmlns:xlink="http://www.w3.org/1999/xlink" x="0px" y="0px"
	 viewBox="0 0 473 443" style="enable-background:new 0 0 473 443;" xml:space="preserve">
<style type="text/css">
	.st0{fill:#BC8757;}
</style>
<path class="st0" d="M463.7,145.4L411,114.6L242.5,17.2c0,0-0.6,0-0.6-0.6h-0.6h-0.6h-0.6h-0.6h-0.6h-0.6H238h-0.6h-0.6
	c0,0-0.6,0-0.6,0.6L65,115.2L12.3,146c-3.9,2.2-5.6,7.3-2.8,11.8c1.7,2.8,4.5,3.9,7.3,3.9c1.7,0,2.8-0.6,4.5-1.1L61,137v272.7
	c0,4.5,3.9,8.4,8.4,8.4H294c4.5,0,8.4-3.9,8.4-8.4v-79.5c0-4.5-3.9-8.4-8.4-8.4h-31.4v-73.9c0-4.5-3.9-8.4-8.4-8.4h-79.5
	c-4.5,0-8.4,3.9-8.4,8.4v73.9h-23V182.9h188.7v226.8c0,4.5,3.9,8.4,8.4,8.4h66.1c4.5,0,8.4-3.9,8.4-8.4l0-272.7l39.8,23.5
	c1.1,0.6,2.8,1.1,4.5,1.1c2.8,0,5.6-1.7,7.3-3.9C468.7,153.2,467.6,148.2,463.7,145.4L463.7,145.4z M285.6,400.8h-62.7v-62.2H285
	v62.2H285.6z M183.1,256.3h62.2v62.2h-62.2V256.3z M206.1,338.6v62.2h-62.2v-62.2H206.1z M398.2,126.9v273.8h-49.3V174.5
	c0-4.5-3.9-8.4-8.4-8.4h-205c-4.5,0-8.4,3.9-8.4,8.4v226.2H77.8V126.9l107-62.2L238,34l53.2,30.8L398.2,126.9z"/>
</svg>
