<?xml version="1.0" encoding="utf-8"?>
<!-- Generator: Adobe Illustrator 26.0.2, SVG Export Plug-In . SVG Version: 6.00 Build 0)  -->
<svg version="1.1" id="Layer_1" xmlns="http://www.w3.org/2000/svg" xmlns:xlink="http://www.w3.org/1999/xlink" x="0px" y="0px"
	 viewBox="0 0 307 404" style="enable-background:new 0 0 307 404;" xml:space="preserve">
<style type="text/css">
	.st0{fill:#255E5A;}
</style>
<g>
	<path class="st0" d="M151.2,238.3c-6.5,0-12.7,2.6-17.3,7.1c-4.6,4.6-7.2,10.8-7.2,17.3c0,6.5,2.6,12.7,7.2,17.3
		c4.6,4.6,10.8,7.1,17.3,7.1s12.7-2.6,17.3-7.2c4.6-4.6,7.1-10.8,7.1-17.3c0-6.4-2.6-12.6-7.2-17.2
		C163.8,240.9,157.6,238.3,151.2,238.3L151.2,238.3z M151.2,275.9c-5.4,0-10.2-3.2-12.3-8.1c-2.1-4.9-1-10.7,2.8-14.5
		c3.8-3.8,9.5-5,14.5-2.9c5,2,8.2,6.9,8.2,12.2c0,3.5-1.4,6.9-3.8,9.4C158.1,274.5,154.7,275.9,151.2,275.9L151.2,275.9z"/>
	<path class="st0" d="M189.6,203.5c-0.4-1.6-1.5-3-3-3.9c-22-12.3-48.9-12.3-70.9,0c-1.5,0.8-2.6,2.2-3,3.9
		c-0.4,1.6-0.2,3.4,0.7,4.9L127,232c1.8,3,5.5,4,8.6,2.4c9.7-5.4,21.5-5.4,31.2,0c3,1.7,6.8,0.6,8.6-2.4l13.7-23.6
		C189.8,206.9,190.1,205.2,189.6,203.5L189.6,203.5z M167.9,222.6c-10.7-4.5-22.9-4.5-33.6,0l-8.8-15.4c16.3-7.5,35-7.5,51.2,0
		L167.9,222.6z"/>
	<path class="st0" d="M217.2,257h-27.3c-3.4,0-6.2,2.8-6.3,6.2c-0.1,11.2-6,21.6-15.6,27.4c-2.9,1.8-3.9,5.6-2.2,8.6l13.7,23.6
		c1.8,3,5.6,4,8.7,2.3c21.8-12.9,35.3-36.3,35.4-61.6c0-1.7-0.6-3.4-1.8-4.6C220.5,257.7,218.9,257,217.2,257L217.2,257z
		 M186.5,312.7l-8.9-15.4h0c9.3-7,15.3-17.5,16.8-29h17.8C210.6,286.1,201.2,302.4,186.5,312.7L186.5,312.7z"/>
	<path class="st0" d="M107.9,305.9c-1-1.3-2.5-2-4.1-2.1s-3.2,0.5-4.3,1.6c-1.1,1.1-1.7,2.7-1.6,4.3c0.1,1.6,0.8,3.1,2.1,4.1
		c4.3,4.3,9.1,8.1,14.3,11.2c3,1.8,6.9,0.8,8.7-2.2l13.7-23.7c1.7-3,0.7-6.8-2.2-8.6c-9.5-5.7-15.4-15.9-15.6-27.1
		c0-3.5-2.8-6.4-6.3-6.4H85.2c-3.5,0.1-6.3,2.9-6.3,6.4c0.1,9.3,2,18.4,5.6,26.9c0.4,1.6,1.5,2.9,2.9,3.6c1.4,0.7,3.1,0.8,4.6,0.2
		c1.5-0.6,2.6-1.9,3.2-3.4c0.5-1.5,0.3-3.2-0.5-4.6c-2.4-5.7-3.9-11.8-4.5-17.9h17.8c1.5,11.5,7.5,22,16.8,29l-9,15.5
		C113.1,310.6,110.4,308.4,107.9,305.9L107.9,305.9z"/>
	<path class="st0" d="M282.8,374.6l-16.1-28h0c-2.5-4.3-3.8-9.2-3.8-14.2V205.4c0-19.8-6.4-39-18.3-54.8c-0.8-1.4-2.2-2.4-3.7-2.7
		c-1.6-0.3-3.2,0-4.5,1c-1.3,1-2.1,2.4-2.2,4c-0.1,1.6,0.4,3.2,1.5,4.3c10.3,13.9,15.9,30.7,15.8,48v127.1v0c0.1,7,2,13.8,5.6,19.8
		l15.3,26.4H30.2l15.2-26.4c3.5-6,5.3-12.9,5.3-19.8V205.4c0-18.9,6.7-37.2,18.8-51.6c12.1-14.5,28.9-24.2,47.5-27.6
		c-6.7,8.1-11.8,17.3-15.1,27.3c-0.7,2.8,0.8,5.7,3.6,6.7c2.7,1,5.8-0.3,7-3c6.6-18.7,16.3-30.4,26.4-32h24.3
		c10.1,1.6,19.9,13.3,26.4,32h0c1.2,2.6,4.2,3.9,7,3c2.7-1,4.3-3.9,3.6-6.7c-3.2-10-8.3-19.3-15.1-27.3c11.9,2.1,23.1,6.9,32.9,13.9
		c1.2,1.1,2.8,1.6,4.4,1.5c1.6-0.2,3.1-1,4-2.3c0.9-1.3,1.3-2.9,0.9-4.5c-0.4-1.6-1.4-2.9-2.8-3.7c-9.4-6.9-20.1-11.9-31.4-14.7
		c0.9-2,1.4-4.2,1.5-6.4c0-3.1-0.9-6.1-2.7-8.6c-1.7-2.5-4.2-4.5-7-5.6c0.5-1.6,0.8-3.3,0.8-5c0-3-0.9-6-2.6-8.5
		c-1.7-2.5-4.1-4.4-7-5.6l15-56.7c0.7-2.8-0.2-5.8-2.4-7.6c-2.2-1.8-5.3-2.2-7.9-1L169,17.1l-14.7-6.9v0c-2-0.9-4.3-0.9-6.3,0
		l-14.6,6.9l-11.9-5.6v0c-2.6-1.2-5.7-0.8-7.9,1c-2.2,1.9-3.1,4.8-2.4,7.6l5.6,20.5c1,2.7,3.9,4.1,6.7,3.4s4.5-3.5,4.1-6.3L124.2,25
		l6,2.8c2.1,1,4.6,1,6.7,0l14.5-6.8l14.5,6.8c2.1,1,4.5,1,6.6,0l6-2.8l-13.6,50.7l-8.1,0V52.6c0-3.1-2.5-5.6-5.6-5.6
		s-5.6,2.5-5.6,5.6v23.2h-7.9l-3.3-12.3c-0.2-1.6-1.1-3-2.5-3.9c-1.3-0.9-3-1.1-4.5-0.7c-1.5,0.4-2.8,1.5-3.6,2.9
		c-0.7,1.4-0.8,3.1-0.2,4.6l2.8,10.5h0c-2.8,1.1-5.2,3-6.9,5.6s-2.6,5.5-2.6,8.5c0,1.7,0.3,3.4,0.8,5c-2.9,1.1-5.3,3.1-7,5.6
		c-1.7,2.5-2.7,5.5-2.7,8.6c-0.1,2.2,0.3,4.4,1.2,6.4c-19.8,5-37.5,16.4-50.1,32.5c-12.6,16.1-19.5,36-19.5,56.4v127.1v0
		c0,4.9-1.3,9.8-3.8,14.1l-16.2,28c-1.8,3.2-1.8,7.1,0,10.2c1.8,3.2,5.2,5.1,8.8,5.1h245.3c3.7,0.1,7.1-1.9,9-5
		C284.6,381.7,284.6,377.8,282.8,374.6L282.8,374.6z M131.9,86.9h38.5h0c2.2,0,4,1.8,4,4c0,2.2-1.8,4-4,4h-38.5c-2.2,0-4-1.8-4-4
		C128,88.7,129.7,86.9,131.9,86.9L131.9,86.9z M123.1,105.8h56c1.1-0.1,2.3,0.2,3.2,1c0.9,0.8,1.4,1.9,1.4,3s-0.5,2.2-1.4,3
		c-0.9,0.8-2,1.1-3.2,1h-56c-2-0.2-3.6-2-3.6-4S121.1,106,123.1,105.8L123.1,105.8z"/>
</g>
</svg>
