<?xml version="1.0" encoding="utf-8"?>
<!-- Generator: Adobe Illustrator 26.0.2, SVG Export Plug-In . SVG Version: 6.00 Build 0)  -->
<svg version="1.1" id="Layer_1" xmlns="http://www.w3.org/2000/svg" xmlns:xlink="http://www.w3.org/1999/xlink" x="0px" y="0px"
	 viewBox="0 0 700.2 700.2" style="enable-background:new 0 0 700.2 700.2;" xml:space="preserve">
<style type="text/css">
	.st0{fill:#824733;}
</style>
<g>
	<path class="st0" d="M350.3,114.9c4.2,0,8.2-1.6,11.1-4.5s4.6-6.9,4.6-11.1V28.6c-0.7-8.1-7.5-14.3-15.6-14.3s-14.9,6.2-15.6,14.3
		v70.8c0,4.1,1.6,8.1,4.6,11C342.3,113.3,346.2,114.9,350.3,114.9L350.3,114.9z"/>
	<path class="st0" d="M167.3,132c3,3.8,7.6,5.9,12.5,5.9c3.4-0.1,6.6-1.2,9.4-3.2c3.2-2.6,5.3-6.4,5.7-10.5s-0.8-8.2-3.4-11.5
		l-46.7-58.4l0,0c-5.5-6.7-15.3-7.7-22-2.4c-3.2,2.6-5.3,6.4-5.7,10.5c-0.4,4.1,0.8,8.2,3.4,11.5L167.3,132z"/>
	<path class="st0" d="M660.6,363.4c0-5.6-3-10.8-7.8-13.6L519,199c-3-3.3-7.2-5.2-11.7-5.2h-314c-4.5,0-8.7,1.9-11.7,5.2L47.9,349.8
		c-5,2.7-8.1,7.9-8.2,13.6c-0.2,4.3,1.3,8.5,4.2,11.6l293.5,305.2l0,0c2.3,2.9,5.6,5,9.2,5.7h5.7c1.9-0.4,3.6-1.1,5.2-2.1
		c1.5-1,2.9-2.2,4-3.6L655,374.9c3-3.1,4.6-7.3,4.4-11.6h1.2V363.4z M500.6,225.1l108.9,122.7h-128l-49.8-122.7H500.6z M351.1,628.6
		l-99.7-249.7h197.7L351.1,628.6z M201.6,225.1h69.3l-21.8,53l0,0c-3.3,8,0.5,17,8.5,20.3c1.9,0.8,3.9,1.3,6,1.2
		c5.7-0.7,10.6-4.4,12.8-9.7l26.5-64.8H397l49.8,122.7H91.5L201.6,225.1z M91.1,378.9h127l88.7,224.3L91.1,378.9z M482.7,378.9h127
		L394,603.2L482.7,378.9z"/>
	<path class="st0" d="M511.3,134.6c2.8,2.2,6.3,3.4,9.8,3.4c4.8,0.1,9.5-2,12.5-5.8l46.8-58.3l0,0c5.4-6.9,4.2-16.8-2.7-22.2
		s-16.8-4.2-22.2,2.7l-46.7,58.4l0,0c-2.6,3.2-3.8,7.4-3.3,11.5C506,128.3,508.1,132.1,511.3,134.6L511.3,134.6z"/>
</g>
</svg>
