<?xml version="1.0" encoding="UTF-8"?>
<svg width="700pt" height="700pt" version="1.1" viewBox="0 0 700 700" xmlns="http://www.w3.org/2000/svg" xmlns:xlink="http://www.w3.org/1999/xlink">
 <defs>
  <symbol id="t" overflow="visible">
   <path d="m19.141-1.1406c-0.98047 0.51172-2.0078 0.89844-3.0781 1.1562-1.0742 0.25781-2.1875 0.39062-3.3438 0.39062-3.4805 0-6.2344-0.96875-8.2656-2.9062-2.0234-1.9453-3.0312-4.5781-3.0312-7.8906 0-3.332 1.0078-5.9688 3.0312-7.9062 2.0312-1.9375 4.7852-2.9062 8.2656-2.9062 1.1562 0 2.2695 0.13281 3.3438 0.39062 1.0703 0.26172 2.0977 0.64844 3.0781 1.1562v4.3125c-0.99219-0.6875-1.9688-1.1875-2.9375-1.5s-1.9922-0.46875-3.0625-0.46875c-1.918 0-3.4219 0.61719-4.5156 1.8438-1.0938 1.2188-1.6406 2.9141-1.6406 5.0781 0 2.1484 0.54688 3.8359 1.6406 5.0625 1.0938 1.2305 2.5977 1.8438 4.5156 1.8438 1.0703 0 2.0938-0.15625 3.0625-0.46875 0.96875-0.32031 1.9453-0.82031 2.9375-1.5z"/>
  </symbol>
  <symbol id="b" overflow="visible">
   <path d="m14.016-11.375c-0.4375-0.19531-0.875-0.34375-1.3125-0.4375-0.42969-0.10156-0.85938-0.15625-1.2969-0.15625-1.293 0-2.2891 0.41406-2.9844 1.2344-0.6875 0.82422-1.0312 2-1.0312 3.5312v7.2031h-4.9844v-15.625h4.9844v2.5625c0.64453-1.0195 1.3828-1.7656 2.2188-2.2344 0.83203-0.46875 1.8281-0.70312 2.9844-0.70312 0.17578 0 0.35938 0.007812 0.54688 0.015625 0.19531 0.011719 0.48438 0.042969 0.85938 0.09375z"/>
  </symbol>
  <symbol id="a" overflow="visible">
   <path d="m18-7.8594v1.4219h-11.672c0.11328 1.1797 0.53125 2.0586 1.25 2.6406 0.72656 0.58594 1.75 0.875 3.0625 0.875 1.0391 0 2.1133-0.14844 3.2188-0.45312 1.1016-0.3125 2.2383-0.78516 3.4062-1.4219v3.8438c-1.1875 0.44922-2.375 0.78906-3.5625 1.0156-1.1797 0.22656-2.3555 0.34375-3.5312 0.34375-2.8242 0-5.0234-0.71875-6.5938-2.1562-1.5625-1.4375-2.3438-3.4531-2.3438-6.0469 0-2.5508 0.76562-4.5547 2.2969-6.0156 1.5391-1.457 3.6602-2.1875 6.3594-2.1875 2.457 0 4.4219 0.74219 5.8906 2.2188 1.4766 1.4805 2.2188 3.4531 2.2188 5.9219zm-5.1406-1.6562c0-0.94531-0.27734-1.7109-0.82812-2.2969-0.55469-0.58203-1.2773-0.875-2.1719-0.875-0.96094 0-1.7461 0.27734-2.3594 0.82812-0.60547 0.54297-0.98047 1.3242-1.125 2.3438z"/>
  </symbol>
  <symbol id="l" overflow="visible">
   <path d="m9.4062-7.0312c-1.043 0-1.8281 0.17969-2.3594 0.53125-0.52344 0.35547-0.78125 0.875-0.78125 1.5625 0 0.63672 0.20703 1.1328 0.625 1.4844 0.42578 0.35547 1.0195 0.53125 1.7812 0.53125 0.9375 0 1.7227-0.33203 2.3594-1 0.64453-0.67578 0.96875-1.5195 0.96875-2.5312v-0.57812zm7.625-1.8906v8.9219h-5.0312v-2.3125c-0.66797 0.94922-1.4219 1.6406-2.2656 2.0781-0.83594 0.42578-1.8516 0.64062-3.0469 0.64062-1.625 0-2.9453-0.46875-3.9531-1.4062-1-0.94531-1.5-2.1758-1.5-3.6875 0-1.832 0.62891-3.1758 1.8906-4.0312 1.2578-0.85156 3.2383-1.2812 5.9375-1.2812h2.9375v-0.39062c0-0.78906-0.3125-1.3672-0.9375-1.7344-0.625-0.375-1.5938-0.5625-2.9062-0.5625-1.0742 0-2.0742 0.10938-3 0.32812-0.91797 0.21094-1.7734 0.52734-2.5625 0.95312v-3.7969c1.0703-0.25781 2.1445-0.45703 3.2188-0.59375 1.082-0.13281 2.1641-0.20312 3.25-0.20312 2.8125 0 4.8438 0.55859 6.0938 1.6719 1.25 1.1055 1.875 2.9062 1.875 5.4062z"/>
  </symbol>
  <symbol id="d" overflow="visible">
   <path d="m7.8594-20.062v4.4375h5.1406v3.5625h-5.1406v6.6406c0 0.71875 0.14062 1.2109 0.42188 1.4688 0.28906 0.25 0.86328 0.375 1.7188 0.375h2.5781v3.5781h-4.2969c-1.9688 0-3.3672-0.41016-4.1875-1.2344-0.82422-0.82031-1.2344-2.2188-1.2344-4.1875v-6.6406h-2.4844v-3.5625h2.4844v-4.4375z"/>
  </symbol>
  <symbol id="k" overflow="visible">
   <path d="m13.031-13.344v-8.375h5.0312v21.719h-5.0312v-2.2656c-0.6875 0.92969-1.4492 1.6055-2.2812 2.0312-0.82422 0.42578-1.7773 0.64062-2.8594 0.64062-1.9297 0-3.5117-0.76562-4.75-2.2969-1.2422-1.5312-1.8594-3.5-1.8594-5.9062 0-2.4141 0.61719-4.3828 1.8594-5.9062 1.2383-1.5312 2.8203-2.2969 4.75-2.2969 1.0703 0 2.0234 0.21875 2.8594 0.65625 0.83203 0.42969 1.5938 1.0938 2.2812 2zm-3.2969 10.125c1.0703 0 1.8906-0.39062 2.4531-1.1719s0.84375-1.9141 0.84375-3.4062c0-1.4883-0.28125-2.625-0.84375-3.4062s-1.3828-1.1719-2.4531-1.1719c-1.0547 0-1.8672 0.39062-2.4375 1.1719-0.5625 0.78125-0.84375 1.918-0.84375 3.4062 0 1.4922 0.28125 2.625 0.84375 3.4062 0.57031 0.78125 1.3828 1.1719 2.4375 1.1719z"/>
  </symbol>
  <symbol id="j" overflow="visible">
   <path d="m10.719-3.2188c1.0703 0 1.8906-0.39062 2.4531-1.1719s0.84375-1.9141 0.84375-3.4062c0-1.4883-0.28125-2.625-0.84375-3.4062s-1.3828-1.1719-2.4531-1.1719c-1.0742 0-1.8984 0.39844-2.4688 1.1875-0.57422 0.78125-0.85938 1.9141-0.85938 3.3906 0 1.4805 0.28516 2.6172 0.85938 3.4062 0.57031 0.78125 1.3945 1.1719 2.4688 1.1719zm-3.3281-10.125c0.6875-0.90625 1.4453-1.5703 2.2812-2 0.84375-0.4375 1.8125-0.65625 2.9062-0.65625 1.9258 0 3.5039 0.76562 4.7344 2.2969 1.2383 1.5234 1.8594 3.4922 1.8594 5.9062 0 2.4062-0.62109 4.375-1.8594 5.9062-1.2305 1.5312-2.8086 2.2969-4.7344 2.2969-1.0938 0-2.0625-0.21484-2.9062-0.64062-0.83594-0.4375-1.5938-1.1133-2.2812-2.0312v2.2656h-4.9844v-21.719h4.9844z"/>
  </symbol>
  <symbol id="i" overflow="visible">
   <path d="m0.34375-15.625h5l4.2031 10.594 3.5625-10.594h5l-6.5625 17.109c-0.66797 1.7383-1.4453 2.9531-2.3281 3.6406-0.875 0.69531-2.0312 1.0469-3.4688 1.0469h-2.8906v-3.2812h1.5625c0.84375 0 1.457-0.13672 1.8438-0.40625 0.38281-0.27344 0.6875-0.75781 0.90625-1.4531l0.14062-0.4375z"/>
  </symbol>
  <symbol id="h" overflow="visible">
   <path d="m2.625-20.828h5.375v7.5938l7.7344-7.5938h6.25l-10.047 9.8594 11.078 10.969h-6.7344l-8.2812-8.2031v8.2031h-5.375z"/>
  </symbol>
  <symbol id="g" overflow="visible">
   <path d="m18.109-9.5156v9.5156h-5.0156v-7.25c0-1.375-0.03125-2.3164-0.09375-2.8281-0.0625-0.50781-0.16797-0.88281-0.3125-1.125-0.19922-0.32031-0.46484-0.57031-0.79688-0.75-0.33594-0.1875-0.71484-0.28125-1.1406-0.28125-1.043 0-1.8672 0.40234-2.4688 1.2031-0.59375 0.80469-0.89062 1.918-0.89062 3.3438v7.6875h-4.9844v-21.719h4.9844v8.375c0.75781-0.90625 1.5625-1.5703 2.4062-2 0.84375-0.4375 1.7734-0.65625 2.7969-0.65625 1.8125 0 3.1797 0.55469 4.1094 1.6562 0.9375 1.1055 1.4062 2.7148 1.4062 4.8281z"/>
  </symbol>
  <symbol id="c" overflow="visible">
   <path d="m9.8438-12.438c-1.1172 0-1.9648 0.40234-2.5469 1.2031-0.57422 0.79297-0.85938 1.9375-0.85938 3.4375s0.28516 2.6484 0.85938 3.4375c0.58203 0.79297 1.4297 1.1875 2.5469 1.1875 1.082 0 1.9102-0.39453 2.4844-1.1875 0.58203-0.78906 0.875-1.9375 0.875-3.4375s-0.29297-2.6445-0.875-3.4375c-0.57422-0.80078-1.4023-1.2031-2.4844-1.2031zm0-3.5625c2.6875 0 4.7852 0.72656 6.2969 2.1719 1.5078 1.4492 2.2656 3.4609 2.2656 6.0312 0 2.5625-0.75781 4.5742-2.2656 6.0312-1.5117 1.4492-3.6094 2.1719-6.2969 2.1719-2.6992 0-4.8086-0.72266-6.3281-2.1719-1.5234-1.457-2.2812-3.4688-2.2812-6.0312 0-2.5703 0.75781-4.582 2.2812-6.0312 1.5195-1.4453 3.6289-2.1719 6.3281-2.1719z"/>
  </symbol>
  <symbol id="f" overflow="visible">
   <path d="m2.4062-15.625h4.9844v15.625h-4.9844zm0-6.0938h4.9844v4.0781h-4.9844z"/>
  </symbol>
  <symbol id="e" overflow="visible">
   <path d="m18.109-9.5156v9.5156h-5.0156v-7.2812c0-1.3516-0.03125-2.2852-0.09375-2.7969-0.0625-0.50781-0.16797-0.88281-0.3125-1.125-0.19922-0.32031-0.46484-0.57031-0.79688-0.75-0.33594-0.1875-0.71484-0.28125-1.1406-0.28125-1.043 0-1.8672 0.40234-2.4688 1.2031-0.59375 0.80469-0.89062 1.918-0.89062 3.3438v7.6875h-4.9844v-15.625h4.9844v2.2812c0.75781-0.90625 1.5625-1.5703 2.4062-2 0.84375-0.4375 1.7734-0.65625 2.7969-0.65625 1.8125 0 3.1797 0.55469 4.1094 1.6562 0.9375 1.1055 1.4062 2.7148 1.4062 4.8281z"/>
  </symbol>
  <symbol id="s" overflow="visible">
   <path d="m12.688-21.719v3.2812h-2.7656c-0.71094 0-1.2031 0.13281-1.4844 0.39062-0.27344 0.25-0.40625 0.69531-0.40625 1.3281v1.0938h4.2656v3.5625h-4.2656v12.062h-5v-12.062h-2.4844v-3.5625h2.4844v-1.0938c0-1.6953 0.47266-2.9531 1.4219-3.7656 0.94531-0.82031 2.4141-1.2344 4.4062-1.2344z"/>
  </symbol>
  <symbol id="r" overflow="visible">
   <path d="m16.891-13.031c0.625-0.96875 1.3672-1.7031 2.2344-2.2031 0.875-0.50781 1.832-0.76562 2.875-0.76562 1.8008 0 3.1719 0.55469 4.1094 1.6562 0.9375 1.1055 1.4062 2.7148 1.4062 4.8281v9.5156h-5.0156v-8.1562c0.007812-0.11328 0.015625-0.23438 0.015625-0.35938v-0.5625c0-1.1133-0.16406-1.9141-0.48438-2.4062-0.32422-0.5-0.85156-0.75-1.5781-0.75-0.94922 0-1.6836 0.39062-2.2031 1.1719-0.51172 0.78125-0.77734 1.9141-0.79688 3.3906v7.6719h-5.0156v-8.1562c0-1.7266-0.15234-2.8359-0.45312-3.3281-0.29297-0.5-0.82422-0.75-1.5938-0.75-0.96094 0-1.6992 0.39844-2.2188 1.1875-0.52344 0.78125-0.78125 1.9023-0.78125 3.3594v7.6875h-5.0156v-15.625h5.0156v2.2812c0.61328-0.88281 1.3164-1.5469 2.1094-1.9844 0.80078-0.44531 1.6797-0.67188 2.6406-0.67188 1.082 0 2.0352 0.26172 2.8594 0.78125 0.83203 0.52344 1.4609 1.25 1.8906 2.1875z"/>
  </symbol>
  <symbol id="q" overflow="visible">
   <path d="m2.625-20.828h6l7.5781 14.281v-14.281h5.0938v20.828h-6l-7.5781-14.297v14.297h-5.0938z"/>
  </symbol>
  <symbol id="p" overflow="visible">
   <path d="m2.2344-6.0781v-9.5469h5.0156v1.5625c0 0.84375-0.007812 1.9062-0.015625 3.1875v2.5625c0 1.25 0.03125 2.1562 0.09375 2.7188 0.0625 0.55469 0.17188 0.95312 0.32812 1.2031 0.20703 0.32422 0.47266 0.57422 0.79688 0.75 0.33203 0.17969 0.71094 0.26562 1.1406 0.26562 1.0391 0 1.8594-0.39844 2.4531-1.2031 0.60156-0.80078 0.90625-1.9102 0.90625-3.3281v-7.7188h4.9844v15.625h-4.9844v-2.2656c-0.76172 0.91797-1.5625 1.5938-2.4062 2.0312-0.83594 0.42578-1.7617 0.64062-2.7812 0.64062-1.8047 0-3.1797-0.55078-4.125-1.6562-0.9375-1.1133-1.4062-2.7227-1.4062-4.8281z"/>
  </symbol>
  <symbol id="o" overflow="visible">
   <path d="m2.625-20.828h8.9219c2.6445 0 4.6758 0.58984 6.0938 1.7656 1.4141 1.1797 2.125 2.8555 2.125 5.0312 0 2.1797-0.71094 3.8555-2.125 5.0312-1.418 1.1797-3.4492 1.7656-6.0938 1.7656h-3.5469v7.2344h-5.375zm5.375 3.8906v5.8125h2.9688c1.0391 0 1.8438-0.25 2.4062-0.75 0.57031-0.50781 0.85938-1.2266 0.85938-2.1562 0-0.9375-0.28906-1.6562-0.85938-2.1562-0.5625-0.5-1.3672-0.75-2.4062-0.75z"/>
  </symbol>
  <symbol id="n" overflow="visible">
   <path d="m2.4062-15.625h4.9844v15.344c0 2.0938-0.50781 3.6914-1.5156 4.7969-1 1.1016-2.4531 1.6562-4.3594 1.6562h-2.4688v-3.2812h0.875c0.94531 0 1.5977-0.21484 1.9531-0.64062 0.35156-0.42969 0.53125-1.2734 0.53125-2.5312zm0-6.0938h4.9844v4.0781h-4.9844z"/>
  </symbol>
  <symbol id="m" overflow="visible">
   <path d="m15.031-15.141v4.0781c-0.67969-0.46875-1.3594-0.8125-2.0469-1.0312-0.6875-0.22656-1.3984-0.34375-2.125-0.34375-1.3984 0-2.4844 0.41406-3.2656 1.2344-0.77344 0.8125-1.1562 1.9492-1.1562 3.4062 0 1.4609 0.38281 2.5938 1.1562 3.4062 0.78125 0.8125 1.8672 1.2188 3.2656 1.2188 0.78125 0 1.5195-0.11328 2.2188-0.34375 0.70703-0.22656 1.3594-0.57031 1.9531-1.0312v4.0938c-0.78125 0.28125-1.5781 0.49219-2.3906 0.64062-0.80469 0.14453-1.6055 0.21875-2.4062 0.21875-2.8242 0-5.0312-0.72266-6.625-2.1719-1.5859-1.4453-2.375-3.457-2.375-6.0312 0-2.582 0.78906-4.5938 2.375-6.0312 1.5938-1.4453 3.8008-2.1719 6.625-2.1719 0.8125 0 1.6133 0.074219 2.4062 0.21875 0.80078 0.13672 1.5977 0.35156 2.3906 0.64062z"/>
  </symbol>
 </defs>
 <g>
  <path d="m350 142.95c-75.57 0-137.05 61.48-137.05 137.05s61.477 137.05 137.05 137.05 137.05-61.48 137.05-137.05-61.48-137.05-137.05-137.05zm0 259.2c-67.348 0-122.14-54.793-122.14-122.15 0-67.355 54.789-122.14 122.14-122.14s122.15 54.793 122.15 122.15-54.801 122.14-122.15 122.14zm243.13-121.38c-0.85156-2.6172-3.0703-4.5469-5.7695-5.0352l-35.023-6.2734c-0.64453-9.9531-2.0117-19.848-4.0898-29.527l31.93-15.613c2.4688-1.2109 4.0742-3.6797 4.1758-6.4297 0.35938-10.004-2.9258-23.473-9.0117-36.953s-14.016-24.852-21.762-31.195c-2.125-1.7422-5.0352-2.1758-7.582-1.1211l-32.855 13.641c-5.9141-8-12.418-15.57-19.418-22.605l18.453-30.418c1.4297-2.3555 1.4414-5.2969 0.039062-7.6641-5.0977-8.6133-15.137-18.172-27.543-26.23s-25.223-13.336-35.164-14.492c-2.7266-0.32031-5.418 0.89844-6.9844 3.1523l-20.25 29.188c-9.6211-3.668-19.543-6.6055-29.617-8.7617l-1.0898-35.52c-0.085937-2.75-1.6758-5.2227-4.1367-6.4453-8.9648-4.4453-22.594-6.9961-37.387-6.9961s-28.422 2.5469-37.387 6.9961c-2.4609 1.2227-4.0508 3.7031-4.1367 6.4453l-1.0898 35.527c-9.7266 2.0859-19.312 4.8984-28.617 8.3867l-20.109-29.297c-1.5547-2.2695-4.2383-3.4805-6.9648-3.1875-9.9414 1.1016-22.789 6.3125-35.238 14.309-12.445 7.9883-22.539 17.496-27.68 26.086-1.4102 2.3594-1.4102 5.3047 0 7.6641l18.297 30.52c-7.0508 7.0117-13.594 14.543-19.543 22.496l-32.777-13.805c-2.5312-1.0703-5.4453-0.65234-7.582 1.0781-7.7695 6.3047-15.766 17.629-21.926 31.078-6.1523 13.453-9.5078 26.902-9.1992 36.902 0.085938 2.75 1.6758 5.2305 4.1367 6.4453l31.848 15.777c-2.125 9.6797-3.5469 19.559-4.2383 29.504l-35.051 6.0898c-2.707 0.46875-4.9375 2.3945-5.8008 5.0039-3.1484 9.5156-3.7539 23.367-1.668 38.016 2.0859 14.641 6.5273 27.77 12.195 36.027 1.5547 2.2695 4.25 3.4844 6.9648 3.1875l35.312-3.9258c3.4414 9.3203 7.5781 18.406 12.359 27.137l-26.184 24.039c-2.0234 1.8633-2.8633 4.6875-2.1758 7.3477 2.4922 9.6914 9.4609 21.668 19.133 32.875 9.668 11.199 20.508 19.848 29.73 23.73 2.5312 1.0625 5.4453 0.65234 7.582-1.0781l27.629-22.41c7.9492 6.0117 16.332 11.441 25.023 16.199l-9.0469 34.367c-0.69531 2.6562 0.12109 5.4844 2.1367 7.3594 7.332 6.8047 19.676 13.125 33.863 17.324 14.184 4.1992 27.965 5.6172 37.836 3.9102 2.707-0.47266 4.9375-2.3945 5.8008-5.0039l11.145-33.777c9.9375 0.75391 19.887 0.77734 29.801 0.078125l10.965 33.836c0.85156 2.6172 3.0703 4.5547 5.7695 5.0352 2.8359 0.50781 5.9961 0.76172 9.3984 0.76172 8.4219 0 18.336-1.5312 28.453-4.4688 14.211-4.1328 26.582-10.383 33.949-17.152 2.0234-1.8555 2.8555-4.6797 2.1719-7.3438l-8.8633-34.422c8.7422-4.7266 17.152-10.102 25.113-16.059l27.508 22.547c2.1211 1.7383 5.0391 2.1758 7.5781 1.1211 9.2461-3.8359 20.125-12.422 29.852-23.57 9.7266-11.145 16.762-23.09 19.305-32.77 0.69531-2.6562-0.125-5.4844-2.1367-7.3555l-26.059-24.184c4.8359-8.7148 9.0234-17.781 12.508-27.074l35.285 4.1094c2.7539 0.33203 5.4102-0.89062 6.9844-3.1484 5.707-8.2188 10.223-21.324 12.387-35.965 2.1602-14.641 1.6289-28.492-1.4609-38.02zm-13.281 35.836c-1.4961 10.125-4.2734 19.445-7.668 25.93l-36.398-4.2383c-3.5078-0.39844-6.7812 1.6758-7.9141 5-4.1602 12.199-9.6211 24.039-16.25 35.188-1.793 3.0156-1.2383 6.8789 1.3359 9.2695l26.887 24.949c-2.7383 6.793-8.0156 14.961-14.742 22.668-6.7305 7.707-14.102 14.051-20.461 17.688l-28.383-23.262c-2.7148-2.2227-6.6133-2.2578-9.3672-0.070313-10.113 8.0469-21.102 15.074-32.652 20.879-3.1328 1.5703-4.7422 5.1211-3.8672 8.5156l9.1445 35.508c-5.9727 4.2383-14.828 8.2578-24.652 11.113-9.8281 2.8516-19.461 4.207-26.777 3.8281l-11.309-34.898c-1.0781-3.3359-4.3789-5.4727-7.8281-5.1211-12.812 1.2852-25.902 1.2578-38.766-0.10156-3.5039-0.34766-6.7617 1.75-7.8555 5.0742l-11.496 34.84c-7.3242 0.32031-16.941-1.0625-26.75-3.9648-9.8125-2.9102-18.652-6.9766-24.602-11.246l9.332-35.453c0.89062-3.3945-0.70312-6.9492-3.8281-8.5391-11.473-5.8398-22.422-12.926-32.539-21.059-2.7422-2.207-6.6406-2.1953-9.3672 0.015626l-28.508 23.129c-6.3359-3.6641-13.68-10.047-20.367-17.789-6.6875-7.75-11.926-15.941-14.621-22.75l27.016-24.805c2.5898-2.3789 3.1602-6.2344 1.3828-9.2617-6.5586-11.172-11.973-23.039-16.07-35.27-1.1133-3.3242-4.4062-5.418-7.8906-5.0391l-36.43 4.0469c-3.3555-6.5078-6.0898-15.848-7.5312-25.977-1.4414-10.133-1.4219-19.855-0.015625-27.039l36.164-6.2852c3.4609-0.60156 6.0273-3.5391 6.1719-7.0469 0.51953-12.977 2.3789-25.879 5.5156-38.359 0.85547-3.3984-0.77734-6.9375-3.9141-8.4961l-32.836-16.277c0.69141-7.293 3.4414-16.621 7.6953-25.926 4.2617-9.3047 9.5312-17.48 14.602-22.766l33.812 14.238c3.2305 1.3672 6.9727 0.28516 8.9883-2.582 7.4219-10.566 15.973-20.41 25.41-29.258 2.5586-2.3984 3.1016-6.2578 1.2969-9.2695l-18.875-31.484c4.5195-5.7617 11.875-12.133 20.484-17.656 8.6133-5.5273 17.461-9.5586 24.582-11.27l20.742 30.223c1.9844 2.8984 5.7266 4 8.9727 2.6797 11.953-4.9023 24.469-8.5703 37.195-10.902 3.457-0.63281 6-3.5898 6.1094-7.1016l1.125-36.652c6.9141-2.4062 16.539-3.793 26.777-3.793 10.234 0 19.855 1.3867 26.777 3.793l1.125 36.652c0.10938 3.5078 2.6523 6.4688 6.1094 7.1016 13.047 2.3828 25.863 6.1758 38.102 11.273 3.2344 1.3555 6.9883 0.25781 8.9883-2.6289l20.898-30.113c7.1094 1.75 15.941 5.8281 24.52 11.398 8.582 5.5703 15.898 11.984 20.395 17.766l-19.039 31.379c-1.8164 3-1.3047 6.8633 1.2461 9.2734 9.3672 8.8672 17.863 18.762 25.25 29.398 2 2.8789 5.7305 3.9727 8.9766 2.6328l33.887-14.07c5.0391 5.3125 10.262 13.52 14.473 22.84 4.2109 9.3242 6.9023 18.676 7.5586 25.965l-32.938 16.102c-3.1484 1.543-4.8008 5.0703-3.9609 8.4805 3.0742 12.473 4.8633 25.387 5.3203 38.387 0.125 3.5078 2.6797 6.457 6.1328 7.0742l36.133 6.4727c1.3633 7.1992 1.332 16.926-0.16406 27.051zm-151.83-66.75h-47.879v-47.879c0-4.1133-3.3359-7.4531-7.4531-7.4531h-45.383c-4.1133 0-7.4531 3.3359-7.4531 7.4531v47.879h-47.879c-4.1133 0-7.4531 3.3359-7.4531 7.4531v45.383c0 4.1133 3.3359 7.4531 7.4531 7.4531h47.879v47.879c0 4.1133 3.3359 7.4531 7.4531 7.4531h45.383c4.1133 0 7.4531-3.3359 7.4531-7.4531v-47.879h47.879c4.1133 0 7.4531-3.3359 7.4531-7.4531v-45.383c-0.003906-4.1211-3.3398-7.4531-7.4531-7.4531zm-7.4531 45.383h-47.879c-4.1133 0-7.4531 3.3359-7.4531 7.4531v47.879h-30.48v-47.879c0-4.1133-3.3359-7.4531-7.4531-7.4531h-47.875v-30.48h47.879c4.1133 0 7.4531-3.3359 7.4531-7.4531v-47.875h30.48v47.879c0 4.1133 3.3359 7.4531 7.4531 7.4531h47.879z"/>
  <use x="70" y="645.714844" xlink:href="#t"/>
  <use x="90.96875" y="645.714844" xlink:href="#b"/>
  <use x="105.058594" y="645.714844" xlink:href="#a"/>
  <use x="124.4375" y="645.714844" xlink:href="#l"/>
  <use x="143.714844" y="645.714844" xlink:href="#d"/>
  <use x="157.375" y="645.714844" xlink:href="#a"/>
  <use x="176.753906" y="645.714844" xlink:href="#k"/>
  <use x="207.152344" y="645.714844" xlink:href="#j"/>
  <use x="227.601562" y="645.714844" xlink:href="#i"/>
  <use x="256.175781" y="645.714844" xlink:href="#h"/>
  <use x="278.316406" y="645.714844" xlink:href="#g"/>
  <use x="298.65625" y="645.714844" xlink:href="#c"/>
  <use x="318.285156" y="645.714844" xlink:href="#f"/>
  <use x="328.078125" y="645.714844" xlink:href="#b"/>
  <use x="342.167969" y="645.714844" xlink:href="#f"/>
  <use x="351.960938" y="645.714844" xlink:href="#e"/>
  <use x="70" y="674.285156" xlink:href="#s"/>
  <use x="82.429688" y="674.285156" xlink:href="#b"/>
  <use x="96.519531" y="674.285156" xlink:href="#c"/>
  <use x="116.148438" y="674.285156" xlink:href="#r"/>
  <use x="155.867188" y="674.285156" xlink:href="#d"/>
  <use x="169.527344" y="674.285156" xlink:href="#g"/>
  <use x="189.867188" y="674.285156" xlink:href="#a"/>
  <use x="219.191406" y="674.285156" xlink:href="#q"/>
  <use x="243.101562" y="674.285156" xlink:href="#c"/>
  <use x="262.730469" y="674.285156" xlink:href="#p"/>
  <use x="283.070312" y="674.285156" xlink:href="#e"/>
  <use x="313.359375" y="674.285156" xlink:href="#o"/>
  <use x="334.300781" y="674.285156" xlink:href="#b"/>
  <use x="348.390625" y="674.285156" xlink:href="#c"/>
  <use x="368.019531" y="674.285156" xlink:href="#n"/>
  <use x="377.8125" y="674.285156" xlink:href="#a"/>
  <use x="397.191406" y="674.285156" xlink:href="#m"/>
  <use x="414.125" y="674.285156" xlink:href="#d"/>
 </g>
</svg>
