<?xml version="1.0" encoding="utf-8"?>
<!-- Generator: Adobe Illustrator 26.0.2, SVG Export Plug-In . SVG Version: 6.00 Build 0)  -->
<svg version="1.1" id="Layer_1" xmlns="http://www.w3.org/2000/svg" xmlns:xlink="http://www.w3.org/1999/xlink" x="0px" y="0px"
	 viewBox="0 0 144.7 128" style="enable-background:new 0 0 144.7 128;" xml:space="preserve">
<style type="text/css">
	.st0{display:none;}
	.st1{display:inline;fill:#255E5A;}
	.st2{fill:#824733;}
</style>
<g class="st0">
	<path class="st1" d="M94.6,96.9c-2.2,0-4.3-0.8-5.9-2.4l-0.9-0.9L71,76.5c-0.9-0.9-0.9-2.4,0-3.4c0.9-0.9,2.4-0.9,3.4,0L91,90.1
		c0.1,0.1,0.1,0.1,0.2,0.2l0.8,0.8c0.7,0.7,1.7,1.1,2.7,1.1c1,0,2-0.5,2.6-1.3c0.5-0.8,0.8-1.7,0.7-2.7c-0.1-0.9-0.5-1.8-1.2-2.5
		L82.8,71.4l-0.3-0.2L79.4,68v0c-0.9-0.9-0.9-2.4,0-3.4c0.4-0.5,1.1-0.7,1.7-0.7c0.6,0,1.2,0.3,1.7,0.7l0.2,0.2l2.6,2.7l0.3,0.2
		l14.3,14.5v0c1.5,1.5,2.4,3.5,2.5,5.6c0.1,2.1-0.5,4.2-1.8,5.9c-1.5,1.8-3.7,3-6,3.1L94.6,96.9z"/>
	<path class="st1" d="M72,86.5c-0.6,0-1.3-0.3-1.7-0.7c-1.2-1.2-3.1-1.4-4.5-0.4l-0.3,0.2h0c-0.9,0.8-2.3,0.8-3.2-0.1
		c-0.9-0.9-1-2.3-0.2-3.2c1.1-1.4,1.1-3.4,0-4.8c-0.1-0.1-0.2-0.2-0.3-0.3l-0.1-0.1c-1.4-1.3-3.6-1.2-4.9,0.1l-3.4,3.5
		c-0.4,0.5-1,0.8-1.7,0.8c-0.7,0-1.3-0.2-1.8-0.7c-0.5-0.5-0.7-1.1-0.7-1.8c0-0.7,0.3-1.3,0.8-1.7c1.4-1.4,1.4-3.8,0-5.2
		c-0.3-0.3-0.6-0.5-0.9-0.7c-0.2-0.1-0.4-0.2-0.7-0.3c-1.2-0.4-2.5,0-3.4,0.9l-4.2,4.3h0c-0.4,0.5-1.1,0.7-1.7,0.7s-1.3-0.3-1.7-0.7
		l-16.7-17c-0.9-0.9-0.9-2.4,0-3.4l25.2-25.5c0.4-0.5,1.1-0.7,1.7-0.7c0.6,0,1.2,0.3,1.7,0.7l7.6,7.7h15.9c1,0,1.8,0.6,2.2,1.5
		c0.4,0.9,0.2,1.9-0.5,2.6L65.9,51l-0.2,0.2L54.4,62.7h0c1.4,0.9,3.1,1.4,4.8,1.4c2.5,0,5-1,6.7-2.9L75.9,51
		c1.3-1.4,3.2-2.1,5.1-2.1c1.9,0,3.7,0.8,5.1,2.1l5,5.1c0.9,0.9,0.9,2.4,0,3.4c-0.9,0.9-2.4,0.9-3.4,0l-5.1-5.1
		c-0.4-0.4-1-0.7-1.7-0.7c-0.6,0-1.2,0.3-1.7,0.7L69.2,64.6c-2.6,2.7-6.2,4.2-10,4.2c-3.8,0-7.4-1.5-10.1-4.3
		c-0.9-0.9-0.9-2.4,0-3.4l13.4-13.6l0.2-0.2L67,43H55.8c-0.6,0-1.2-0.2-1.7-0.7l-6.6-6.7L25.6,57.9L39,71.4l2.5-2.6l0,0
		c1.6-1.6,3.7-2.4,5.9-2.4c0.7,0,1.3,0.1,2,0.3c0.6,0.1,1.3,0.4,1.8,0.7c0.8,0.4,1.5,0.9,2.1,1.5c1,1,1.7,2.2,2.1,3.5
		c1.5-0.8,3.2-1.1,4.9-0.9c1.7,0.2,3.3,0.9,4.6,2.1c0.1,0.1,0.3,0.2,0.4,0.4c0.2,0.2,0.4,0.5,0.6,0.7c1.2,1.5,1.8,3.4,1.8,5.3
		c2.3,0,4.4,0.9,6,2.5c0.9,0.9,0.9,2.4,0,3.4C73.3,86.3,72.6,86.5,72,86.5L72,86.5z M61.9,77.3H62H61.9z"/>
	<path class="st1" d="M106.4,77.2c-0.6,0-1.2-0.3-1.7-0.7L82.8,54.3c-0.4-0.4-1-0.7-1.7-0.7c-0.6,0-1.2,0.2-1.7,0.7L69.4,64.5
		c-2.7,2.7-6.3,4.2-10.1,4.2c-3.8,0-7.4-1.5-10.1-4.3c-0.9-0.9-0.9-2.4,0-3.4l21.8-22c0.4-0.5,1.1-0.8,1.7-0.8h15.8l7.6-7.6
		c0.4-0.5,1.1-0.7,1.7-0.7c0.6,0,1.2,0.3,1.7,0.7l25.3,25.5c0.9,0.9,0.9,2.4,0,3.4l-16.7,17v0C107.7,77,107,77.2,106.4,77.2
		L106.4,77.2z M81.1,48.9c1.9,0,3.7,0.8,5.1,2.1l20.2,20.5l13.4-13.5L97.8,35.7l-6.6,6.7c-0.4,0.4-1.1,0.7-1.7,0.7H73.7L54.4,62.7
		c1.4,0.9,3.1,1.4,4.8,1.4c2.5,0,5-1,6.7-2.9L76,51C77.3,49.6,79.2,48.8,81.1,48.9L81.1,48.9z"/>
	<path class="st1" d="M50.8,65.3c-1,0-1.8-0.6-2.2-1.5c-0.4-0.9-0.2-1.9,0.5-2.6l13.4-13.6c0.6-0.6,1.4-0.8,2.2-0.7
		c0.8,0.2,1.4,0.7,1.7,1.4c0.4,0.9,0.2,1.9-0.5,2.6L52.5,64.5h0C52.1,65,51.5,65.3,50.8,65.3L50.8,65.3z"/>
	<path class="st1" d="M64.3,51.6c-1,0-1.8-0.6-2.2-1.5c-0.4-0.9-0.2-1.9,0.5-2.6L71,39c0.4-0.5,1.1-0.7,1.7-0.7
		c0.6,0,1.2,0.3,1.7,0.7c0.4,0.4,0.7,1.1,0.7,1.7c0,0.6-0.2,1.2-0.7,1.7l-8.5,8.5C65.5,51.4,64.9,51.6,64.3,51.6L64.3,51.6z"/>
	<path class="st1" d="M84.2,71.8c-0.6,0-1.2-0.2-1.7-0.7L79.5,68c-0.9-0.9-0.9-2.4,0-3.4c0.4-0.5,1.1-0.7,1.7-0.7
		c0.6,0,1.2,0.2,1.7,0.7l3.1,3.2v0c0.7,0.7,0.9,1.7,0.5,2.6C86.1,71.3,85.2,71.8,84.2,71.8L84.2,71.8z"/>
	<path class="st1" d="M50.8,65.3c-1,0-1.8-0.6-2.2-1.5c-0.4-0.9-0.2-1.9,0.5-2.6l13.4-13.6c0.6-0.6,1.4-0.8,2.2-0.7
		c0.8,0.2,1.4,0.7,1.7,1.4c0.4,0.9,0.2,1.9-0.5,2.6L52.5,64.5h0C52.1,65,51.5,65.3,50.8,65.3L50.8,65.3z"/>
	<path class="st1" d="M64.3,51.6c-1,0-1.8-0.6-2.2-1.5c-0.4-0.9-0.2-1.9,0.5-2.6L71,39c0.5-0.5,1.1-0.7,1.7-0.7
		c0.6,0,1.2,0.3,1.7,0.7c0.9,0.9,0.9,2.4,0,3.4L66,50.9v0C65.5,51.4,64.9,51.6,64.3,51.6L64.3,51.6z"/>
	<path class="st1" d="M63.8,86.3c-0.6,0-1.1-0.2-1.5-0.5c-0.9-0.7-1.1-1.9-0.6-2.9c0.1-0.2,0.2-0.3,0.3-0.5l0.2-0.2l0.4-0.4
		c0.4-0.4,1.1-0.7,1.7-0.7c0.6,0,1.3,0.3,1.7,0.7c0.5,0.5,0.7,1.2,0.7,1.9c0,0.7-0.4,1.3-0.9,1.8l-0.5,0.5v0
		C64.8,86.1,64.3,86.3,63.8,86.3L63.8,86.3z M63.7,83.8v0.1V83.8z M63.5,83.5L62.3,82L63.5,83.5z"/>
	<path class="st1" d="M72.7,87.2h-0.2c-0.7-0.1-1.4-0.4-1.8-1L70.5,86h0c-0.8-1-0.7-2.4,0.3-3.3c0.9-0.8,2.4-0.8,3.3,0.1l0.4,0.3v0
		c0.5,0.4,0.7,1.1,0.7,1.7c0,0.6-0.2,1.3-0.7,1.7C74,87,73.3,87.2,72.7,87.2L72.7,87.2z"/>
	<path class="st1" d="M64.3,102.9c-0.6,0-1.2-0.2-1.6-0.7c-0.5-0.4-0.7-1.1-0.7-1.7c0-0.6,0.2-1.3,0.7-1.7l4.2-4.3l0.2-0.2
		c0.9-0.9,2.4-0.9,3.4,0c0.9,0.9,0.9,2.4,0,3.4l-4.4,4.5C65.5,102.6,64.9,102.8,64.3,102.9L64.3,102.9z"/>
	<path class="st1" d="M84.2,71.8c-0.6,0-1.2-0.2-1.7-0.7L79.5,68c-0.9-0.9-0.9-2.4,0-3.4c0.4-0.5,1.1-0.7,1.7-0.7
		c0.6,0,1.2,0.2,1.7,0.7l3.1,3.2v0c0.7,0.7,0.9,1.7,0.5,2.6C86.1,71.3,85.2,71.8,84.2,71.8L84.2,71.8z"/>
	<path class="st1" d="M84.2,71.8c-0.6,0-1.2-0.2-1.7-0.7L79.5,68c-0.9-0.9-0.9-2.4,0-3.4c0.4-0.5,1.1-0.7,1.7-0.7
		c0.6,0,1.2,0.2,1.7,0.7l3.1,3.2v0c0.7,0.7,0.9,1.7,0.5,2.6C86.1,71.3,85.2,71.8,84.2,71.8L84.2,71.8z"/>
	<path class="st1" d="M127.4,64.8c-0.6,0-1.2-0.3-1.7-0.7l-33.5-34c-0.9-0.9-0.9-2.4,0-3.3l11.9-12c0.4-0.5,1.1-0.7,1.7-0.7
		c0.6,0,1.2,0.3,1.7,0.7l33.5,34c0.9,0.9,0.9,2.4,0,3.3l-11.9,12C128.7,64.5,128.1,64.8,127.4,64.8L127.4,64.8z M97.3,28.4L127.4,59
		l8.5-8.6l-30.1-30.6L97.3,28.4z"/>
	<path class="st1" d="M50.8,65.3c-1,0-1.8-0.6-2.2-1.5c-0.4-0.9-0.2-1.9,0.5-2.6l13.4-13.6c0.6-0.6,1.4-0.8,2.2-0.7
		c0.8,0.2,1.4,0.7,1.7,1.4c0.4,0.9,0.2,1.9-0.5,2.6L52.5,64.5h0C52.1,65,51.5,65.3,50.8,65.3L50.8,65.3z"/>
	<path class="st1" d="M63.8,86.3c-0.6,0-1.1-0.2-1.5-0.5c-0.9-0.7-1.1-1.9-0.6-2.9c0.1-0.2,0.2-0.3,0.3-0.5l0.2-0.2l0.4-0.4
		c0.4-0.4,1.1-0.7,1.7-0.7c0.6,0,1.3,0.3,1.7,0.7c0.5,0.5,0.7,1.2,0.7,1.9c0,0.7-0.4,1.3-0.9,1.8l-0.5,0.5v0
		C64.8,86.1,64.3,86.3,63.8,86.3L63.8,86.3z M63.7,83.8v0.1V83.8z M63.5,83.5L62.3,82L63.5,83.5z"/>
	<path class="st1" d="M72.7,87.3h-0.2c-0.7-0.1-1.3-0.5-1.7-1L70.5,86v0c-0.8-1-0.7-2.4,0.3-3.3c0.9-0.8,2.4-0.8,3.3,0.1l0.4,0.3v0
		c0.5,0.4,0.7,1.1,0.7,1.7c0,0.6-0.2,1.3-0.7,1.7C74,87,73.3,87.3,72.7,87.3L72.7,87.3z"/>
	<path class="st1" d="M17.9,64.8c-0.6,0-1.2-0.3-1.7-0.7l-11.9-12c-0.9-0.9-0.9-2.4,0-3.3l33.5-34c0.4-0.5,1.1-0.7,1.7-0.7
		c0.6,0,1.2,0.3,1.7,0.7l11.9,12c0.9,0.9,0.9,2.4,0,3.3L19.5,64C19.1,64.5,18.5,64.7,17.9,64.8L17.9,64.8z M9.3,50.4l8.6,8.6
		L48,28.4l-8.5-8.6L9.3,50.4z"/>
	<path class="st1" d="M103,88.4c-2.2,0-4.3-0.8-5.9-2.4L79.5,68.1v0c-0.9-0.9-0.9-2.4,0-3.4c0.9-0.9,2.4-0.9,3.4,0l17.7,18
		c0.7,0.7,1.6,1,2.5,1c0.9,0,1.9-0.4,2.5-1c1.4-1.5,1.4-3.8,0-5.2L87.9,59.5h0c-0.9-0.9-0.9-2.4,0-3.4c0.9-0.9,2.4-0.9,3.4,0
		l17.7,17.9c1.6,1.6,2.4,3.7,2.4,6s-0.9,4.4-2.4,6C107.4,87.6,105.2,88.4,103,88.4L103,88.4z"/>
	<path class="st1" d="M84.2,71.8c-0.6,0-1.2-0.2-1.7-0.7L79.5,68c-0.9-0.9-0.9-2.4,0-3.4c0.4-0.5,1.1-0.7,1.7-0.7
		c0.6,0,1.2,0.2,1.7,0.7l3.1,3.2v0c0.7,0.7,0.9,1.7,0.5,2.6C86.1,71.3,85.2,71.8,84.2,71.8L84.2,71.8z"/>
	<path class="st1" d="M86.2,105.5c-2.2,0-4.3-0.8-5.9-2.4l-5.1-5.1h0c-0.9-0.9-0.9-2.4,0-3.4c0.9-0.9,2.4-0.9,3.4,0l5.1,5.1
		c0.7,0.7,1.6,1,2.5,1c0.9,0,1.9-0.4,2.5-1c1.4-1.5,1.4-3.8,0-5.2L88,93.9l-0.2-0.2L71,76.5c-0.9-0.9-0.9-2.4,0-3.4
		c0.9-0.9,2.4-0.9,3.4,0L91,90.1c0.1,0.1,0.1,0.1,0.2,0.2l0.8,0.8c1.6,1.6,2.4,3.7,2.4,6c0,2.2-0.9,4.4-2.4,6
		C90.5,104.6,88.4,105.5,86.2,105.5L86.2,105.5z"/>
	<path class="st1" d="M72.7,87.3h-0.2c-0.7-0.1-1.3-0.5-1.7-1L70.5,86v0c-0.8-1-0.7-2.4,0.3-3.3c0.9-0.8,2.4-0.8,3.3,0.1l0.4,0.3v0
		c0.5,0.4,0.7,1.1,0.7,1.7c0,0.6-0.2,1.3-0.7,1.7C74,87,73.3,87.3,72.7,87.3L72.7,87.3z"/>
	<path class="st1" d="M77.7,114c-2.2,0-4.3-0.8-5.9-2.4l-0.8-0.8c-0.5-0.5-0.8-1.1-0.7-1.8c0-0.6,0.2-1.2,0.7-1.7l4.2-4.3h0
		c0.9-0.9,2.4-0.9,3.4,0c0.9,0.9,0.9,2.4,0,3.4l-2.4,2.4c0.5,0.3,1,0.4,1.6,0.4c0.9,0,1.8-0.4,2.4-1c0.7-0.7,1.1-1.6,1.1-2.6
		c0-1-0.4-1.9-1.1-2.6c-0.7-1-0.6-2.3,0.3-3.2c0.9-0.8,2.3-0.8,3.2,0c1.6,1.6,2.5,3.7,2.5,6c0,2.2-0.9,4.4-2.5,6
		C82.1,113.2,79.9,114,77.7,114L77.7,114z"/>
	<path class="st1" d="M63.8,86.3c-0.6,0-1.1-0.2-1.5-0.5c-0.9-0.7-1.1-1.9-0.6-2.9c0.1-0.2,0.2-0.3,0.3-0.5l0.2-0.2l0.4-0.4
		c0.4-0.4,1.1-0.7,1.7-0.7c0.6,0,1.3,0.3,1.7,0.7c0.5,0.5,0.7,1.2,0.7,1.9c0,0.7-0.4,1.3-0.9,1.8l-0.5,0.5v0
		C64.8,86.1,64.3,86.3,63.8,86.3L63.8,86.3z M63.7,83.8v0.1V83.8z M63.5,83.5L62.3,82L63.5,83.5z"/>
	<path class="st1" d="M64.3,102.9c-0.6,0-1.2-0.2-1.6-0.7c-0.5-0.4-0.7-1.1-0.7-1.7c0-0.6,0.2-1.3,0.7-1.7l4.2-4.3l0.2-0.2
		c0.9-0.9,2.4-0.9,3.4,0c0.9,0.9,0.9,2.4,0,3.4l-4.4,4.5C65.5,102.6,64.9,102.8,64.3,102.9L64.3,102.9z"/>
	<path class="st1" d="M59.2,105.4c-2.2,0-4.3-0.8-5.9-2.4c-1.6-1.6-2.4-3.7-2.4-6s0.9-4.4,2.4-6l8.7-8.8l0.3-0.2l0.6-0.5
		c1.6-1.1,3.6-1.7,5.6-1.5c2,0.2,3.8,1,5.2,2.4l0.5,0.5c0.1,0.2,0.3,0.4,0.4,0.6c1,1.4,1.5,3.1,1.5,4.8c0,1.7-0.5,3.4-1.5,4.8
		c-0.3,0.4-0.6,0.7-0.9,1.1l-3,3l-0.3,0.3l-5.2,5.3c-0.1,0.2-0.4,0.4-0.6,0.6C63,104.7,61.2,105.4,59.2,105.4L59.2,105.4z
		 M65.4,85.7l-8.7,8.8c-1.4,1.4-1.4,3.7,0,5.2c1.3,1.3,3.4,1.4,4.8,0.2l0.2-0.3l5-5.1l0.2-0.2l0.3-0.3l3-3c0.1-0.2,0.3-0.3,0.4-0.5
		c0.9-1.3,0.9-2.9,0-4.2l-0.4-0.5c-1.2-1.2-3.1-1.4-4.5-0.4L65.4,85.7z"/>
	<path class="st1" d="M63.1,103.9c-0.5,0-1.1-0.2-1.5-0.5c-1-0.8-1.2-2.1-0.5-3.2c0.1-0.2,0.3-0.4,0.5-0.6l5-5.1l0.2-0.2
		c0.9-0.9,2.4-0.9,3.4,0c0.9,0.9,0.9,2.4,0,3.4l-5.5,5.6C64.4,103.7,63.8,103.9,63.1,103.9L63.1,103.9z"/>
	<path class="st1" d="M67.6,114c-2.2,0-4.4-0.9-5.9-2.5c-1.5-1.5-2.3-3.5-2.4-5.6c-0.1-2.1,0.7-4.2,2-5.8l0.3-0.3l5.4-5.5
		c0.2-0.2,0.4-0.3,0.5-0.5c1.6-1.3,3.6-1.9,5.6-1.8c2,0.1,4,1,5.4,2.5c1.6,1.6,2.5,3.7,2.5,6c0,2.2-0.9,4.4-2.5,6l-5.1,5.2
		C72,113.2,69.8,114,67.6,114L67.6,114z M64.8,103.4L64.8,103.4c-1.1,1.4-1,3.5,0.3,4.8c0.7,0.7,1.6,1.1,2.5,1.1
		c0.9,0,1.8-0.4,2.5-1l5.1-5.1c0.7-0.7,1.1-1.6,1.1-2.6c0-1-0.4-1.9-1.1-2.6c-1.3-1.3-3.4-1.4-4.8-0.3l-5.5,5.6L64.8,103.4z"/>
	<path class="st1" d="M63.1,103.9c-0.5,0-1.1-0.2-1.5-0.5c-1-0.8-1.2-2.1-0.5-3.2c0.1-0.2,0.3-0.4,0.5-0.6l5-5.1l0.2-0.2
		c0.9-0.9,2.4-0.9,3.4,0c0.9,0.9,0.9,2.4,0,3.4l-5.5,5.6C64.4,103.7,63.8,103.9,63.1,103.9L63.1,103.9z"/>
	<path class="st1" d="M50.8,96.9c-2.2,0-4.3-0.8-5.9-2.4c-1.6-1.6-2.4-3.7-2.4-6c0-2.2,0.9-4.4,2.4-6l8.5-8.7l0,0
		c1.5-1.5,3.5-2.4,5.6-2.4c2.1-0.1,4.2,0.7,5.8,2.1c0.1,0.1,0.3,0.2,0.4,0.4c0.2,0.2,0.4,0.5,0.6,0.7c1.2,1.5,1.8,3.4,1.8,5.3
		c0,1.9-0.7,3.8-2,5.3l-0.2,0.2l-8.9,8.9C55.1,96,53,96.9,50.8,96.9L50.8,96.9z M59.4,76.2L59.4,76.2c-1,0-1.9,0.4-2.5,1.1l-8.6,8.7
		v0c-1.4,1.4-1.4,3.7,0,5.1c0.7,0.7,1.6,1.1,2.5,1.1c1,0,1.9-0.4,2.5-1.1l8.7-8.8h0c1.1-1.4,1.1-3.4,0-4.8c-0.1-0.1-0.2-0.2-0.3-0.3
		l-0.1-0.1C61,76.6,60.2,76.2,59.4,76.2L59.4,76.2z M61.9,77.3H62H61.9z"/>
	<path class="st1" d="M42.4,88.4c-2.2,0-4.3-0.8-5.9-2.4c-1.6-1.6-2.4-3.7-2.4-6c0-2.2,0.9-4.4,2.4-6l5-5.1c1.6-1.6,3.7-2.4,5.9-2.4
		c0.7,0,1.3,0.1,2,0.3c0.6,0.1,1.3,0.4,1.8,0.7c0.8,0.4,1.5,0.9,2.1,1.5c1.6,1.6,2.4,3.7,2.4,6c0,2.2-0.9,4.4-2.4,6l-5.1,5.2
		c-1.5,1.5-3.6,2.4-5.8,2.4L42.4,88.4z M47.5,71.1c-0.9,0-1.9,0.4-2.5,1l-5,5.1c-1.4,1.5-1.4,3.8,0,5.2c0.7,0.7,1.6,1,2.5,1
		c0.9,0,1.8-0.4,2.5-1l5.1-5.1c1.4-1.4,1.4-3.8,0-5.2c-0.3-0.3-0.6-0.5-0.9-0.7c-0.2-0.1-0.4-0.2-0.7-0.3
		C48.1,71.2,47.8,71.1,47.5,71.1L47.5,71.1z"/>
</g>
<g>
	<g>
		<path class="st2" d="M72.3,86.1c9.4,0,18.5-3.7,25.1-10.4c6.7-6.7,10.4-15.7,10.4-25.1s-3.7-18.5-10.4-25.1
			C90.8,18.7,81.8,15,72.3,15s-18.5,3.7-25.1,10.4c-6.7,6.7-10.4,15.7-10.4,25.1c0,9.4,3.8,18.5,10.4,25.1S62.9,86.1,72.3,86.1z
			 M72.3,19.4c8.2,0,16.2,3.3,22,9.1c5.8,5.8,9.1,13.7,9.1,22s-3.3,16.2-9.1,22c-5.8,5.8-13.7,9.1-22,9.1s-16.2-3.3-22-9.1
			c-5.8-5.8-9.1-13.7-9.1-22c0-8.2,3.3-16.2,9.1-22C56.2,22.7,64.1,19.4,72.3,19.4z"/>
		<path class="st2" d="M127.9,93.4l-18.5-18.5c5.9-9,8.4-19.8,6.9-30.4c-1.4-10.6-6.7-20.4-14.8-27.5C93.5,9.9,83.1,6,72.3,6
			S51.2,9.9,43.1,17C35,24.1,29.8,33.8,28.3,44.5c-1.4,10.6,1,21.5,6.9,30.4L16.8,93.4c-0.6,0.6-0.8,1.6-0.5,2.4
			c0.3,0.8,1.2,1.4,2.1,1.4h22.9v22.6c0,0.9,0.5,1.7,1.4,2.1c0.8,0.3,1.8,0.2,2.4-0.5l26.4-26.4c0.3,0,0.6,0,0.9,0s0.6,0,0.9,0
			l26.4,26.4c0.6,0.6,1.6,0.8,2.4,0.5c0.8-0.3,1.4-1.2,1.4-2.1V97.2h22.9c0.9,0,1.7-0.5,2.1-1.4C128.7,95,128.6,94,127.9,93.4
			L127.9,93.4z M72.3,10.5c10.6,0,20.8,4.2,28.3,11.7c7.5,7.5,11.7,17.7,11.7,28.3s-4.2,20.8-11.7,28.3
			c-7.5,7.5-17.7,11.7-28.3,11.7s-20.8-4.2-28.3-11.7c-7.5-7.5-11.7-17.7-11.7-28.3c0-10.6,4.2-20.8,11.7-28.3S61.7,10.5,72.3,10.5
			L72.3,10.5z M45.7,114.4V95c0-0.6-0.2-1.2-0.7-1.6s-1-0.7-1.6-0.7H23.7l14.2-14.2c7,8.6,16.9,14.2,27.8,15.9L45.7,114.4z
			 M101.2,92.7c-1.2,0-2.2,1-2.2,2.2v19.4l-20-20v0c10.9-1.6,20.8-7.3,27.8-15.9L121,92.7L101.2,92.7z"/>
		<path class="st2" d="M68.5,64.3c0.4,0.4,1,0.7,1.6,0.7c0.1,0,0.2,0,0.2,0c0.7-0.1,1.3-0.4,1.6-1l15.6-24.4c0.7-1,0.4-2.4-0.7-3.1
			s-2.4-0.4-3.1,0.7L69.7,59.2l-9.1-9.1c-0.9-0.8-2.3-0.8-3.1,0c-0.9,0.9-0.9,2.2,0,3.1L68.5,64.3z"/>
	</g>
</g>
</svg>
