<?xml version="1.0" encoding="utf-8"?>
<!-- Generator: Adobe Illustrator 26.0.2, SVG Export Plug-In . SVG Version: 6.00 Build 0)  -->
<svg version="1.1" id="Layer_1" xmlns="http://www.w3.org/2000/svg" xmlns:xlink="http://www.w3.org/1999/xlink" x="0px" y="0px"
	 viewBox="0 0 587 527" style="enable-background:new 0 0 587 527;" xml:space="preserve">
<style type="text/css">
	.st0{fill:#824733;}
</style>
<g>
	<path class="st0" d="M559.3,478.6h-42.8l0-128.2c0-8.5-6.9-15.5-15.5-15.5h-74.9c-8.5,0-15.5,6.9-15.5,15.5v128.2h-60.6v-228
		c0-8.5-6.9-15.5-15.5-15.5h-74.9c-8.5,0-15.5,6.9-15.5,15.5v228h-60.6V150.7c0-8.5-6.9-15.5-15.5-15.5H93.5
		c-8.5,0-15.5,6.9-15.5,15.5v327.9H35.2c-8.5,0-15.5,6.9-15.5,15.5c0,8.5,6.9,15.5,15.5,15.5h524.2c8.5,0,15.5-6.9,15.5-15.5
		C574.8,485.5,567.9,478.6,559.3,478.6z M108.9,478.6V166.2h43.9v312.4L108.9,478.6L108.9,478.6z M275.3,478.6V266h43.9v212.5H275.3
		z M441.7,478.6V365.9h43.9v112.7H441.7z"/>
	<path class="st0" d="M94.5,41.8L489.1,252h-46.2c-8.5,0-15.5,6.9-15.5,15.5c0,8.5,6.9,15.5,15.5,15.5H551c2.7,0,5.5-0.7,8-2.2
		c7.3-4.4,9.7-13.9,5.3-21.2l-54.1-89.9c-4.4-7.3-13.9-9.7-21.2-5.3c-7.3,4.4-9.7,13.9-5.3,21.2l25.3,42L109,14.5
		c-7.6-4-16.9-1.2-20.9,6.4C84.1,28.4,86.9,37.8,94.5,41.8L94.5,41.8z"/>
</g>
</svg>
