<?xml version="1.0" encoding="utf-8"?>
<!-- Generator: Adobe Illustrator 26.0.2, SVG Export Plug-In . SVG Version: 6.00 Build 0)  -->
<svg version="1.1" id="Layer_1" xmlns="http://www.w3.org/2000/svg" xmlns:xlink="http://www.w3.org/1999/xlink" x="0px" y="0px"
	 viewBox="0 0 453 514" style="enable-background:new 0 0 453 514;" xml:space="preserve">
<style type="text/css">
	.st0{fill:#255E5A;}
</style>
<path class="st0" d="M224,17.8c-71.9,0-142.6,28-178.1,57.6c-1.3,1.1-2.2,2.7-2.5,4.4l-28,190.4c0,0.4,0,0.7,0,1.1
	c0,82.7,32.7,125.1,74.6,153.3c41.8,28.2,91.7,43.6,129.5,75.9c2.6,2.2,6.5,2.2,9.1,0c37.8-32.4,87.7-47.8,129.5-75.9
	s74.6-70.6,74.6-153.3c0-0.3,0-0.7,0-1.1l-28-190.4c-0.2-1.7-1.1-3.3-2.5-4.4C366.6,45.8,295.9,17.8,224,17.8L224,17.8z M224,31.8
	c67.1,0,134.8,27.2,167.1,53.2l27.5,186.9v0.4c-0.3,78.4-29,114.3-68.2,140.7c-38,25.6-86.5,41.4-126.4,73.7
	c-39.9-32.3-88.4-48.1-126.4-73.7c-39.2-26.4-68-62.3-68.2-140.7v-0.4L56.9,85C89.2,59,156.9,31.8,224,31.8L224,31.8z M284.2,96.2
	c-2.5,0.5-4.5,2.3-5.2,4.7c-10.2,29.9-47.8,53.7-84.3,79.1c-18.3,12.7-36.1,26-49.7,41.5s-23.1,33.7-23.1,55.3
	c0,23.3,6.6,43.2,19.1,58.1c-0.4,0.3-0.7,0.6-1.1,0.9c-13.5,11.4-24.5,26-29.1,45.9c-0.4,1.8-0.1,3.7,0.9,5.3c1,1.6,2.6,2.7,4.4,3.1
	c3.8,0.9,7.5-1.5,8.4-5.2c3.8-16.6,12.5-28,24.5-38.1c0.7-0.6,1.4-1,2.1-1.6c18.9,15.3,45.7,22.8,78.6,22.8c32,0,59.2-17,78-41.5
	s29.8-56.5,29.8-88.7c0-46.9-12.8-104.1-46.7-139.3C289,96.5,286.6,95.7,284.2,96.2L284.2,96.2z M286.3,116
	c25.2,31.7,37.1,80.7,37.1,121.6c0,29.1-10,58.5-26.8,80.3c-16.8,21.8-39.9,35.9-67,35.9c-28.7,0-51-6.2-66.5-17.3
	c9-6,19-11.9,29.4-18c32.4-19,68.5-43.2,83.1-95.9c0.7-2.3,0.2-4.8-1.5-6.7c-1.6-1.8-4-2.7-6.4-2.3c-2.8,0.4-5.1,2.5-5.8,5.2
	c-13.4,48.1-44.5,68.7-76.5,87.5c-11.3,6.7-22.7,13-33.2,20.1c-10.7-12.2-16.4-28.4-16.4-49.7c0-17.6,7.4-32.3,19.6-46.2
	c12.2-13.9,29.2-26.5,47.2-39C235,169.1,270,147,286.3,116L286.3,116z"/>
</svg>
