<?xml version="1.0" encoding="utf-8"?>
<!-- Generator: Adobe Illustrator 26.0.2, SVG Export Plug-In . SVG Version: 6.00 Build 0)  -->
<svg version="1.1" id="Layer_1" xmlns="http://www.w3.org/2000/svg" xmlns:xlink="http://www.w3.org/1999/xlink" x="0px" y="0px"
	 viewBox="0 0 508 506" style="enable-background:new 0 0 508 506;" xml:space="preserve">
<style type="text/css">
	.st0{fill:#BC8757;}
</style>
<path class="st0" d="M254,113c-75.6,0-137,61.5-137,137.1s61.5,137,137,137s137.1-61.5,137.1-137S329.6,113,254,113z M254,372.2
	c-67.3,0-122.1-54.8-122.1-122.1c0-67.4,54.8-122.1,122.1-122.1S376.2,182.7,376.2,250S321.4,372.2,254,372.2z M497.1,250.8
	c-0.9-2.6-3.1-4.5-5.8-5l-35-6.3c-0.6-10-2-19.8-4.1-29.5l31.9-15.6c2.5-1.2,4.1-3.7,4.2-6.4c0.4-10-2.9-23.5-9-37
	s-14-24.9-21.8-31.2c-2.1-1.7-5-2.2-7.6-1.1l-32.9,13.6c-5.9-8-12.4-15.6-19.4-22.6l18.5-30.4c1.4-2.4,1.4-5.3,0-7.7
	c-5.1-8.6-15.1-18.2-27.5-26.2S363.5,32,353.5,30.9c-2.7-0.3-5.4,0.9-7,3.2l-20.2,29.2c-9.6-3.7-19.5-6.6-29.6-8.8l-1.1-35.5
	c-0.1-2.8-1.7-5.2-4.1-6.4c-9-4.4-22.6-7-37.4-7c-14.8,0-28.4,2.5-37.4,7c-2.5,1.2-4.1,3.7-4.1,6.4l-1.1,35.5
	c-9.7,2.1-19.3,4.9-28.6,8.4l-20.1-29.3c-1.6-2.3-4.2-3.5-7-3.2c-9.9,1.1-22.8,6.3-35.2,14.3c-12.4,8-22.5,17.5-27.7,26.1
	c-1.4,2.4-1.4,5.3,0,7.7l18.3,30.5c-7.1,7-13.6,14.5-19.5,22.5l-32.8-13.8c-2.5-1.1-5.4-0.7-7.6,1.1c-7.8,6.3-15.8,17.6-21.9,31.1
	c-6.2,13.5-9.5,26.9-9.2,36.9c0.1,2.8,1.7,5.2,4.1,6.4l31.8,15.8c-2.1,9.7-3.5,19.6-4.2,29.5l-35.1,6.1c-2.7,0.5-4.9,2.4-5.8,5
	c-3.1,9.5-3.8,23.4-1.7,38c2.1,14.6,6.5,27.8,12.2,36c1.6,2.3,4.2,3.5,7,3.2l35.3-3.9c3.4,9.3,7.6,18.4,12.4,27.1L50,374
	c-2,1.9-2.9,4.7-2.2,7.3c2.5,9.7,9.5,21.7,19.1,32.9c9.7,11.2,20.5,19.8,29.7,23.7c2.5,1.1,5.4,0.7,7.6-1.1l27.6-22.4
	c7.9,6,16.3,11.4,25,16.2l-9,34.4c-0.7,2.7,0.1,5.5,2.1,7.4c7.3,6.8,19.7,13.1,33.9,17.3c14.2,4.2,28,5.6,37.8,3.9
	c2.7-0.5,4.9-2.4,5.8-5l11.1-33.8c9.9,0.8,19.9,0.8,29.8,0.1l11,33.8c0.9,2.6,3.1,4.6,5.8,5c2.8,0.5,6,0.8,9.4,0.8
	c8.4,0,18.3-1.5,28.5-4.5c14.2-4.1,26.6-10.4,33.9-17.2c2-1.9,2.9-4.7,2.2-7.3l-8.9-34.4c8.7-4.7,17.2-10.1,25.1-16.1l27.5,22.5
	c2.1,1.7,5,2.2,7.6,1.1c9.2-3.8,20.1-12.4,29.9-23.6c9.7-11.1,16.8-23.1,19.3-32.8c0.7-2.7-0.1-5.5-2.1-7.4l-26.1-24.2
	c4.8-8.7,9-17.8,12.5-27.1l35.3,4.1c2.8,0.3,5.4-0.9,7-3.1c5.7-8.2,10.2-21.3,12.4-36C500.8,274.2,500.2,260.3,497.1,250.8
	L497.1,250.8z M483.9,286.6c-1.5,10.1-4.3,19.4-7.7,25.9l-36.4-4.2c-3.5-0.4-6.8,1.7-7.9,5c-4.2,12.2-9.6,24-16.2,35.2
	c-1.8,3-1.2,6.9,1.3,9.3l26.9,24.9c-2.7,6.8-8,15-14.7,22.7c-6.7,7.7-14.1,14.1-20.5,17.7l-28.4-23.3c-2.7-2.2-6.6-2.3-9.4-0.1
	c-10.1,8-21.1,15.1-32.7,20.9c-3.1,1.6-4.7,5.1-3.9,8.5l9.1,35.5c-6,4.2-14.8,8.3-24.7,11.1c-9.8,2.9-19.5,4.2-26.8,3.8l-11.3-34.9
	c-1.1-3.3-4.4-5.5-7.8-5.1c-12.8,1.3-25.9,1.3-38.8-0.1c-3.5-0.3-6.8,1.8-7.9,5.1l-11.5,34.8c-7.3,0.3-16.9-1.1-26.8-4
	c-9.8-2.9-18.7-7-24.6-11.2l9.3-35.5c0.9-3.4-0.7-6.9-3.8-8.5c-11.5-5.8-22.4-12.9-32.5-21.1c-2.7-2.2-6.6-2.2-9.4,0l-28.5,23.1
	c-6.3-3.7-13.7-10-20.4-17.8c-6.7-7.8-11.9-15.9-14.6-22.8l27-24.8c2.6-2.4,3.2-6.2,1.4-9.3c-6.6-11.2-12-23-16.1-35.3
	c-1.1-3.3-4.4-5.4-7.9-5l-36.4,4c-3.4-6.5-6.1-15.8-7.5-26c-1.4-10.1-1.4-19.9,0-27l36.2-6.3c3.5-0.6,6-3.5,6.2-7
	c0.5-13,2.4-25.9,5.5-38.4c0.9-3.4-0.8-6.9-3.9-8.5l-32.8-16.3c0.7-7.3,3.4-16.6,7.7-25.9c4.3-9.3,9.5-17.5,14.6-22.8l33.8,14.2
	c3.2,1.4,7,0.3,9-2.6c7.4-10.6,16-20.4,25.4-29.3c2.6-2.4,3.1-6.3,1.3-9.3l-18.9-31.5c4.5-5.8,11.9-12.1,20.5-17.7
	c8.6-5.5,17.5-9.6,24.6-11.3l20.7,30.2c2,2.9,5.7,4,9,2.7c12-4.9,24.5-8.6,37.2-10.9c3.5-0.6,6-3.6,6.1-7.1l1.1-36.7
	c6.9-2.4,16.5-3.8,26.8-3.8c10.2,0,19.9,1.4,26.8,3.8l1.1,36.7c0.1,3.5,2.7,6.5,6.1,7.1c13,2.4,25.9,6.2,38.1,11.3
	c3.2,1.4,7,0.3,9-2.6l20.9-30.1c7.1,1.8,15.9,5.8,24.5,11.4c8.6,5.6,15.9,12,20.4,17.8l-19,31.4c-1.8,3-1.3,6.9,1.2,9.3
	c9.4,8.9,17.9,18.8,25.2,29.4c2,2.9,5.7,4,9,2.6l33.9-14.1c5,5.3,10.3,13.5,14.5,22.8c4.2,9.3,6.9,18.7,7.6,26l-32.9,16.1
	c-3.1,1.5-4.8,5.1-4,8.5c3.1,12.5,4.9,25.4,5.3,38.4c0.1,3.5,2.7,6.5,6.1,7.1l36.1,6.5C485.4,266.8,485.3,276.5,483.9,286.6
	L483.9,286.6z M332,219.9h-47.9V172c0-4.1-3.3-7.5-7.5-7.5h-45.4c-4.1,0-7.5,3.3-7.5,7.5v47.9H176c-4.1,0-7.5,3.3-7.5,7.5v45.4
	c0,4.1,3.3,7.5,7.5,7.5h47.9V328c0,4.1,3.3,7.5,7.5,7.5h45.4c4.1,0,7.5-3.3,7.5-7.5v-47.9H332c4.1,0,7.5-3.3,7.5-7.5v-45.4
	C339.5,223.2,336.1,219.9,332,219.9z M324.6,265.2h-47.9c-4.1,0-7.5,3.3-7.5,7.5v47.9h-30.5v-47.9c0-4.1-3.3-7.5-7.5-7.5h-47.9
	v-30.5h47.9c4.1,0,7.5-3.3,7.5-7.5v-47.9h30.5v47.9c0,4.1,3.3,7.5,7.5,7.5h47.9L324.6,265.2z"/>
</svg>
