<?xml version="1.0" encoding="UTF-8"?>
<svg width="700pt" height="700pt" version="1.1" viewBox="0 0 700 700" xmlns="http://www.w3.org/2000/svg" xmlns:xlink="http://www.w3.org/1999/xlink">
 <defs>
  <symbol id="n" overflow="visible">
   <path d="m29.312-1.75c-1.5117 0.78125-3.0898 1.3711-4.7344 1.7656-1.6367 0.40625-3.3398 0.60938-5.1094 0.60938-5.3125 0-9.5273-1.4844-12.641-4.4531-3.1055-2.9688-4.6562-7-4.6562-12.094s1.5508-9.125 4.6562-12.094c3.1133-2.9688 7.3281-4.4531 12.641-4.4531 1.7695 0 3.4727 0.19922 5.1094 0.59375 1.6445 0.39844 3.2227 0.99219 4.7344 1.7812v6.5938c-1.5312-1.0391-3.0391-1.8008-4.5156-2.2812-1.4805-0.48828-3.0391-0.73438-4.6719-0.73438-2.9375 0-5.2461 0.94531-6.9219 2.8281-1.6797 1.875-2.5156 4.4648-2.5156 7.7656 0 3.293 0.83594 5.8828 2.5156 7.7656 1.6758 1.875 3.9844 2.8125 6.9219 2.8125 1.6328 0 3.1914-0.23828 4.6719-0.71875 1.4766-0.48828 2.9844-1.2539 4.5156-2.2969z"/>
  </symbol>
  <symbol id="h" overflow="visible">
   <path d="m21.453-17.406c-0.67969-0.3125-1.3516-0.53906-2.0156-0.6875-0.65625-0.15625-1.3203-0.23438-1.9844-0.23438-1.9688 0-3.4844 0.63281-4.5469 1.8906-1.0547 1.2617-1.5781 3.0703-1.5781 5.4219v11.016h-7.6562v-23.922h7.6562v3.9219c0.97656-1.5625 2.1016-2.7031 3.375-3.4219 1.2812-0.71875 2.8125-1.0781 4.5938-1.0781 0.25 0 0.52344 0.011719 0.82812 0.03125 0.30078 0.023438 0.73438 0.070312 1.2969 0.14062z"/>
  </symbol>
  <symbol id="a" overflow="visible">
   <path d="m27.562-12.031v2.1875h-17.891c0.1875 1.793 0.83203 3.1367 1.9375 4.0312 1.1133 0.89844 2.6719 1.3438 4.6719 1.3438 1.6016 0 3.25-0.23438 4.9375-0.70312 1.6875-0.47656 3.4219-1.2031 5.2031-2.1719v5.8906c-1.8047 0.6875-3.6094 1.2031-5.4219 1.5469-1.8125 0.35156-3.6211 0.53125-5.4219 0.53125-4.3359 0-7.7031-1.0977-10.109-3.2969-2.3984-2.207-3.5938-5.2969-3.5938-9.2656 0-3.9062 1.1758-6.9727 3.5312-9.2031 2.3633-2.2383 5.6094-3.3594 9.7344-3.3594 3.7578 0 6.7695 1.1367 9.0312 3.4062 2.2578 2.2617 3.3906 5.2812 3.3906 9.0625zm-7.8594-2.5312c0-1.457-0.42969-2.6289-1.2812-3.5156-0.84375-0.89453-1.9492-1.3438-3.3125-1.3438-1.4922 0-2.6992 0.41797-3.625 1.25-0.91797 0.83594-1.4922 2.0391-1.7188 3.6094z"/>
  </symbol>
  <symbol id="g" overflow="visible">
   <path d="m14.391-10.766c-1.5938 0-2.793 0.27344-3.5938 0.8125-0.80469 0.54297-1.2031 1.3398-1.2031 2.3906 0 0.96875 0.32031 1.7305 0.96875 2.2812 0.64453 0.54297 1.5469 0.8125 2.7031 0.8125 1.4375 0 2.6445-0.51562 3.625-1.5469 0.98828-1.0312 1.4844-2.3203 1.4844-3.875v-0.875zm11.688-2.8906v13.656h-7.7031v-3.5469c-1.0312 1.4492-2.1875 2.5078-3.4688 3.1719s-2.8398 1-4.6719 1c-2.4805 0-4.4961-0.72266-6.0469-2.1719-1.543-1.4453-2.3125-3.3203-2.3125-5.625 0-2.8125 0.96094-4.8672 2.8906-6.1719 1.9375-1.3125 4.9688-1.9688 9.0938-1.9688h4.5156v-0.60938c0-1.207-0.48047-2.0938-1.4375-2.6562-0.94922-0.5625-2.4375-0.84375-4.4688-0.84375-1.6367 0-3.1562 0.16797-4.5625 0.5-1.4062 0.32422-2.7188 0.8125-3.9375 1.4688v-5.8281c1.6445-0.40625 3.2891-0.70703 4.9375-0.90625 1.6562-0.20703 3.3047-0.3125 4.9531-0.3125 4.3203 0 7.4375 0.85547 9.3438 2.5625 1.9141 1.6992 2.875 4.4609 2.875 8.2812z"/>
  </symbol>
  <symbol id="b" overflow="visible">
   <path d="m12.031-30.719v6.7969h7.875v5.4688h-7.875v10.141c0 1.1172 0.21875 1.8711 0.65625 2.2656 0.4375 0.38672 1.3125 0.57812 2.625 0.57812h3.9375v5.4688h-6.5625c-3.0234 0-5.1641-0.62891-6.4219-1.8906-1.2617-1.2578-1.8906-3.3984-1.8906-6.4219v-10.141h-3.7969v-5.4688h3.7969v-6.7969z"/>
  </symbol>
  <symbol id="f" overflow="visible">
   <path d="m19.953-20.422v-12.812h7.6875v33.234h-7.6875v-3.4531c-1.0547 1.4062-2.2148 2.4375-3.4844 3.0938-1.2734 0.65625-2.7422 0.98438-4.4062 0.98438-2.9492 0-5.3711-1.1719-7.2656-3.5156-1.8867-2.3438-2.8281-5.3594-2.8281-9.0469s0.94141-6.7031 2.8281-9.0469c1.8945-2.3438 4.3164-3.5156 7.2656-3.5156 1.6562 0 3.1172 0.33594 4.3906 1 1.2812 0.65625 2.4453 1.6836 3.5 3.0781zm-5.0469 15.484c1.6445 0 2.8945-0.59766 3.75-1.7969 0.86328-1.1953 1.2969-2.9297 1.2969-5.2031 0-2.2812-0.43359-4.0195-1.2969-5.2188-0.85547-1.1953-2.1055-1.7969-3.75-1.7969-1.625 0-2.8711 0.60156-3.7344 1.7969-0.85547 1.1992-1.2812 2.9375-1.2812 5.2188 0 2.2734 0.42578 4.0078 1.2812 5.2031 0.86328 1.1992 2.1094 1.7969 3.7344 1.7969z"/>
  </symbol>
  <symbol id="e" overflow="visible">
   <path d="m16.406-4.9375c1.6328 0 2.8828-0.59766 3.75-1.7969 0.86328-1.1953 1.2969-2.9297 1.2969-5.2031 0-2.2812-0.43359-4.0195-1.2969-5.2188-0.86719-1.1953-2.1172-1.7969-3.75-1.7969-1.6367 0-2.8906 0.60547-3.7656 1.8125-0.875 1.1992-1.3125 2.9336-1.3125 5.2031 0 2.2617 0.4375 3.9961 1.3125 5.2031 0.875 1.1992 2.1289 1.7969 3.7656 1.7969zm-5.0781-15.484c1.0508-1.3945 2.2188-2.4219 3.5-3.0781 1.2812-0.66406 2.7539-1 4.4219-1 2.9453 0 5.3672 1.1719 7.2656 3.5156 1.8945 2.3438 2.8438 5.3594 2.8438 9.0469s-0.94922 6.7031-2.8438 9.0469c-1.8984 2.3438-4.3203 3.5156-7.2656 3.5156-1.668 0-3.1406-0.33594-4.4219-1s-2.4492-1.6914-3.5-3.0781v3.4531h-7.6562v-33.234h7.6562z"/>
  </symbol>
  <symbol id="d" overflow="visible">
   <path d="m0.53125-23.922h7.6562l6.4219 16.234 5.4688-16.234h7.6562l-10.062 26.188c-1.0117 2.6641-2.1953 4.5234-3.5469 5.5781-1.3438 1.0625-3.1211 1.5938-5.3281 1.5938h-4.4219v-5.0156h2.3906c1.3008 0 2.2422-0.21094 2.8281-0.625 0.59375-0.40625 1.0547-1.1484 1.3906-2.2188l0.20312-0.65625z"/>
  </symbol>
  <symbol id="c" overflow="visible">
   <path d="m4.0156-31.891h8.2188v31.891h-8.2188z"/>
  </symbol>
  <symbol id="m" overflow="visible">
   <path d="m23-23.172v6.2344c-1.0312-0.71875-2.0742-1.2422-3.125-1.5781-1.043-0.34375-2.125-0.51562-3.25-0.51562-2.1367 0-3.8047 0.625-5 1.875-1.1875 1.2422-1.7812 2.9805-1.7812 5.2188 0 2.2305 0.59375 3.9688 1.7812 5.2188 1.1953 1.25 2.8633 1.875 5 1.875 1.1953 0 2.332-0.17578 3.4062-0.53125 1.0703-0.36328 2.0625-0.89453 2.9688-1.5938v6.2656c-1.1875 0.4375-2.4023 0.76562-3.6406 0.98438-1.2305 0.22656-2.4648 0.34375-3.7031 0.34375-4.3125 0-7.6875-1.1094-10.125-3.3281s-3.6562-5.2969-3.6562-9.2344c0-3.9453 1.2188-7.0234 3.6562-9.2344 2.4375-2.2188 5.8125-3.3281 10.125-3.3281 1.25 0 2.4844 0.10938 3.7031 0.32812s2.4297 0.55469 3.6406 1z"/>
  </symbol>
  <symbol id="l" overflow="visible">
   <path d="m15.062-19.031c-1.6992 0-2.9961 0.60938-3.8906 1.8281-0.88672 1.2188-1.3281 2.9766-1.3281 5.2656 0 2.293 0.44141 4.0469 1.3281 5.2656 0.89453 1.2188 2.1914 1.8281 3.8906 1.8281 1.6641 0 2.9375-0.60938 3.8125-1.8281 0.88281-1.2188 1.3281-2.9727 1.3281-5.2656 0-2.2891-0.44531-4.0469-1.3281-5.2656-0.875-1.2188-2.1484-1.8281-3.8125-1.8281zm0-5.4688c4.1133 0 7.3281 1.1094 9.6406 3.3281s3.4688 5.2969 3.4688 9.2344c0 3.9297-1.1562 7.0078-3.4688 9.2344-2.3125 2.2188-5.5273 3.3281-9.6406 3.3281-4.1367 0-7.3711-1.1094-9.7031-3.3281-2.3242-2.2266-3.4844-5.3047-3.4844-9.2344 0-3.9375 1.1602-7.0156 3.4844-9.2344 2.332-2.2188 5.5664-3.3281 9.7031-3.3281z"/>
  </symbol>
  <symbol id="k" overflow="visible">
   <path d="m27.734-14.562v14.562h-7.7031v-11.156c0-2.0625-0.046875-3.4844-0.14062-4.2656-0.085937-0.78125-0.24219-1.3594-0.46875-1.7344-0.30469-0.5-0.71094-0.88281-1.2188-1.1562-0.51172-0.28125-1.0938-0.42188-1.75-0.42188-1.5938 0-2.8516 0.61719-3.7656 1.8438-0.90625 1.2305-1.3594 2.9375-1.3594 5.125v11.766h-7.6562v-23.922h7.6562v3.5c1.1445-1.3945 2.3633-2.4219 3.6562-3.0781 1.3008-0.66406 2.7383-1 4.3125-1 2.7578 0 4.8516 0.85156 6.2812 2.5469 1.4375 1.6875 2.1562 4.1523 2.1562 7.3906z"/>
  </symbol>
  <symbol id="j" overflow="visible">
   <path d="m26.219-30.891v6.75c-1.7617-0.78125-3.4766-1.3672-5.1406-1.7656-1.668-0.40625-3.2422-0.60938-4.7188-0.60938-1.9609 0-3.4141 0.27344-4.3594 0.8125-0.9375 0.54297-1.4062 1.3867-1.4062 2.5312 0 0.85547 0.31641 1.5234 0.95312 2 0.63281 0.46875 1.7852 0.875 3.4531 1.2188l3.5 0.70312c3.5391 0.71875 6.0625 1.8047 7.5625 3.25 1.5 1.4492 2.25 3.5117 2.25 6.1875 0 3.5234-1.0469 6.1406-3.1406 7.8594-2.0859 1.7188-5.2734 2.5781-9.5625 2.5781-2.0234 0-4.0547-0.19531-6.0938-0.57812-2.0312-0.38281-4.0625-0.95703-6.0938-1.7188v-6.9375c2.0312 1.0859 3.9922 1.9023 5.8906 2.4531 1.9062 0.54297 3.7422 0.8125 5.5156 0.8125 1.7891 0 3.1602-0.29688 4.1094-0.89062 0.95703-0.60156 1.4375-1.457 1.4375-2.5625 0-1-0.32422-1.7695-0.96875-2.3125-0.64844-0.53906-1.9375-1.0234-3.875-1.4531l-3.1875-0.70312c-3.1875-0.6875-5.5234-1.7734-7-3.2656-1.4688-1.5-2.2031-3.5156-2.2031-6.0469 0-3.1758 1.0234-5.6172 3.0781-7.3281 2.0508-1.707 5-2.5625 8.8438-2.5625 1.75 0 3.5508 0.13281 5.4062 0.39062 1.8516 0.26172 3.7695 0.65625 5.75 1.1875z"/>
  </symbol>
  <symbol id="i" overflow="visible">
   <path d="m1.5312-23.922h7.4375l4.0156 16.484 4.0469-16.484h6.375l4.0156 16.312 4.0469-16.312h7.4375l-6.3125 23.922h-8.3438l-4.0469-16.453-4.0156 16.453h-8.3438z"/>
  </symbol>
 </defs>
 <g>
  <path d="m430.59 401.01c-8.1016 0.0625-15.902-3.082-21.699-8.75l-3.1484-3.1484-61.863-63.09c-3.4062-3.4297-3.3867-8.9727 0.042969-12.379 3.4336-3.4062 8.9766-3.3867 12.383 0.042969l61.25 62.125c0.25391 0.21094 0.48828 0.44531 0.69922 0.69922l3.0625 3.0625c2.6055 2.6328 6.1875 4.0586 9.8867 3.9375 3.7383-0.17969 7.2148-1.9648 9.5391-4.8984 2.0039-2.8438 2.9297-6.3086 2.6094-9.7734-0.32031-3.4648-1.8672-6.7031-4.3594-9.1289l-51.801-52.5-1.0508-0.875-11.375-11.551v0.003906c-3.3906-3.4141-3.3906-8.9258 0-12.34 1.6445-1.6562 3.8789-2.5859 6.2148-2.5859 2.332 0 4.5664 0.92969 6.2109 2.5859l0.78906 0.875 9.7109 9.8867 1.0508 0.875 52.5 53.461v0.003906c5.5156 5.5039 8.8398 12.828 9.3555 20.602 0.51562 7.7773-1.8164 15.477-6.5547 21.66-5.4688 6.7539-13.551 10.859-22.227 11.289z"/>
  <path d="m347.46 362.69c-2.3672 0.015625-4.6406-0.93359-6.2969-2.625-4.4258-4.5117-11.473-5.1445-16.625-1.4883l-0.96094 0.61328h-0.003906c-3.4062 3.0625-8.5977 2.9805-11.906-0.1875-3.3047-3.1719-3.6094-8.3555-0.69141-11.887 4.1602-5.0938 4.1602-12.41 0-17.5-0.29297-0.375-0.61328-0.72656-0.96484-1.0508l-0.4375-0.4375c-5.1562-4.7031-13.102-4.5078-18.023 0.4375l-12.512 12.688c-1.5742 1.8633-3.8516 2.9844-6.2891 3.0938-2.4336 0.11328-4.8047-0.79688-6.5391-2.5078-1.7383-1.7109-2.6797-4.0703-2.6016-6.5078 0.074219-2.4336 1.1641-4.7305 3.0039-6.3281 5.2266-5.2852 5.2266-13.789 0-19.074-0.96094-1-2.0859-1.8281-3.3242-2.4492-0.80078-0.43359-1.6523-0.75781-2.5391-0.96484-4.5078-1.2969-9.3633 0.019531-12.602 3.4141l-15.488 15.75h0.003906c-1.6484 1.6836-3.9023 2.6328-6.2578 2.6328s-4.6094-0.94922-6.2578-2.6328l-61.25-62.301c-3.3906-3.4141-3.3906-8.9258 0-12.336l92.488-93.539c1.6445-1.6562 3.8789-2.5898 6.2148-2.5898 2.332 0 4.5664 0.93359 6.2109 2.5898l27.824 28.176h58.363c3.5547-0.019531 6.7695 2.1094 8.1328 5.3945 1.3633 3.2812 0.60547 7.0625-1.9219 9.5664l-30.977 31.5-0.78906 0.69922-41.738 42.438h0.003907c5.2578 3.2734 11.312 5.0273 17.5 5.0781 9.3242-0.0625 18.238-3.8438 24.766-10.5l37.012-37.539c4.9258-4.9766 11.633-7.7812 18.637-7.7891 7.0039 0.007812 13.711 2.8125 18.637 7.7891l18.551 18.812c3.4062 3.4297 3.3867 8.9727-0.042969 12.383-3.4336 3.4062-8.9766 3.3867-12.383-0.046874l-18.637-18.898c-1.6289-1.6172-3.8281-2.5273-6.125-2.5391-2.2969 0.011718-4.4961 0.92187-6.125 2.5391l-37.102 37.625c-9.7305 9.7812-22.953 15.289-36.75 15.312-13.938-0.035156-27.277-5.6797-37.012-15.664-3.3906-3.4102-3.3906-8.9219 0-12.336l49.262-50.051 0.69922-0.69922 15.664-15.926h-41.301c-2.3242 0.015625-4.5586-0.89844-6.2109-2.5352l-24.148-24.5-80.5 81.727 49.176 49.789 9.3633-9.4492-0.003906-0.003907c5.7695-5.707 13.586-8.8594 21.699-8.75 2.4844-0.003906 4.9531 0.31641 7.3516 0.96094 2.3555 0.47656 4.625 1.3047 6.7383 2.4492 2.8203 1.4844 5.3867 3.4062 7.6133 5.6875 3.5508 3.6016 6.1641 8.0156 7.6094 12.863 5.5625-2.9766 11.902-4.1719 18.164-3.4219s12.141 3.4141 16.836 7.6211c0.53516 0.42578 1.0352 0.89062 1.4883 1.4023 0.85156 0.84375 1.6406 1.75 2.3633 2.7109 4.3867 5.5117 6.707 12.383 6.5625 19.426 8.2734-0.003906 16.195 3.3438 21.961 9.2734 3.3945 3.4141 3.3945 8.9258 0 12.34-1.7773 1.6289-4.1523 2.4531-6.5625 2.2734zm-37.012-33.863h0.4375z"/>
  <path d="m473.9 328.65c-2.3359-0.007813-4.5742-0.95313-6.2109-2.625l-80.5-81.637c-1.6289-1.6172-3.8281-2.5273-6.125-2.5352-2.2969 0.007813-4.4961 0.91797-6.125 2.5352l-37.102 37.625c-9.8086 9.9531-23.211 15.535-37.188 15.488-13.938-0.035156-27.277-5.6797-37.012-15.664-3.3906-3.4102-3.3906-8.9219 0-12.336l79.977-81.023c1.6172-1.8438 3.9336-2.9258 6.3867-2.9766h58.188l28-28c1.6445-1.6562 3.8789-2.5898 6.2109-2.5898 2.3359 0 4.5703 0.93359 6.2148 2.5898l92.836 93.887c3.3945 3.4141 3.3945 8.9258 0 12.34l-61.25 62.301v-0.003906c-1.6367 1.6719-3.875 2.6172-6.2109 2.625zm-92.836-104.3c7.0039 0.003907 13.711 2.8086 18.637 7.7852l74.199 75.25 49.086-49.789-80.586-81.637-24.148 24.5c-1.6523 1.6406-3.8867 2.5508-6.2109 2.5391h-58.102l-71.137 72.102c5.2539 3.2695 11.309 5.0273 17.5 5.0742 9.3242-0.0625 18.234-3.8438 24.762-10.5l37.012-37.539c5.0117-5.0625 11.863-7.875 18.988-7.7852z"/>
  <path d="m269.76 284.64c-3.5547 0.019531-6.7695-2.1094-8.1328-5.3945-1.3633-3.2812-0.60156-7.0625 1.9219-9.5664l49.262-50.051c2.0586-2.1055 5.0391-3.0312 7.9297-2.4688 2.8906 0.5625 5.3047 2.543 6.4219 5.2695 1.3672 3.2578 0.64453 7.0195-1.8398 9.5352l-49.352 50.051h0.003906c-1.6367 1.6719-3.875 2.6172-6.2148 2.625z"/>
  <path d="m319.11 234.59c-3.5547 0.023437-6.7695-2.1094-8.1328-5.3945-1.3633-3.2812-0.60547-7.0625 1.918-9.5664l30.977-31.5c1.6367-1.6719 3.875-2.6172 6.2109-2.625 2.3203 0 4.5469 0.92188 6.1875 2.5625 1.6406 1.6406 2.5625 3.8672 2.5625 6.1875 0.015624 2.3242-0.89844 4.5625-2.5352 6.2109l-31.062 31.414c-1.6016 1.6797-3.8047 2.6562-6.125 2.7109z"/>
  <path d="m392.52 308.79c-2.3242 0.011719-4.5586-0.90234-6.2109-2.5391l-11.375-11.551c-3.3945-3.4102-3.3945-8.9258 0-12.336 1.6367-1.6719 3.875-2.6172 6.2109-2.625 2.3281-0.015625 4.5625 0.89844 6.2148 2.5352l11.461 11.637v0.003906c2.4609 2.5078 3.1797 6.25 1.8281 9.4961-1.3555 3.2461-4.5234 5.3633-8.0391 5.3789z"/>
  <path d="m269.76 284.64c-3.5547 0.019531-6.7695-2.1094-8.1328-5.3945-1.3633-3.2812-0.60156-7.0625 1.9219-9.5664l49.262-50.051c2.0586-2.1055 5.0391-3.0312 7.9297-2.4688 2.8906 0.5625 5.3047 2.543 6.4219 5.2695 1.3672 3.2578 0.64453 7.0195-1.8398 9.5352l-49.352 50.051h0.003906c-1.6367 1.6719-3.875 2.6172-6.2148 2.625z"/>
  <path d="m319.11 234.59c-3.5547 0.023437-6.7695-2.1094-8.1328-5.3945-1.3633-3.2812-0.60547-7.0625 1.918-9.5664l30.977-31.5c1.6562-1.6914 3.9297-2.6406 6.3008-2.625 2.3516 0.03125 4.5898 1.0117 6.2109 2.7109 3.3945 3.4141 3.3945 8.9258 0 12.34l-31.062 31.414v-0.003906c-1.6367 1.6719-3.875 2.6172-6.2109 2.625z"/>
  <path d="m317.36 361.9c-2.0469 0.003906-4.0273-0.70703-5.6016-2.0117-3.168-2.625-4.082-7.1055-2.1875-10.762 0.35156-0.57422 0.73047-1.1289 1.1367-1.6641l0.78906-0.875 1.4883-1.5742c1.6523-1.6367 3.8867-2.5508 6.2109-2.5352 2.3828 0.007813 4.6562 0.98828 6.3008 2.7109 1.7109 1.8477 2.5938 4.3125 2.4492 6.8242-0.11328 2.5391-1.3281 4.9023-3.3242 6.4766l-2.0117 1.6641v-0.003906c-1.5312 1.1055-3.3633 1.7148-5.25 1.75zm-0.4375-9.2734v0.4375zm-0.78906-1.0508-4.1133-5.3359z"/>
  <path d="m350 365.4h-0.875c-2.6133-0.21875-4.9883-1.6016-6.4766-3.7617l-0.61328-0.875h0.003906c-2.9023-3.6094-2.4844-8.8555 0.94922-11.965 3.4336-3.1094 8.6914-3.0039 12 0.24219l1.3125 1.2266v-0.003906c1.7031 1.6211 2.6797 3.8633 2.7109 6.2148 0.039062 2.3555-0.87891 4.625-2.5352 6.2969-1.7344 1.6875-4.0586 2.6289-6.4766 2.625z"/>
  <path d="m319.2 422.8c-2.2539-0.007812-4.4141-0.88672-6.0352-2.4492-1.7031-1.625-2.6797-3.8633-2.7148-6.2148-0.058594-2.3438 0.82422-4.6133 2.4492-6.3008l15.488-15.75 0.875-0.875c3.4062-3.4297 8.9492-3.4492 12.383-0.042969 3.4297 3.4062 3.4492 8.9492 0.042969 12.383l-16.273 16.449c-1.6094 1.7344-3.8516 2.7461-6.2148 2.8008z"/>
  <path d="m392.52 308.79c-2.3242 0.011719-4.5586-0.90234-6.2109-2.5391l-11.375-11.551c-3.3945-3.4102-3.3945-8.9258 0-12.336 1.6367-1.6719 3.875-2.6172 6.2109-2.625 2.3281-0.015625 4.5625 0.89844 6.2148 2.5352l11.461 11.637v0.003906c2.4609 2.5078 3.1797 6.25 1.8281 9.4961-1.3555 3.2461-4.5234 5.3633-8.0391 5.3789z"/>
  <path d="m392.52 308.79c-2.3242 0.011719-4.5586-0.90234-6.2109-2.5391l-11.375-11.551c-3.3945-3.4102-3.3945-8.9258 0-12.336 1.6367-1.6719 3.875-2.6172 6.2109-2.625 2.3281-0.015625 4.5625 0.89844 6.2148 2.5352l11.461 11.637v0.003906c2.4609 2.5078 3.1797 6.25 1.8281 9.4961-1.3555 3.2461-4.5234 5.3633-8.0391 5.3789z"/>
  <path d="m551.25 282.8c-2.3398-0.011719-4.5742-0.95703-6.2109-2.625l-122.94-124.86c-3.3359-3.4023-3.3359-8.8477 0-12.25l43.75-44.188c1.6406-1.6562 3.8789-2.5898 6.2109-2.5898s4.5703 0.93359 6.2109 2.5898l122.94 124.86c3.3359 3.4023 3.3359 8.8477 0 12.25l-43.75 44.188c-1.6367 1.668-3.8711 2.6133-6.2109 2.625zm-110.69-133.61 110.69 112.44 31.238-31.762-110.6-112.44z"/>
  <path d="m269.76 284.64c-3.5547 0.019531-6.7695-2.1094-8.1328-5.3945-1.3633-3.2812-0.60156-7.0625 1.9219-9.5664l49.262-50.051c2.0586-2.1055 5.0391-3.0312 7.9297-2.4688 2.8906 0.5625 5.3047 2.543 6.4219 5.2695 1.3672 3.2578 0.64453 7.0195-1.8398 9.5352l-49.352 50.051h0.003906c-1.6367 1.6719-3.875 2.6172-6.2148 2.625z"/>
  <path d="m317.36 361.9c-2.0469 0.003906-4.0273-0.70703-5.6016-2.0117-3.168-2.625-4.082-7.1055-2.1875-10.762 0.35156-0.57422 0.73047-1.1289 1.1367-1.6641l0.78906-0.875 1.4883-1.5742c1.6523-1.6367 3.8867-2.5508 6.2109-2.5352 2.3828 0.007813 4.6562 0.98828 6.3008 2.7109 1.7109 1.8477 2.5938 4.3125 2.4492 6.8242-0.11328 2.5391-1.3281 4.9023-3.3242 6.4766l-2.0117 1.6641v-0.003906c-1.5312 1.1055-3.3633 1.7148-5.25 1.75zm-0.4375-9.2734v0.4375zm-0.78906-1.0508-4.1133-5.3359z"/>
  <path d="m350 365.57h-0.875c-2.5977-0.26562-4.9375-1.6758-6.3867-3.8477l-0.69922-0.96094v-0.003906c-2.9023-3.6094-2.4844-8.8555 0.94922-11.965 3.4336-3.1094 8.6914-3.0039 12 0.24219l1.3125 1.2266v-0.003906c1.7031 1.6211 2.6797 3.8633 2.7109 6.2148 0.039062 2.3555-0.87891 4.625-2.5352 6.2969-1.6719 1.8008-4.0195 2.8164-6.4766 2.8008z"/>
  <path d="m148.75 282.8c-2.3398-0.011719-4.5742-0.95703-6.2109-2.625l-43.75-43.926c-3.3359-3.4023-3.3359-8.8477 0-12.25l123.2-125.12c1.6367-1.6719 3.875-2.6172 6.2109-2.625 2.3398 0.007812 4.5781 0.95312 6.2148 2.625l43.75 44.188c3.332 3.4023 3.332 8.8477 0 12.25l-123.38 124.69c-1.5664 1.6914-3.7344 2.6992-6.0391 2.8008zm-31.5-52.938 31.5 31.762 110.69-112.44-31.238-31.762z"/>
  <path d="m461.48 369.6c-8.0625 0.10938-15.828-3.0469-21.527-8.75l-65.012-65.887v-0.003906c-3.4062-3.4297-3.3867-8.9727 0.042969-12.379 3.4336-3.4062 8.9766-3.3867 12.383 0.042969l65.012 65.977c2.4258 2.457 5.7344 3.8398 9.1875 3.8477 3.4805-0.003907 6.8164-1.3867 9.2734-3.8477 5.1445-5.3516 5.1445-13.812 0-19.164l-64.926-65.801h0.003906c-3.4102-3.4297-3.3906-8.9727 0.042969-12.379 3.4297-3.4102 8.9727-3.3906 12.379 0.042969l64.926 65.887c5.75 5.8281 8.9727 13.688 8.9727 21.875s-3.2227 16.047-8.9727 21.875c-5.8047 5.6953-13.656 8.8203-21.785 8.6641z"/>
  <path d="m392.52 308.79c-2.3242 0.011719-4.5586-0.90234-6.2109-2.5391l-11.375-11.551c-3.3945-3.4102-3.3945-8.9258 0-12.336 1.6367-1.6719 3.875-2.6172 6.2109-2.625 2.3281-0.015625 4.5625 0.89844 6.2148 2.5352l11.461 11.637v0.003906c2.4609 2.5078 3.1797 6.25 1.8281 9.4961-1.3555 3.2461-4.5234 5.3633-8.0391 5.3789z"/>
  <path d="m399.61 432.34c-8.1094 0.082031-15.914-3.0664-21.699-8.75l-18.637-18.898h-0.003906c-3.4062-3.4297-3.3867-8.9727 0.046874-12.383 3.4297-3.4062 8.9727-3.3867 12.379 0.046874l18.637 18.898c2.4609 2.4609 5.7969 3.8477 9.2773 3.8516 3.4805-0.003906 6.8164-1.3906 9.2734-3.8516 5.1445-5.3516 5.1445-13.812 0-19.164l-2.4492-2.3633-0.69922-0.69922-61.863-63c-3.4062-3.4297-3.3867-8.9727 0.042969-12.379 3.4336-3.4062 8.9766-3.3867 12.383 0.042969l61.25 62.125c0.25391 0.21094 0.48828 0.44531 0.69922 0.69922l3.0625 3.0625c5.7305 5.8398 8.9375 13.695 8.9375 21.875 0 8.1797-3.207 16.035-8.9375 21.875-5.7188 5.8125-13.547 9.0625-21.699 9.0117z"/>
  <path d="m350 365.57h-0.875c-2.5977-0.26562-4.9375-1.6758-6.3867-3.8477l-0.69922-0.96094v-0.003906c-2.9023-3.6094-2.4844-8.8555 0.94922-11.965 3.4336-3.1094 8.6914-3.0039 12 0.24219l1.3125 1.2266v-0.003906c1.7031 1.6211 2.6797 3.8633 2.7109 6.2148 0.039062 2.3555-0.87891 4.625-2.5352 6.2969-1.6719 1.8008-4.0195 2.8164-6.4766 2.8008z"/>
  <path d="m368.64 463.75c-8.1172 0.14062-15.949-3.0195-21.699-8.75l-2.9766-2.9766c-1.8125-1.7266-2.8008-4.1445-2.7109-6.6484-0.011719-2.3242 0.89844-4.5625 2.5391-6.2109l15.488-15.75h-0.003906c3.4102-3.4336 8.9531-3.4531 12.383-0.046874 3.4297 3.4102 3.4492 8.9531 0.042969 12.383l-8.75 8.75c1.8047 0.96094 3.8164 1.4727 5.8633 1.4883 3.3047-0.10156 6.4414-1.4844 8.75-3.8516 2.5312-2.5273 3.957-5.957 3.957-9.5352 0-3.5781-1.4258-7.0117-3.957-9.5391-2.6641-3.5898-2.1992-8.6094 1.082-11.641 3.2812-3.0352 8.3242-3.1094 11.691-0.17188 5.793 5.8086 9.0469 13.672 9.0469 21.875s-3.2539 16.066-9.0469 21.875c-5.7461 5.7422-13.578 8.8984-21.699 8.75z"/>
  <path d="m317.36 361.9c-2.0469 0.003906-4.0273-0.70703-5.6016-2.0117-3.168-2.625-4.082-7.1055-2.1875-10.762 0.35156-0.57422 0.73047-1.1289 1.1367-1.6641l0.78906-0.875 1.4883-1.5742c1.6523-1.6367 3.8867-2.5508 6.2109-2.5352 2.3828 0.007813 4.6562 0.98828 6.3008 2.7109 1.7109 1.8477 2.5938 4.3125 2.4492 6.8242-0.11328 2.5391-1.3281 4.9023-3.3242 6.4766l-2.0117 1.6641v-0.003906c-1.5312 1.1055-3.3633 1.7148-5.25 1.75zm-0.4375-9.2734v0.4375zm-0.78906-1.0508-4.1133-5.3359z"/>
  <path d="m319.2 422.8c-2.2539-0.007812-4.4141-0.88672-6.0352-2.4492-1.7031-1.625-2.6797-3.8633-2.7148-6.2148-0.058594-2.3438 0.82422-4.6133 2.4492-6.3008l15.488-15.75 0.875-0.875c3.4062-3.4297 8.9492-3.4492 12.383-0.042969 3.4297 3.4062 3.4492 8.9492 0.042969 12.383l-16.273 16.449c-1.6094 1.7344-3.8516 2.7461-6.2148 2.8008z"/>
  <path d="m300.56 432.25c-8.082 0.074219-15.859-3.0742-21.613-8.75-5.7266-5.8398-8.9375-13.695-8.9375-21.875s3.2109-16.035 8.9375-21.875l32.113-32.461 0.96094-0.875 2.1875-1.75c5.9297-4.2031 13.16-6.168 20.402-5.543 7.2422 0.625 14.027 3.7969 19.148 8.9531l1.75 1.9258c0.53906 0.67188 1.0352 1.3711 1.4883 2.1016 3.6719 5.1758 5.6445 11.367 5.6445 17.719 0 6.3477-1.9727 12.539-5.6445 17.719-0.98438 1.4102-2.0977 2.7266-3.3242 3.9375l-11.199 11.023-1.2266 1.0508-18.988 19.336c-0.54297 0.87109-1.2969 1.5938-2.1875 2.1016-5.4766 4.5859-12.367 7.1523-19.512 7.2617zm22.664-72.625-31.852 32.289c-5.1797 5.3008-5.1797 13.77 0 19.074 4.7383 4.75 12.312 5.1289 17.5 0.875l0.875-0.96094 18.551-18.812 0.875-0.875 1.0508-0.96094 11.023-11.117c0.54297-0.57031 1.0391-1.1875 1.4883-1.8359 3.2734-4.6133 3.2734-10.789 0-15.402l-1.4883-1.8359c-4.5156-4.4375-11.562-4.9883-16.711-1.3125z"/>
  <path d="m315 426.74c-1.9961-0.039062-3.9258-0.71094-5.5117-1.9258-3.5234-2.8242-4.3203-7.8672-1.8398-11.637 0.53125-0.82422 1.1484-1.5859 1.8398-2.2773l18.551-18.812 0.875-0.875c3.4062-3.4297 8.9492-3.4492 12.379-0.042969 3.4336 3.4062 3.4531 8.9492 0.042969 12.383l-20.125 20.562c-1.6367 1.668-3.8711 2.6133-6.2109 2.625z"/>
  <path d="m331.45 463.75c-8.1836 0.023438-16.02-3.293-21.699-9.1875-5.4531-5.5547-8.6211-12.949-8.8789-20.727-0.26172-7.7773 2.4102-15.371 7.4805-21.273l1.1367-1.0508 19.773-20.125c0.625-0.63672 1.2969-1.2188 2.0117-1.75 5.8789-4.6562 13.277-6.9688 20.762-6.4844s14.523 3.7305 19.754 9.1094c5.7891 5.8086 9.043 13.676 9.043 21.875 0 8.2031-3.2539 16.07-9.043 21.875l-18.641 18.988c-5.7461 5.7422-13.578 8.8984-21.699 8.75zm-10.414-39.023h0.003906c-4.043 5.3125-3.5195 12.801 1.2227 17.5 2.4141 2.4883 5.7227 3.9062 9.1875 3.9375 3.457 0.011719 6.7734-1.3789 9.1875-3.8516l18.637-18.898c2.5273-2.5156 3.9492-5.9297 3.9492-9.4961 0-3.5625-1.4219-6.9805-3.9492-9.4922-4.6562-4.9023-12.328-5.3242-17.5-0.96484l-20.301 20.648z"/>
  <path d="m315 426.74c-1.9961-0.039062-3.9258-0.71094-5.5117-1.9258-3.5234-2.8242-4.3203-7.8672-1.8398-11.637 0.53125-0.82422 1.1484-1.5859 1.8398-2.2773l18.551-18.812 0.875-0.875c3.4062-3.4297 8.9492-3.4492 12.379-0.042969 3.4336 3.4062 3.4531 8.9492 0.042969 12.383l-20.125 20.562c-1.6367 1.668-3.8711 2.6133-6.2109 2.625z"/>
  <path d="m269.68 401.01c-8.1133 0.10938-15.934-3.043-21.699-8.75-5.75-5.8281-8.9766-13.688-8.9766-21.875s3.2266-16.047 8.9766-21.875l31.414-31.852-0.003906 0.003906c5.5352-5.4961 12.945-8.6875 20.742-8.9336 7.7969-0.24219 15.391 2.4805 21.258 7.6211 0.53516 0.42188 1.0352 0.89063 1.4883 1.3984 0.85156 0.84766 1.6406 1.7539 2.3633 2.7109 4.3633 5.6055 6.6719 12.535 6.543 19.637-0.125 7.1016-2.6836 13.945-7.2422 19.391l-0.61328 0.78906-32.551 32.637c-5.7695 5.707-13.586 8.8594-21.699 8.75zm31.414-76.301h-0.003906c-3.4922 0.027343-6.8281 1.4453-9.2734 3.9375l-31.5 32.023v0.003906c-5.0234 5.2969-5.0234 13.602 0 18.898 2.4336 2.5117 5.7773 3.9336 9.2734 3.9375 3.4961-0.003907 6.8438-1.4258 9.2773-3.9375l31.852-32.199h-0.003906c4.1641-5.0898 4.1641-12.41 0-17.5-0.28906-0.375-0.61328-0.72656-0.96094-1.0508l-0.4375-0.4375c-2.2031-2.1836-5.1289-3.4883-8.2266-3.6758zm16.449 28.176m-7.0859-24.062h0.4375z"/>
  <path d="m238.79 369.6c-8.1094 0.078126-15.918-3.0703-21.703-8.75-5.7266-5.8398-8.9375-13.695-8.9375-21.875 0-8.1836 3.2109-16.035 8.9375-21.875l18.551-18.812c5.7695-5.707 13.586-8.8594 21.699-8.75 2.4844-0.003906 4.9531 0.31641 7.3516 0.96094 2.3555 0.47656 4.625 1.3047 6.7383 2.4492 2.8203 1.4844 5.3867 3.4062 7.6133 5.6875 5.7266 5.8398 8.9375 13.695 8.9375 21.875 0 8.1797-3.2109 16.035-8.9375 21.875l-18.727 19.074c-5.6875 5.668-13.41 8.8203-21.438 8.75zm18.547-63.352c-3.4766 0.003906-6.8125 1.3867-9.2734 3.8516l-18.551 18.812c-5.1445 5.3516-5.1445 13.809 0 19.16 2.4609 2.4648 5.7969 3.8477 9.2773 3.8516 3.4531-0.007812 6.7578-1.3945 9.1875-3.8516l18.637-18.898c5.2266-5.2852 5.2266-13.793 0-19.074-0.96094-1-2.0859-1.832-3.3242-2.4531-0.80078-0.43359-1.6523-0.75781-2.5391-0.96094-1.1094-0.32031-2.2578-0.46875-3.4141-0.4375z"/>
  <use x="70" y="691.25" xlink:href="#n"/>
  <use x="102.109375" y="691.25" xlink:href="#h"/>
  <use x="123.683594" y="691.25" xlink:href="#a"/>
  <use x="153.355469" y="691.25" xlink:href="#g"/>
  <use x="182.878906" y="691.25" xlink:href="#b"/>
  <use x="203.792969" y="691.25" xlink:href="#a"/>
  <use x="233.464844" y="691.25" xlink:href="#f"/>
  <use x="280.011719" y="691.25" xlink:href="#e"/>
  <use x="311.328125" y="691.25" xlink:href="#d"/>
  <use x="355.078125" y="691.25" xlink:href="#c"/>
  <use x="371.359375" y="691.25" xlink:href="#m"/>
  <use x="397.292969" y="691.25" xlink:href="#l"/>
  <use x="427.347656" y="691.25" xlink:href="#k"/>
  <use x="458.496094" y="691.25" xlink:href="#j"/>
  <use x="490.003906" y="691.25" xlink:href="#i"/>
  <use x="530.421875" y="691.25" xlink:href="#a"/>
  <use x="560.09375" y="691.25" xlink:href="#a"/>
  <use x="589.765625" y="691.25" xlink:href="#b"/>
 </g>
</svg>
