<?xml version="1.0" encoding="utf-8"?>
<!-- Generator: Adobe Illustrator 26.0.2, SVG Export Plug-In . SVG Version: 6.00 Build 0)  -->
<svg version="1.1" id="Layer_1" xmlns="http://www.w3.org/2000/svg" xmlns:xlink="http://www.w3.org/1999/xlink" x="0px" y="0px"
	 viewBox="0 0 700 700" style="enable-background:new 0 0 700 700;" xml:space="preserve">
<style type="text/css">
	.st0{fill:#BC8757;}
</style>
<g>
	<path class="st0" d="M435.7,365.7c-4.2,0-7.6-3.4-7.6-7.6l-0.1-24c-13.6-2.9-26.7-8.3-38.4-15.7l-16.9,17.1
		c-1.4,1.5-3.4,2.3-5.4,2.3c-2,0-4-0.8-5.4-2.2l-25.1-24.8c-1.5-1.4-2.3-3.4-2.3-5.4c0-2,0.8-4,2.2-5.4l16.9-17.1
		c-7.6-11.7-13-24.7-16.1-38.3l-24,0.1h0c-2,0-3.9-0.8-5.4-2.2c-1.5-1.4-2.3-3.4-2.3-5.4l-0.1-35.3c0-4.2,3.4-7.6,7.6-7.7l24-0.1
		c2.9-13.6,8.3-26.7,15.7-38.4L336,138.7c-1.5-1.4-2.3-3.4-2.3-5.4c0-2,0.8-4,2.2-5.4l24.8-25.1c3-3,7.8-3,10.8,0l17.1,16.9
		c11.7-7.6,24.7-13,38.3-16.1l-0.1-24c0-4.2,3.4-7.6,7.6-7.7l35.3-0.1h0c2,0,3.9,0.8,5.4,2.2c1.5,1.4,2.3,3.4,2.3,5.4l0.1,24
		c13.6,2.9,26.7,8.3,38.4,15.7l16.9-17.1c1.4-1.5,3.4-2.3,5.4-2.3h0c2,0,3.9,0.8,5.4,2.2l25.1,24.8c3,3,3,7.8,0,10.8l-16.9,17.1
		c7.6,11.7,13,24.7,16.1,38.3l24-0.1c2,0,4,0.8,5.4,2.2c1.5,1.4,2.3,3.4,2.3,5.4l0.1,35.3c0,4.2-3.4,7.6-7.6,7.7l-24,0.1
		c-2.9,13.6-8.3,26.7-15.7,38.4l17.1,16.9c1.5,1.4,2.3,3.4,2.3,5.4c0,2-0.8,4-2.2,5.4l-24.8,25.1c-1.4,1.5-3.4,2.3-5.4,2.3h0
		c-2,0-3.9-0.8-5.4-2.2l-17.1-16.9c-11.7,7.6-24.7,13-38.3,16.1l0.1,24c0,2-0.8,4-2.2,5.4s-3.4,2.3-5.4,2.3L435.7,365.7L435.7,365.7
		L435.7,365.7z M388.6,300.9c1.6,0,3.1,0.5,4.4,1.4c12.9,9.3,28,15.5,43.7,17.9c3.7,0.6,6.4,3.7,6.5,7.5l0.1,22.7l20-0.1l-0.1-22.7
		c0-3.7,2.7-6.9,6.4-7.6c15.6-2.6,30.7-8.9,43.6-18.3c3-2.2,7.2-1.9,9.9,0.7l16.1,16l14.1-14.2l-16.1-16c-2.7-2.7-3-6.8-0.8-9.9
		c9.3-12.9,15.5-28,17.9-43.7c0.6-3.7,3.7-6.4,7.5-6.5l22.7-0.1l-0.1-20l-22.7,0.1h0c-3.7,0-6.9-2.7-7.5-6.4
		c-2.6-15.6-8.9-30.7-18.3-43.6c-2.2-3-1.9-7.2,0.7-9.9l16-16.1l-14.2-14.1l-16,16.1c-2.7,2.7-6.8,3-9.9,0.8
		c-12.9-9.3-28-15.5-43.7-17.9c-3.7-0.6-6.4-3.7-6.5-7.5L462.1,87l-20,0.1l0.1,22.7c0,3.7-2.7,6.9-6.4,7.6
		c-15.6,2.6-30.7,8.9-43.6,18.3c-3,2.2-7.2,1.9-9.9-0.7l-16.1-16l-14.1,14.2l16.1,16c2.7,2.7,3,6.8,0.8,9.9
		c-9.3,12.9-15.5,28-17.9,43.7c-0.6,3.7-3.7,6.4-7.5,6.5l-22.7,0.1l0.1,20l22.7-0.1h0c3.7,0,6.9,2.7,7.5,6.4
		c2.6,15.6,8.9,30.7,18.3,43.6c2.2,3,1.9,7.2-0.7,9.9l-16,16.1l14.2,14.1l16-16.1C384.6,301.6,386.6,300.9,388.6,300.9L388.6,300.9z
		"/>
	<path class="st0" d="M452.7,301.7c-22,0-42.7-8.5-58.4-24c-15.7-15.6-24.5-36.4-24.5-58.5s8.4-43,24-58.8
		c15.6-15.7,36.4-24.5,58.5-24.5h0.4c22,0,42.7,8.5,58.4,24c15.7,15.6,24.5,36.4,24.5,58.5s-8.4,43-24,58.8
		c-15.6,15.7-36.4,24.5-58.5,24.5H452.7L452.7,301.7z M452.7,151.1h-0.3c-37.3,0.2-67.5,30.7-67.3,68c0.2,37.2,30.5,67.3,67.7,67.3
		h0.3c37.3-0.2,67.5-30.7,67.3-68c-0.1-18.1-7.2-35-20-47.7C487.5,158,470.6,151.1,452.7,151.1z"/>
	<path class="st0" d="M460.6,628.2c-1.1,0-2.2-0.3-3.2-0.7c-1.8-0.9-3.3-2.4-4-4.3l-6.4-17.6c-10.8,1.3-21.8,0.8-32.4-1.4l-7.9,16.9
		c-1.8,3.8-6.3,5.5-10.1,3.7l-26.2-12.2c-1.8-0.9-3.3-2.4-4-4.3c-0.7-1.9-0.6-4,0.3-5.9l7.9-16.9c-8.5-6.7-16-14.8-21.9-23.9
		l-17.6,6.4c-1.9,0.7-4,0.6-5.9-0.3c-1.8-0.9-3.3-2.4-4-4.3l-9.9-27.3c-1.5-4,0.6-8.3,4.6-9.8l17.6-6.4c-1.3-10.8-0.8-21.8,1.4-32.4
		l-16.9-7.9c-1.8-0.9-3.3-2.4-4-4.3c-0.7-1.9-0.6-4,0.3-5.9l12.3-26.3c1.8-3.8,6.3-5.5,10.1-3.7l16.9,7.9c6.7-8.5,14.8-16,23.9-21.9
		l-6.4-17.6c-0.7-1.9-0.6-4,0.3-5.9c0.9-1.8,2.4-3.3,4.3-4l27.3-9.9c1.9-0.7,4-0.6,5.9,0.3c1.8,0.9,3.3,2.4,4,4.3l6.4,17.6
		c10.8-1.3,21.8-0.8,32.4,1.4l7.9-16.9c0.9-1.8,2.4-3.3,4.3-4c1.9-0.7,4-0.6,5.9,0.3l26.3,12.3c1.8,0.9,3.3,2.4,4,4.3
		c0.7,1.9,0.6,4-0.3,5.9l-7.9,16.9c8.5,6.7,16,14.8,21.9,23.9l17.6-6.4c4-1.5,8.3,0.6,9.8,4.6l9.9,27.3c0.7,1.9,0.6,4-0.3,5.9
		c-0.9,1.8-2.4,3.3-4.3,4l-17.6,6.4c1.3,10.8,0.8,21.8-1.4,32.4l16.9,7.9c1.8,0.9,3.3,2.4,4,4.3c0.7,1.9,0.6,4-0.3,5.9l-12.3,26.3
		c-1.8,3.8-6.3,5.5-10.1,3.7l-16.9-7.9c-6.7,8.5-14.8,16-23.9,21.9l6.4,17.6c0.7,1.9,0.6,4-0.3,5.9c-0.9,1.8-2.4,3.3-4.3,4
		l-27.3,9.9C462.4,628,461.5,628.2,460.6,628.2L460.6,628.2z M452.1,589.4c3.2,0,6.1,2,7.2,5l5.9,16.3l12.9-4.7l-5.9-16.3
		c-1.3-3.5,0.2-7.5,3.5-9.3c11.2-6.3,21-15.2,28.2-25.8c2.1-3.1,6.1-4.2,9.6-2.6l15.7,7.3l5.8-12.4l-15.7-7.3
		c-3.4-1.6-5.1-5.4-4.1-9c3.5-12.3,4.1-25.6,1.7-38.2c-0.7-3.7,1.4-7.3,4.9-8.6l16.3-5.9l-4.7-12.9l-16.3,5.9
		c-3.5,1.3-7.5-0.2-9.3-3.5c-6.3-11.2-15.2-21-25.8-28.2c-3.1-2.1-4.2-6.1-2.6-9.6l7.3-15.7l-12.4-5.8l-7.3,15.7
		c-1.6,3.4-5.4,5.1-9,4.1c-12.3-3.5-25.6-4.1-38.2-1.7c-3.7,0.7-7.3-1.4-8.6-4.9l-5.9-16.3l-12.9,4.7l5.9,16.3
		c1.3,3.5-0.2,7.5-3.5,9.3c-11.2,6.3-21,15.2-28.2,25.8c-2.1,3.1-6.1,4.2-9.6,2.6l-15.7-7.3l-5.8,12.4l15.7,7.3
		c3.4,1.6,5.1,5.4,4.1,9c-3.5,12.3-4.1,25.6-1.7,38.2c0.7,3.7-1.4,7.3-4.9,8.6l-16.3,5.9l4.7,12.9l16.3-5.9c3.5-1.3,7.5,0.2,9.3,3.5
		c6.3,11.2,15.2,21,25.8,28.2c3.1,2.1,4.2,6.1,2.6,9.6l-7.3,15.7l12.4,5.8l7.3-15.7c1.6-3.4,5.4-5.1,9-4.1
		c12.3,3.5,25.6,4.1,38.2,1.7C451.2,589.5,451.7,589.4,452.1,589.4L452.1,589.4z"/>
	<path class="st0" d="M435.1,567.1c-8.5,0-17-1.9-25-5.6c-29.5-13.8-42.4-49.1-28.6-78.6c6.7-14.3,18.5-25.2,33.4-30.6
		c14.8-5.4,30.9-4.7,45.2,2c29.5,13.8,42.4,49.1,28.6,78.6c-6.7,14.3-18.5,25.2-33.4,30.6C448.7,565.9,441.9,567.1,435.1,567.1z
		 M435.2,464.1c-5.1,0-10.1,0.9-15,2.7c-11,4-19.8,12.1-24.8,22.7c-4.9,10.6-5.5,22.5-1.5,33.5c4,11,12,19.8,22.7,24.8
		c10.6,4.9,22.5,5.5,33.5,1.5s19.8-12.1,24.8-22.7c4.9-10.6,5.5-22.5,1.5-33.5s-12-19.8-22.7-24.8
		C447.8,465.4,441.5,464.1,435.2,464.1L435.2,464.1z"/>
	<path class="st0" d="M202.2,478.3c-2,0-3.9-0.8-5.4-2.2c-1.5-1.4-2.3-3.4-2.3-5.4l-0.1-17.1c-9.7-2.3-19.1-6.1-27.6-11.3l-12,12.1
		c-3,3-7.8,3-10.8,0l-19.3-19.1c-1.5-1.4-2.3-3.4-2.3-5.4c0-2,0.8-4,2.2-5.4l12-12.1c-5.3-8.5-9.2-17.8-11.5-27.5l-17.1,0.1h0
		c-4.2,0-7.6-3.4-7.6-7.6l-0.1-27.2c0-2,0.8-4,2.2-5.4s3.4-2.3,5.4-2.3l17.1-0.1c2.3-9.7,6.1-19.1,11.3-27.6l-12.2-12
		c-1.5-1.4-2.3-3.4-2.3-5.4c0-2,0.8-4,2.2-5.4l19.1-19.3c3-3,7.8-3,10.8,0l12.1,12c8.5-5.3,17.8-9.2,27.5-11.5l-0.1-17.1
		c0-4.2,3.4-7.6,7.6-7.7l27.2-0.1h0c2,0,3.9,0.8,5.4,2.2c1.5,1.4,2.3,3.4,2.3,5.4l0.1,17.1c9.7,2.3,19.1,6.1,27.6,11.3l12-12.1
		c1.4-1.5,3.4-2.3,5.4-2.3h0c2,0,3.9,0.8,5.4,2.2l19.3,19.1c1.5,1.4,2.3,3.4,2.3,5.4c0,2-0.8,4-2.2,5.4l-12,12.1
		c5.3,8.5,9.2,17.8,11.5,27.5l17.1-0.1h0c4.2,0,7.6,3.4,7.6,7.6l0.1,27.2c0,4.2-3.4,7.6-7.6,7.7l-17.1,0.1
		c-2.3,9.7-6.1,19.1-11.3,27.6l12.1,12c1.5,1.4,2.3,3.4,2.3,5.4c0,2-0.8,4-2.2,5.4l-19.1,19.3c-1.4,1.5-3.4,2.3-5.4,2.3
		c-2,0-4-0.8-5.4-2.2l-12.1-12c-8.5,5.3-17.8,9.2-27.5,11.5l0.1,17.1c0,4.2-3.4,7.6-7.6,7.7L202.2,478.3z M165.9,424.9
		c1.6,0,3.1,0.5,4.4,1.4c9.7,7,21.1,11.6,32.9,13.5c3.7,0.6,6.4,3.7,6.5,7.5l0.1,15.7l11.9-0.1l-0.1-15.7c0-3.7,2.7-6.9,6.4-7.6
		c11.8-2,23.1-6.7,32.8-13.8c3-2.2,7.2-1.9,9.9,0.7l11.2,11.1l8.4-8.4l-11.2-11.1c-2.7-2.7-3-6.8-0.8-9.9c7-9.7,11.6-21.1,13.5-32.9
		c0.6-3.7,3.7-6.4,7.5-6.5l15.7-0.1l-0.1-11.9l-15.7,0.1h0c-3.7,0-6.9-2.7-7.5-6.4c-2-11.8-6.7-23.1-13.8-32.8
		c-2.2-3-1.9-7.2,0.7-9.9l11.1-11.2l-8.4-8.4l-11.1,11.2c-2.7,2.7-6.8,3-9.9,0.8c-9.7-7-21.1-11.6-32.9-13.5
		c-3.7-0.6-6.4-3.7-6.5-7.5l-0.1-15.7l-11.9,0.1l0.1,15.7c0,3.7-2.7,6.9-6.4,7.6c-11.8,2-23.1,6.7-32.8,13.8c-3,2.2-7.2,1.9-9.9-0.7
		l-11.2-11.1l-8.4,8.4l11.2,11.1c2.7,2.7,3,6.8,0.8,9.9c-7,9.7-11.6,21.1-13.5,32.9c-0.6,3.7-3.7,6.4-7.5,6.5l-15.7,0.1l0.1,11.9
		l15.7-0.1h0c3.7,0,6.9,2.7,7.5,6.4c2,11.8,6.7,23.1,13.8,32.8c2.2,3,1.9,7.2-0.7,9.9L141,430l8.4,8.4l11.1-11.2
		C161.9,425.7,163.9,424.9,165.9,424.9L165.9,424.9z"/>
	<path class="st0" d="M215.2,419.3c-14.8,0-28.8-5.7-39.3-16.2c-10.6-10.5-16.5-24.5-16.5-39.4c-0.1-14.9,5.7-29,16.2-39.6
		c10.5-10.6,24.5-16.5,39.4-16.5h0.3c14.8,0,28.8,5.7,39.3,16.2c10.6,10.5,16.5,24.5,16.5,39.4c0.1,14.9-5.7,29-16.2,39.6
		c-10.5,10.6-24.5,16.5-39.4,16.5l0-7.6l0,7.6L215.2,419.3L215.2,419.3z M215.3,322.9h-0.2c-10.8,0-21,4.3-28.6,12
		c-7.6,7.7-11.8,17.9-11.7,28.8c0,10.8,4.3,21,12,28.6c7.6,7.6,17.8,11.7,28.5,11.7h0.2c10.8,0,21-4.3,28.6-12
		c7.6-7.7,11.8-17.9,11.7-28.8c0-10.8-4.3-21-12-28.7C236.2,327,226.1,322.9,215.3,322.9L215.3,322.9z"/>
</g>
</svg>
