<?xml version="1.0" encoding="utf-8"?>
<!-- Generator: Adobe Illustrator 26.0.2, SVG Export Plug-In . SVG Version: 6.00 Build 0)  -->
<svg version="1.1" id="Layer_1" xmlns="http://www.w3.org/2000/svg" xmlns:xlink="http://www.w3.org/1999/xlink" x="0px" y="0px"
	 viewBox="0 0 647 647" style="enable-background:new 0 0 647 647;" xml:space="preserve">
<style type="text/css">
	.st0{fill-rule:evenodd;clip-rule:evenodd;fill:#255E5A;}
</style>
<g>
	<path class="st0" d="M208.8,154.4c-5.1-8.8-2.1-20.2,6.8-25.3c8.8-5.1,20.2-2.1,25.3,6.8c5.1,8.8,2.1,20.2-6.8,25.3
		C225.2,166.3,213.9,163.3,208.8,154.4L208.8,154.4z M168.6,226.7c-5.1,8.8-16.4,11.9-25.3,6.8c-8.9-5.1-11.9-16.4-6.8-25.3
		c5.1-8.9,16.4-11.9,25.3-6.8C170.7,206.5,173.7,217.8,168.6,226.7L168.6,226.7z M126.2,334.6c-10.2,0-18.5-8.3-18.5-18.5
		c0-10.2,8.3-18.5,18.5-18.5s18.5,8.3,18.5,18.5S136.4,334.6,126.2,334.6z M168.6,405.5c5.1,8.8,2.1,20.2-6.8,25.3
		c-8.9,5.1-20.2,2.1-25.3-6.8c-5.1-8.8-2.1-20.2,6.8-25.3C152.2,393.6,163.5,396.7,168.6,405.5z M240.8,496.2
		c-5.1,8.9-16.4,11.9-25.3,6.8c-8.8-5.1-11.9-16.4-6.8-25.3c5.1-8.8,16.4-11.9,25.3-6.8C242.9,476.1,246,487.4,240.8,496.2
		L240.8,496.2z M342,513.4c0,10.2-8.3,18.5-18.5,18.5c-10.2,0-18.5-8.3-18.5-18.5c0-10.2,8.3-18.5,18.5-18.5
		C333.7,494.9,342,503.2,342,513.4z M438.2,477.7c5.1,8.9,2.1,20.2-6.8,25.3c-8.8,5.1-20.2,2.1-25.3-6.8c-5.1-8.8-2.1-20.2,6.8-25.3
		C421.7,465.8,433.1,468.9,438.2,477.7L438.2,477.7z M510.4,424c-5.1,8.8-16.4,11.9-25.3,6.8c-8.8-5.1-11.9-16.4-6.8-25.3
		c5.1-8.8,16.4-11.9,25.3-6.8C512.5,403.8,515.5,415.2,510.4,424L510.4,424z M539.3,316.1c0,10.2-8.3,18.5-18.5,18.5
		c-10.2,0-18.5-8.3-18.5-18.5c0-10.2,8.3-18.5,18.5-18.5C531,297.6,539.3,305.9,539.3,316.1z M478.4,226.7
		c-5.1-8.8-2.1-20.2,6.8-25.3c8.9-5.1,20.2-2.1,25.3,6.8c5.1,8.8,2.1,20.2-6.8,25.3C494.8,238.5,483.5,235.5,478.4,226.7
		L478.4,226.7z M438.2,154.4c-5.1,8.9-16.4,11.9-25.3,6.8c-8.8-5.1-11.9-16.4-6.8-25.3c5.1-8.8,16.4-11.9,25.3-6.8
		C440.2,134.3,443.3,145.6,438.2,154.4L438.2,154.4z M305,118.7c0-10.2,8.3-18.5,18.5-18.5c10.2,0,18.5,8.3,18.5,18.5
		s-8.3,18.5-18.5,18.5C313.3,137.2,305,128.9,305,118.7z M355.5,305c-3.4-5.9-10.9-7.9-16.8-4.5l-2.8,1.6l0-127.5
		c0-6.8-5.5-12.3-12.3-12.3c-6.8,0-12.3,5.5-12.3,12.3v141.7l-90.4,52.2c-5.9,3.4-7.9,11-4.5,16.8c2.3,4,6.4,6.2,10.7,6.2
		c2.1,0,4.2-0.5,6.2-1.7l78-45v3.3c0,6.8,5.5,12.3,12.3,12.3c6.8,0,12.3-5.5,12.3-12.3v-17.5l15.1-8.7
		C356.9,318.5,358.9,310.9,355.5,305L355.5,305z M323.5,557.8c129.2,0,234.3-105.1,234.3-234.3c0-129.2-105.1-234.3-234.3-234.3
		S89.2,194.3,89.2,323.5C89.2,452.7,194.3,557.8,323.5,557.8L323.5,557.8z M323.5,64.5c-142.8,0-259,116.2-259,259
		c0,142.8,116.2,259,259,259s259-116.2,259-259C582.5,180.7,466.3,64.5,323.5,64.5z M323.5,610.2c158.1,0,286.8-128.6,286.8-286.8
		S481.6,36.7,323.5,36.7S36.7,165.4,36.7,323.5S165.4,610.2,323.5,610.2z M323.5,12.1c-171.7,0-311.4,139.7-311.4,311.4
		c0,171.7,139.7,311.4,311.4,311.4s311.4-139.7,311.4-311.4S495.2,12.1,323.5,12.1L323.5,12.1z"/>
</g>
</svg>
