<svg id="Layer_1" data-name="Layer 1" xmlns="http://www.w3.org/2000/svg" viewBox="0 0 578.43 136.09"><defs><style>.cls-1{fill:#255e5a;}</style></defs><g id="de"><path class="cls-1" d="M362.93,73.27v5.78h33.28v4H362.93v6c0,9.63,6.83,17.34,15.06,17.34h19.09v5.08H378c-11,0-20-10-20-22.42V73.27C358,61,367,51,378,51h19.09v4.9H378C369.76,55.93,362.93,63.64,362.93,73.27Z" transform="translate(-7.84 -5.23)"/><path class="cls-1" d="M333.23,111.45H314V50.59h19.21a22.66,22.66,0,0,1,22.47,22.8V88.67A22.65,22.65,0,0,1,333.23,111.45Zm-14.1-5.13h14.1a17.53,17.53,0,0,0,17.36-17.65V73.39a17.53,17.53,0,0,0-17.36-17.67h-14.1Z" transform="translate(-7.84 -5.23)"/></g><g id="SOLA"><path class="cls-1" d="M289,93.77v1.75h-.17A5.56,5.56,0,0,0,289,93.77Z" transform="translate(-7.84 -5.23)"/><path class="cls-1" d="M287.61,55.23a23.46,23.46,0,0,0-14.36-4.55c-11.39,0-20.84,7.18-20.84,16.29v44h5.08V81.68c6.83,2.45,14.88,2.45,20.14,2.45A11.61,11.61,0,0,1,286.74,88,8.08,8.08,0,0,1,289,93.77v17.16h4.91V67C293.92,62.59,291.64,58.39,287.61,55.23Zm1.4,28.2a16.05,16.05,0,0,0-11.38-4.2c-5.43,0-14.19,0-20.14-2.8V67c0-6.13,7.18-11.39,15.76-11.39a19.18,19.18,0,0,1,11.38,3.68c2.81,2.1,4.38,4.91,4.38,7.71Z" transform="translate(-7.84 -5.23)"/><path class="cls-1" d="M250,111.33h-9.92c-14.31,0-21.49-.43-25.44-4.41-3.75-3.78-3.7-9.62-3.64-20.22l0-35.63h4.89V86.73c-.07,9-.11,14.41,2.2,16.73,2.51,2.53,9.08,3,22,3H250Z" transform="translate(-7.84 -5.23)"/><path class="cls-1" d="M190,111.4h-4a18.82,18.82,0,0,1-18.8-18.8V69.75A18.82,18.82,0,0,1,186,51h4a18.81,18.81,0,0,1,18.79,18.8V92.6A18.81,18.81,0,0,1,190,111.4ZM186,56a13.79,13.79,0,0,0-13.79,13.77V92.6A13.8,13.8,0,0,0,186,106.37h4A13.79,13.79,0,0,0,203.79,92.6V69.75A13.78,13.78,0,0,0,190,56Z" transform="translate(-7.84 -5.23)"/><path class="cls-1" d="M142.09,111.62a24.59,24.59,0,0,1-10.41-2,14.21,14.21,0,0,1-8.27-13h5.06a9.06,9.06,0,0,0,5.35,8.36c3.28,1.56,7.22,1.63,10.35,1.46,2.73-.12,6.23-.45,9-2,3.69-2.07,7.25-9.56,4.39-15.31-2.15-4-6-4.84-12.7-5.12a40.27,40.27,0,0,1-12.19-2.84,14.59,14.59,0,0,1-8.39-11.06,16.71,16.71,0,0,1,8.09-16.82c3.64-2,7.73-2.49,11.25-2.66s8.41-.09,12.73,1.93a14.06,14.06,0,0,1,8.28,13h-5.07a9.08,9.08,0,0,0-5.36-8.37c-3.33-1.55-7.28-1.62-10.35-1.45-2.91.14-6.28.49-9,2a11.49,11.49,0,0,0-5.56,11.58,9.61,9.61,0,0,0,5.37,7.23A34.37,34.37,0,0,0,145.09,79c6.59.27,13.33,1.1,17,7.84,4,8.07-.25,18.62-6.42,22.06-3.72,2.09-8,2.52-11.26,2.67C143.67,111.6,142.89,111.62,142.09,111.62Z" transform="translate(-7.84 -5.23)"/></g><path class="cls-1" d="M534.75,94.82c-3.5-1.75-8.75-4.21-12.78-7.71h3.85a16.16,16.16,0,0,0,11.56-5.25,18.91,18.91,0,0,0,4.56-12.61c0-10-7.19-18-16.12-18H504.28v60.08h5.08V87.11h6.13c4.55,6.13,12.43,9.81,17.16,12.09,6.48,3.15,6.31,8.75,6.31,12.08l4.9-.35C543.86,107.78,543.86,99.37,534.75,94.82ZM509.36,82.21V56.28h16.46c6.13,0,11.21,5.78,11.21,13a13.61,13.61,0,0,1-3.5,9.28,10.78,10.78,0,0,1-7.71,3.68Z" transform="translate(-7.84 -5.23)"/><path class="cls-1" d="M440.52,111.4h-4a18.82,18.82,0,0,1-18.8-18.8V69.75A18.82,18.82,0,0,1,436.54,51h4a18.82,18.82,0,0,1,18.8,18.8V92.6A18.82,18.82,0,0,1,440.52,111.4Zm-4-55.42a13.79,13.79,0,0,0-13.79,13.77V92.6a13.8,13.8,0,0,0,13.79,13.77h4A13.79,13.79,0,0,0,454.31,92.6V69.75A13.79,13.79,0,0,0,440.52,56Z" transform="translate(-7.84 -5.23)"/><path class="cls-1" d="M567.48,111.4h-4a18.82,18.82,0,0,1-18.8-18.8V69.75A18.82,18.82,0,0,1,563.49,51h4a18.81,18.81,0,0,1,18.79,18.8V92.6A18.81,18.81,0,0,1,567.48,111.4Zm-4-55.42A13.79,13.79,0,0,0,549.7,69.75V92.6a13.8,13.8,0,0,0,13.79,13.77h4A13.79,13.79,0,0,0,581.26,92.6V69.75A13.78,13.78,0,0,0,567.48,56Z" transform="translate(-7.84 -5.23)"/><path class="cls-1" d="M481.79,111.33a21.63,21.63,0,0,1-13.69-4.62,14.81,14.81,0,0,1-6-11.56V51.07H467V95.15c0,2.82,1.5,5.57,4.22,7.75a17,17,0,0,0,10.61,3.54c8.09,0,14.92-5.17,14.92-11.29V51.07h4.9V95.15C501.61,104.08,492.72,111.33,481.79,111.33Z" transform="translate(-7.84 -5.23)"/><path class="cls-1" d="M92.14,25.55c-6.31-12.44-19.62-20.32-34-20.32H56.93c-15.06,0-28.72,8.58-34.68,21.89A14.89,14.89,0,0,0,20,28.35a.18.18,0,0,0-.18.18C12.44,32.55,8.24,38,7.89,43.94c-.53,6.48,3.33,12.79,10.86,18V96h4.38V64.61a60.27,60.27,0,0,0,12.26,5.25,62.13,62.13,0,0,0,9.46,2.45l.7-4.37a59.69,59.69,0,0,1-8.76-2.28A64.5,64.5,0,0,1,23.3,59.88l-.7-.53c-7.18-4.55-10.86-10-10.33-15.06.17-4.55,3.68-8.76,9.63-11.91l2.28-1.23c19.27-8.76,46.77-9.1,66.56-.52l1.75-3.86V26.6C92.49,26.25,92.31,26.07,92.14,25.55ZM57.81,20.12a90,90,0,0,0-29.43,4.73A33.84,33.84,0,0,1,56.93,9.61h1.23a33.23,33.23,0,0,1,28,14.89A89.77,89.77,0,0,0,57.81,20.12Z" transform="translate(-7.84 -5.23)"/><path class="cls-1" d="M18.84,121c6.31,12.44,19.62,20.32,34,20.32h1.23c15.06,0,28.73-8.58,34.68-21.89A15.91,15.91,0,0,0,91,118.2a.17.17,0,0,0,.17-.18c7.36-4,11.56-9.45,11.91-15.41.53-6.48-3.33-12.79-10.86-18v-34H87.85V81.94a59.79,59.79,0,0,0-12.26-5.25,62,62,0,0,0-9.45-2.45l-.7,4.37a59.26,59.26,0,0,1,8.75,2.28,63.75,63.75,0,0,1,13.49,5.78l.7.53c7.18,4.55,10.86,10,10.33,15.06-.17,4.55-3.67,8.76-9.63,11.91L86.8,115.4c-19.26,8.75-46.76,9.1-66.55.52l-1.76,3.86V120C18.49,120.3,18.67,120.48,18.84,121Zm34.33,5.43A89.93,89.93,0,0,0,82.6,121.7a33.83,33.83,0,0,1-28.55,15.24H52.82a33.23,33.23,0,0,1-28-14.89A89.81,89.81,0,0,0,53.17,126.43Z" transform="translate(-7.84 -5.23)"/></svg>