<svg id="Layer_1" data-name="Layer 1" xmlns="http://www.w3.org/2000/svg" viewBox="0 0 478.04 159.31"><defs><style>.cls-1{fill:#01010f;}</style></defs><g id="de"><path d="M244.3,66.7v5.78h33.28v4H244.3v6c0,9.63,6.83,17.34,15.06,17.34h19.1v5.08h-19.1c-11,0-20-10-20-22.42V66.7c0-12.26,8.93-22.25,20-22.25h19.1v4.91h-19.1C251.13,49.36,244.3,57.06,244.3,66.7Z"/><path d="M214.61,104.87H195.39V44h19.22a22.66,22.66,0,0,1,22.46,22.8V82.09A22.65,22.65,0,0,1,214.61,104.87ZM200.5,99.74h14.11A17.52,17.52,0,0,0,232,82.09V66.81a17.53,17.53,0,0,0-17.35-17.67H200.5Z"/></g><g id="SOLA"><path class="cls-1" d="M170.39,87.19v1.75h-.18A5.24,5.24,0,0,0,170.39,87.19Z"/><path d="M169,48.66a23.4,23.4,0,0,0-14.36-4.56c-11.38,0-20.84,7.18-20.84,16.29v44h5.08V75.1c6.83,2.46,14.89,2.46,20.14,2.46a11.62,11.62,0,0,1,9.11,3.85,8.1,8.1,0,0,1,2.28,5.78v17.16h4.9v-44C175.29,56,173,51.81,169,48.66Zm1.41,28.2A16,16,0,0,0,159,72.65c-5.43,0-14.19,0-20.14-2.8V60.39C138.86,54.26,146,49,154.62,49A19.29,19.29,0,0,1,166,52.68c2.8,2.11,4.38,4.91,4.38,7.71Z"/><path d="M131.36,104.75h-9.92c-14.32,0-21.5-.43-25.45-4.41-3.74-3.78-3.7-9.61-3.63-20.22l0-35.63h4.89V80.16c-.07,9-.1,14.4,2.2,16.72,2.51,2.54,9.09,3,22,3h9.92Z"/><path d="M71.38,104.82h-4A18.82,18.82,0,0,1,48.59,86V63.17a18.83,18.83,0,0,1,18.8-18.8h4a18.83,18.83,0,0,1,18.8,18.8V86A18.82,18.82,0,0,1,71.38,104.82Zm-4-55.42A13.79,13.79,0,0,0,53.61,63.17V86A13.78,13.78,0,0,0,67.39,99.79h4A13.78,13.78,0,0,0,85.16,86V63.17A13.79,13.79,0,0,0,71.38,49.4Z"/><path d="M23.47,105a24.49,24.49,0,0,1-10.42-2,14.21,14.21,0,0,1-8.27-13H9.84a9.07,9.07,0,0,0,5.36,8.37c3.27,1.55,7.22,1.62,10.35,1.45,2.72-.12,6.22-.45,9-2,3.69-2.07,7.25-9.56,4.39-15.31-2.15-4-6-4.84-12.7-5.11a40.44,40.44,0,0,1-12.18-2.84A14.56,14.56,0,0,1,5.69,63.58a16.68,16.68,0,0,1,8.08-16.81c3.64-2,7.73-2.5,11.25-2.67S33.43,44,37.75,46A14.07,14.07,0,0,1,46,59H41a9.08,9.08,0,0,0-5.37-8.36c-3.32-1.56-7.28-1.63-10.35-1.46-2.91.14-6.28.5-9,2a11.49,11.49,0,0,0-5.56,11.58A9.65,9.65,0,0,0,16.05,70a34.71,34.71,0,0,0,10.41,2.42c6.59.28,13.33,1.1,17,7.84,4,8.07-.25,18.63-6.42,22.06-3.72,2.09-8,2.52-11.26,2.67C25,105,24.26,105,23.47,105Z"/></g><path d="M416.13,88.24c-3.51-1.75-8.76-4.2-12.79-7.71h3.85a16.13,16.13,0,0,0,11.56-5.25,18.89,18.89,0,0,0,4.56-12.61c0-10-7.18-18-16.12-18H385.65v60.08h5.08V80.53h6.13c4.55,6.13,12.44,9.81,17.16,12.09,6.48,3.15,6.31,8.76,6.31,12.09l4.9-.36C425.23,101.2,425.23,92.79,416.13,88.24Zm-25.4-12.61V49.71h16.46c6.13,0,11.21,5.78,11.21,13A13.56,13.56,0,0,1,414.9,72a10.73,10.73,0,0,1-7.71,3.68Z"/><path d="M321.9,104.82h-4A18.82,18.82,0,0,1,299.11,86V63.17a18.83,18.83,0,0,1,18.8-18.8h4a18.82,18.82,0,0,1,18.79,18.8V86A18.81,18.81,0,0,1,321.9,104.82Zm-4-55.42a13.8,13.8,0,0,0-13.79,13.77V86a13.79,13.79,0,0,0,13.79,13.77h4A13.78,13.78,0,0,0,335.68,86V63.17A13.79,13.79,0,0,0,321.9,49.4Z"/><path d="M448.85,104.82h-4A18.81,18.81,0,0,1,426.07,86V63.17a18.82,18.82,0,0,1,18.79-18.8h4a18.83,18.83,0,0,1,18.8,18.8V86A18.82,18.82,0,0,1,448.85,104.82Zm-4-55.42a13.79,13.79,0,0,0-13.78,13.77V86a13.78,13.78,0,0,0,13.78,13.77h4A13.79,13.79,0,0,0,462.64,86V63.17A13.8,13.8,0,0,0,448.85,49.4Z"/><path d="M363.16,104.75a21.63,21.63,0,0,1-13.69-4.62c-3.88-3.09-6-7.21-6-11.56V44.49h4.89V88.57c0,2.82,1.5,5.58,4.22,7.75a16.92,16.92,0,0,0,10.61,3.54c8.09,0,14.93-5.17,14.93-11.29V44.49H383V88.57C383,97.5,374.09,104.75,363.16,104.75Z"/></svg>