<svg id="Layer_1" data-name="Layer 1" xmlns="http://www.w3.org/2000/svg" viewBox="0 0 483.18 159.31"><defs><style>.cls-1{fill:#255e5a;}</style></defs><g id="de"><path class="cls-1" d="M251.65,73.27v5.78h33.28v4H251.65v6c0,9.63,6.83,17.34,15.07,17.34h19.09v5.08H266.72c-11,0-20-10-20-22.42V73.27c0-12.26,8.93-22.24,20-22.24h19.09v4.9H266.72C258.48,55.93,251.65,63.64,251.65,73.27Z"/><path class="cls-1" d="M222,111.45H202.74V50.59H222a22.66,22.66,0,0,1,22.47,22.8V88.67A22.66,22.66,0,0,1,222,111.45Zm-14.1-5.13H222a17.52,17.52,0,0,0,17.35-17.65V73.39A17.53,17.53,0,0,0,222,55.72h-14.1Z"/></g><g id="SOLA"><path class="cls-1" d="M177.74,93.77v1.75h-.18A5.27,5.27,0,0,0,177.74,93.77Z"/><path class="cls-1" d="M176.34,55.23A23.51,23.51,0,0,0,162,50.68c-11.38,0-20.84,7.18-20.84,16.29v44h5.08V81.68c6.83,2.45,14.89,2.45,20.14,2.45A11.58,11.58,0,0,1,175.46,88a8,8,0,0,1,2.28,5.78v17.16h4.9V67C182.64,62.59,180.36,58.39,176.34,55.23Zm1.4,28.2a16.06,16.06,0,0,0-11.39-4.2c-5.43,0-14.18,0-20.14-2.8V67c0-6.13,7.18-11.39,15.76-11.39a19.21,19.21,0,0,1,11.39,3.68c2.8,2.1,4.38,4.91,4.38,7.71Z"/><path class="cls-1" d="M138.71,111.33h-9.92c-14.32,0-21.49-.43-25.45-4.41-3.74-3.78-3.7-9.62-3.63-20.22l0-35.63h4.89l0,35.66c-.07,9-.1,14.41,2.21,16.73,2.5,2.53,9.08,3,22,3h9.92Z"/><path class="cls-1" d="M78.73,111.4h-4A18.82,18.82,0,0,1,56,92.6V69.75A18.82,18.82,0,0,1,74.75,51h4a18.82,18.82,0,0,1,18.8,18.8V92.6A18.82,18.82,0,0,1,78.73,111.4ZM74.75,56A13.79,13.79,0,0,0,61,69.75V92.6a13.79,13.79,0,0,0,13.79,13.77h4A13.8,13.8,0,0,0,92.52,92.6V69.75A13.79,13.79,0,0,0,78.73,56Z"/><path class="cls-1" d="M30.82,111.62a24.64,24.64,0,0,1-10.42-2,14.23,14.23,0,0,1-8.27-13H17.2a9.06,9.06,0,0,0,5.35,8.36c3.28,1.56,7.22,1.63,10.35,1.46,2.73-.12,6.22-.45,9-2,3.7-2.07,7.25-9.56,4.4-15.31-2.16-4-6-4.84-12.7-5.12a40.2,40.2,0,0,1-12.19-2.84A14.56,14.56,0,0,1,13,70.16a16.71,16.71,0,0,1,8.08-16.82c3.64-2,7.73-2.49,11.26-2.66s8.4-.09,12.72,1.93a14,14,0,0,1,8.28,13H48.32A9.08,9.08,0,0,0,43,57.19c-3.33-1.55-7.28-1.62-10.35-1.45-2.92.14-6.29.49-9,2A11.49,11.49,0,0,0,18,69.34a9.62,9.62,0,0,0,5.38,7.23A34.31,34.31,0,0,0,33.81,79c6.6.27,13.34,1.1,17,7.84,4,8.07-.26,18.62-6.43,22.06-3.72,2.09-8,2.52-11.26,2.67C32.39,111.6,31.62,111.62,30.82,111.62Z"/></g><path class="cls-1" d="M423.48,94.82c-3.5-1.75-8.76-4.21-12.79-7.71h3.86a16.2,16.2,0,0,0,11.56-5.25,19,19,0,0,0,4.55-12.61c0-10-7.18-18-16.11-18H393v60.08h5.08V87.11h6.13c4.56,6.13,12.44,9.81,17.17,12.09,6.48,3.15,6.3,8.75,6.3,12.08l4.91-.35C432.59,107.78,432.59,99.37,423.48,94.82Zm-25.4-12.61V56.28h16.47c6.13,0,11.21,5.78,11.21,13a13.57,13.57,0,0,1-3.51,9.28,10.76,10.76,0,0,1-7.7,3.68Z"/><path class="cls-1" d="M329.25,111.4h-4a18.81,18.81,0,0,1-18.79-18.8V69.75A18.81,18.81,0,0,1,325.26,51h4a18.82,18.82,0,0,1,18.8,18.8V92.6A18.82,18.82,0,0,1,329.25,111.4Zm-4-55.42a13.78,13.78,0,0,0-13.78,13.77V92.6a13.79,13.79,0,0,0,13.78,13.77h4A13.8,13.8,0,0,0,343,92.6V69.75A13.79,13.79,0,0,0,329.25,56Z"/><path class="cls-1" d="M456.2,111.4h-4a18.82,18.82,0,0,1-18.8-18.8V69.75A18.82,18.82,0,0,1,452.22,51h4A18.82,18.82,0,0,1,475,69.75V92.6A18.82,18.82,0,0,1,456.2,111.4Zm-4-55.42a13.79,13.79,0,0,0-13.79,13.77V92.6a13.79,13.79,0,0,0,13.79,13.77h4A13.8,13.8,0,0,0,470,92.6V69.75A13.79,13.79,0,0,0,456.2,56Z"/><path class="cls-1" d="M370.51,111.33a21.63,21.63,0,0,1-13.69-4.62,14.84,14.84,0,0,1-6-11.56V51.07h4.89V95.15c0,2.82,1.5,5.57,4.22,7.75a17,17,0,0,0,10.61,3.54c8.1,0,14.93-5.17,14.93-11.29V51.07h4.89V95.15C390.33,104.08,381.44,111.33,370.51,111.33Z"/></svg>