<svg id="Layer_1" data-name="Layer 1" xmlns="http://www.w3.org/2000/svg" viewBox="0 0 187.25 159.31"><path d="M139.69,25.55c-6.31-12.44-19.62-20.32-34-20.32h-1.23c-15.06,0-28.72,8.58-34.68,21.89a14.89,14.89,0,0,0-2.27,1.23.18.18,0,0,0-.18.18C60,32.55,55.79,38,55.44,43.94c-.53,6.48,3.33,12.79,10.86,18V96h4.38V64.61a60,60,0,0,0,12.26,5.25,61.83,61.83,0,0,0,9.46,2.45l.7-4.37a59.69,59.69,0,0,1-8.76-2.28,64.5,64.5,0,0,1-13.49-5.78l-.7-.53C63,54.8,59.29,49.37,59.82,44.29c.17-4.55,3.68-8.76,9.63-11.91l2.28-1.23c19.27-8.76,46.76-9.1,66.56-.52L140,26.77V26.6C140,26.25,139.86,26.07,139.69,25.55Zm-34.33-5.43a90,90,0,0,0-29.43,4.73A33.84,33.84,0,0,1,104.48,9.61h1.23a33.23,33.23,0,0,1,28,14.89A89.77,89.77,0,0,0,105.36,20.12Z"/><path d="M66.39,121c6.31,12.44,19.62,20.32,34,20.32h1.23c15.06,0,28.72-8.58,34.68-21.89a15.91,15.91,0,0,0,2.28-1.23.17.17,0,0,0,.17-.18c7.36-4,11.56-9.45,11.91-15.41.53-6.48-3.33-12.79-10.86-18v-34H135.4V81.94a59.79,59.79,0,0,0-12.26-5.25,61.83,61.83,0,0,0-9.46-2.45l-.7,4.37a59.37,59.37,0,0,1,8.76,2.28,63.75,63.75,0,0,1,13.49,5.78l.7.53c7.18,4.55,10.86,10,10.33,15.06-.17,4.55-3.67,8.76-9.63,11.91l-2.28,1.23c-19.26,8.75-46.76,9.1-66.56.52L66,119.78V120C66,120.3,66.22,120.48,66.39,121Zm34.33,5.43a89.93,89.93,0,0,0,29.43-4.73,33.84,33.84,0,0,1-28.55,15.24h-1.23a33.23,33.23,0,0,1-28-14.89A89.81,89.81,0,0,0,100.72,126.43Z"/></svg>