<?xml version="1.0" encoding="utf-8"?>
<!-- Generator: Adobe Illustrator 27.2.0, SVG Export Plug-In . SVG Version: 6.00 Build 0)  -->
<svg version="1.1" id="Layer_1" xmlns="http://www.w3.org/2000/svg" xmlns:xlink="http://www.w3.org/1999/xlink" x="0px" y="0px"
	 viewBox="0 0 121.9 159.3" style="enable-background:new 0 0 121.9 159.3;" xml:space="preserve">
<style type="text/css">
	.st0{fill:#255E5A;}
</style>
<g>
	<path class="st0" d="M97.6,31.9c-6.3-12.4-19.6-20.3-34-20.3h-1.2c-15.1,0-28.7,8.6-34.7,21.9c-0.8,0.3-1.5,0.8-2.2,1.2
		c-0.1,0-0.2,0.1-0.2,0.2l0,0c-7.4,4-11.6,9.5-11.9,15.4c-0.5,6.5,3.3,12.8,10.9,18v34.1h4.4V71c3.9,2.2,8,4,12.3,5.2
		c3.1,1.1,6.2,1.9,9.5,2.4l0.7-4.4c-3-0.5-5.9-1.3-8.8-2.3c-4.7-1.4-9.2-3.3-13.5-5.8l-0.7-0.5c-7.2-4.5-10.9-10-10.3-15.1
		c0.2-4.5,3.7-8.8,9.6-11.9l2.3-1.2c19.3-8.8,46.8-9.1,66.6-0.5l1.8-3.9V33C98,32.6,97.8,32.4,97.6,31.9z M63.3,26.5
		c-10-0.1-20,1.5-29.4,4.7c6.3-9.6,17.1-15.3,28.5-15.2h1.2c11.3-0.1,21.8,5.5,28,14.9C82.5,27.9,72.9,26.4,63.3,26.5z"/>
	<path class="st0" d="M24.3,127.4c6.3,12.4,19.6,20.3,34,20.3h1.2c15.1,0,28.7-8.6,34.7-21.9c0.8-0.3,1.5-0.8,2.2-1.2
		c0.1,0,0.2-0.1,0.2-0.2c0,0,0,0,0,0c7.4-4,11.6-9.4,11.9-15.4c0.5-6.5-3.3-12.8-10.9-18V57h-4.4v31.3c-3.9-2.2-8-4-12.3-5.2
		c-3.1-1.1-6.2-1.9-9.4-2.4L70.9,85c3,0.5,5.9,1.3,8.8,2.3c4.7,1.4,9.2,3.3,13.5,5.8l0.7,0.5c7.2,4.6,10.9,10,10.3,15.1
		c-0.2,4.6-3.7,8.8-9.6,11.9l-2.3,1.2c-19.3,8.8-46.8,9.1-66.6,0.5l-1.8,3.9v0.2C24,126.7,24.1,126.9,24.3,127.4z M58.6,132.8
		c10,0.1,20-1.5,29.4-4.7c-6.3,9.6-17.1,15.3-28.5,15.2h-1.2c-11.3,0.1-21.8-5.5-28-14.9C39.4,131.4,49,132.9,58.6,132.8z"/>
</g>
</svg>
