<svg id="Layer_1" data-name="Layer 1" xmlns="http://www.w3.org/2000/svg" viewBox="0 0 121.9 159.31"><defs><style>.cls-1{fill:#bc8757;}</style></defs><path class="cls-1" d="M92.14,25.55c-6.31-12.44-19.62-20.32-34-20.32H56.93c-15.06,0-28.72,8.58-34.68,21.89A14.89,14.89,0,0,0,20,28.35a.18.18,0,0,0-.18.18C12.44,32.55,8.24,38,7.89,43.94c-.53,6.48,3.33,12.79,10.86,18V96h4.38V64.61a60.27,60.27,0,0,0,12.26,5.25,62.13,62.13,0,0,0,9.46,2.45l.7-4.37a59.69,59.69,0,0,1-8.76-2.28A64.5,64.5,0,0,1,23.3,59.88l-.7-.53c-7.18-4.55-10.86-10-10.33-15.06.17-4.55,3.68-8.76,9.63-11.91l2.28-1.23c19.27-8.76,46.77-9.1,66.56-.52l1.75-3.86V26.6C92.49,26.25,92.31,26.07,92.14,25.55ZM57.81,20.12a90,90,0,0,0-29.43,4.73A33.84,33.84,0,0,1,56.93,9.61h1.23a33.23,33.23,0,0,1,28,14.89A89.77,89.77,0,0,0,57.81,20.12Z"/><path class="cls-1" d="M18.84,121c6.31,12.44,19.62,20.32,34,20.32h1.23c15.06,0,28.73-8.58,34.68-21.89A15.91,15.91,0,0,0,91,118.2a.17.17,0,0,0,.17-.18c7.36-4,11.56-9.45,11.91-15.41.53-6.48-3.33-12.79-10.86-18v-34H87.85V81.94a59.79,59.79,0,0,0-12.26-5.25,62,62,0,0,0-9.45-2.45l-.7,4.37a59.26,59.26,0,0,1,8.75,2.28,63.75,63.75,0,0,1,13.49,5.78l.7.53c7.18,4.55,10.86,10,10.33,15.06-.17,4.55-3.67,8.76-9.63,11.91L86.8,115.4c-19.26,8.75-46.76,9.1-66.55.52l-1.76,3.86V120C18.49,120.3,18.67,120.48,18.84,121Zm34.33,5.43A89.93,89.93,0,0,0,82.6,121.7a33.83,33.83,0,0,1-28.55,15.24H52.82a33.23,33.23,0,0,1-28-14.89A89.81,89.81,0,0,0,53.17,126.43Z"/></svg>