<?xml version="1.0" encoding="UTF-8"?>
<svg id="Layer_1" data-name="Layer 1" xmlns="http://www.w3.org/2000/svg" viewBox="0 0 595.28 159.31">
  <defs>
    <style>
      .cls-1 {
        fill: #01010f;
      }
    </style>
  </defs>
  <g>
    <g id="de">
      <path d="m361.54,66.7v5.78h33.28v4.03h-33.28v5.96c0,9.63,6.83,17.34,15.06,17.34h19.09v5.08h-19.09c-11.03,0-19.97-9.98-19.97-22.42v-15.76c0-12.26,8.93-22.24,19.97-22.24h19.09v4.9h-19.09c-8.23,0-15.06,7.71-15.06,17.34Z"/>
      <path d="m331.84,104.87h-19.22v-60.86h19.22c12.39,0,22.47,10.23,22.47,22.8v15.27c0,12.55-10.07,22.78-22.47,22.78Zm-14.1-5.13h14.1c9.57,0,17.35-7.92,17.35-17.65v-15.27c0-9.75-7.78-17.67-17.35-17.67h-14.1v50.6Z"/>
    </g>
    <g id="SOLA">
      <g>
        <path class="cls-1" d="m287.62,87.19v1.75h-.18c.18-.53.18-1.05.18-1.75Z"/>
        <path d="m286.22,48.66c-3.85-2.98-8.93-4.55-14.36-4.55-11.38,0-20.84,7.18-20.84,16.29v43.96h5.08v-29.25c6.83,2.45,14.89,2.45,20.14,2.45,3.85,0,7.01,1.4,9.11,3.85,1.58,1.58,2.28,3.68,2.28,5.78v17.16h4.9v-43.96c0-4.38-2.28-8.58-6.31-11.74Zm1.4,28.2c-2.98-2.8-6.83-4.2-11.39-4.2-5.43,0-14.19,0-20.14-2.8v-9.46c0-6.13,7.18-11.39,15.76-11.39,4.2,0,8.41,1.4,11.39,3.68,2.8,2.1,4.38,4.9,4.38,7.71v16.46Z"/>
      </g>
      <path d="m248.59,104.75h-9.92c-14.32,0-21.49-.43-25.44-4.41-3.75-3.78-3.7-9.61-3.63-20.22l.03-35.63h4.89l-.02,35.66c-.07,8.98-.1,14.4,2.21,16.73,2.51,2.53,9.08,2.98,21.97,2.98h9.92v4.89Z"/>
      <path d="m188.61,104.82h-3.99c-10.37,0-18.8-8.43-18.8-18.8v-22.85c0-10.37,8.43-18.8,18.8-18.8h3.99c10.37,0,18.8,8.43,18.8,18.8v22.85c0,10.37-8.43,18.8-18.8,18.8Zm-3.99-55.42c-7.6,0-13.79,6.17-13.79,13.77v22.85c0,7.59,6.18,13.77,13.79,13.77h3.99c7.6,0,13.79-6.17,13.79-13.77v-22.85c0-7.59-6.18-13.77-13.79-13.77h-3.99Z"/>
      <path d="m140.7,105.04c-3.25,0-6.99-.38-10.42-1.98-5.1-2.39-8.27-7.36-8.27-12.95h5.06c0,3.66,2,6.79,5.35,8.36,3.28,1.56,7.22,1.62,10.35,1.45,2.73-.12,6.23-.44,9.02-2.02,3.69-2.07,7.25-9.56,4.4-15.31-2.16-3.97-5.97-4.84-12.7-5.11-3.43-.14-8.67-1.35-12.19-2.84-4.34-1.85-7.55-6.07-8.39-11.07-1.09-6.5,2.31-13.58,8.08-16.81,3.64-2.04,7.73-2.5,11.26-2.67,3.6-.12,8.41-.09,12.73,1.93,5.18,2.45,8.28,7.29,8.28,12.95h-5.06c0-3.66-2-6.77-5.36-8.36-3.33-1.56-7.28-1.62-10.35-1.45-2.92.14-6.29.5-9.01,2.02-3.97,2.22-6.31,7.1-5.56,11.58.54,3.23,2.65,6.07,5.37,7.24,2.98,1.27,7.54,2.33,10.41,2.43,6.59.27,13.33,1.09,16.99,7.83,4,8.07-.26,18.63-6.42,22.07-3.72,2.09-7.97,2.51-11.26,2.67-.73.03-1.51.05-2.3.05Z"/>
    </g>
    <g>
      <path d="m533.36,88.24c-3.5-1.75-8.76-4.2-12.79-7.71h3.85c4.2,0,8.41-1.93,11.56-5.26,2.98-3.33,4.55-7.88,4.55-12.61,0-9.98-7.18-18.04-16.11-18.04h-21.54v60.08h5.08v-24.17h6.13c4.55,6.13,12.44,9.81,17.16,12.09,6.48,3.15,6.31,8.76,6.31,12.09l4.9-.35c0-3.15,0-11.56-9.11-16.11Zm-25.4-12.61v-25.92h16.46c6.13,0,11.21,5.78,11.21,12.96,0,3.5-1.23,6.83-3.5,9.28-2.1,2.28-4.9,3.68-7.71,3.68h-16.46Z"/>
      <path d="m439.13,104.82h-3.99c-10.37,0-18.8-8.43-18.8-18.8v-22.85c0-10.37,8.43-18.8,18.8-18.8h3.99c10.37,0,18.8,8.43,18.8,18.8v22.85c0,10.37-8.43,18.8-18.8,18.8Zm-3.99-55.42c-7.6,0-13.79,6.17-13.79,13.77v22.85c0,7.59,6.18,13.77,13.79,13.77h3.99c7.6,0,13.79-6.17,13.79-13.77v-22.85c0-7.59-6.18-13.77-13.79-13.77h-3.99Z"/>
      <path d="m566.08,104.82h-3.99c-10.37,0-18.8-8.43-18.8-18.8v-22.85c0-10.37,8.43-18.8,18.8-18.8h3.99c10.37,0,18.8,8.43,18.8,18.8v22.85c0,10.37-8.43,18.8-18.8,18.8Zm-3.99-55.42c-7.6,0-13.79,6.17-13.79,13.77v22.85c0,7.59,6.18,13.77,13.79,13.77h3.99c7.6,0,13.79-6.17,13.79-13.77v-22.85c0-7.59-6.18-13.77-13.79-13.77h-3.99Z"/>
      <path d="m480.4,104.75c-5.17,0-10.04-1.64-13.69-4.62-3.88-3.1-6.03-7.22-6.03-11.56v-44.08h4.89v44.08c0,2.82,1.5,5.58,4.22,7.75,2.76,2.26,6.62,3.54,10.61,3.54,8.09,0,14.92-5.17,14.92-11.29v-44.08h4.89v44.08c0,8.93-8.89,16.18-19.82,16.18Z"/>
    </g>
  </g>
  <g>
    <path d="m89.17,45.33v39.76c-3.5-1.93-7.53-3.85-12.09-5.08-3.15-1.05-6.13-1.75-9.46-2.45l-.7,4.38c2.98.53,5.96,1.23,8.76,2.1,5.08,1.75,9.63,3.68,13.49,5.96l.7.53c7.18,4.55,10.86,9.98,10.33,15.06-.18,4.55-3.5,8.58-9.46,11.91l-2.1,1.05c-19.27,8.93-47.64,9.46-67.26,1.05l-1.75,4.03c.17,0,.35.18.52.18l.18.53c6.31,12.44,19.62,20.32,33.98,20.32h1.23c15.06,0,28.73-8.58,34.68-21.89,8.76-4.2,14.01-10.16,14.36-16.82.52-6.48-3.33-12.79-11.03-18.22v-42.56m-38.01,95.11h-1.23c-11.03,0-21.37-5.25-27.5-14.01,8.23,2.45,17.52,3.85,26.8,3.85,10.51,0,21.02-1.58,30.3-4.9-5.96,9.28-16.82,15.06-28.37,15.06Z"/>
    <path d="m90.75,30.27c-6.31-12.44-19.62-20.32-33.98-20.32h-1.23c-15.06,0-28.73,8.58-34.68,21.89-.88.35-1.4.7-2.28,1.23,0,0-.18,0-.18.18-7.36,4.03-11.56,9.46-11.91,15.41-.53,6.48,3.33,12.79,10.86,18.04v33.98h4.38v-31.35c3.68,2.1,7.71,3.85,12.26,5.25,3.15,1.05,6.31,1.93,9.46,2.45l.7-4.38c-2.8-.53-5.78-1.23-8.76-2.28-5.08-1.58-9.63-3.5-13.49-5.78l-.7-.52c-7.18-4.55-10.86-9.98-10.33-15.06.17-4.55,3.68-8.76,9.63-11.91l2.28-1.23c19.27-8.76,46.77-9.11,66.56-.52l1.75-3.85v-.17c0-.35-.18-.53-.35-1.05Zm-34.33-5.43c-10.16,0-20.49,1.58-29.43,4.73,6.13-9.46,16.81-15.24,28.55-15.24h1.23c11.38,0,22.07,5.61,28.02,14.89-8.76-2.98-18.74-4.38-28.37-4.38Z"/>
  </g>
</svg>